<svg xmlns="http://www.w3.org/2000/svg" viewBox="0 0 324.77 327.76"><defs><style>.cls-1{fill:#f5ddd0;}.cls-2{fill:#e5d0c7;}</style></defs><title>ball</title><g id="Layer_2" data-name="Layer 2"><g id="Layer_1-2" data-name="Layer 1"><path class="cls-1" d="M189.45,325.87C75.79,342.39-27.11,248.35,6.45,132.53c30-103.48,143.66-170.81,242-108.66,119.88,75.74,93.8,263.78-45,299.26A133.09,133.09,0,0,1,189.45,325.87Z"/><ellipse class="cls-2" cx="69.59" cy="99.85" rx="25.4" ry="24.42"/><path class="cls-2" d="M216.25,10.06s48.17,21.07,52.68,33.12S210.23,47.69,216.25,10.06Z"/><path class="cls-2" d="M268.41,98.18c-20.19,3.56-31.2,28.71-26.13,42.81,7.71,21.45,47.06,26.17,56.41,2,5-12.87.15-41.72-20.89-44.89A28.73,28.73,0,0,0,268.41,98.18Z"/><path class="cls-2" d="M219,318.32s-24.33-71.49,12.24-96.19,77.88,8.24,77.88,8.24S294.44,292.22,219,318.32Z"/><path class="cls-2" d="M154.57,200.69h-.12C146,198.9,138.75,192,135,184c-6.13-13.12-3.51-28.36,3.43-39.92,4-6.67,9.57-12.59,16.86-15.44,17.81-7,49.38,15,48.76,35.44-.21,6.8-4.54,12.39-9.17,17C185.29,190.65,169.94,203.85,154.57,200.69Z"/><path class="cls-2" d="M25.18,261.68S54.46,301.48,80.75,309s4.51-38.3-6-44.3S41.7,251.92,25.18,261.68Z"/><path class="cls-2" d="M64.23,39.42s41.34-30,47.34-27.78S120.57,51.43,64.23,39.42Z"/><path class="cls-2" d="M128,246.55c.66-4.85,3.93-8.79,7.79-11.59,7.06-5.12,15-3.37,21.79,1.62,14.36,10.55-3.14,28.33-13.29,28.55-6,.13-12.09-3.82-15-10.53A14.87,14.87,0,0,1,128,246.55Z"/><path class="cls-2" d="M10.28,168.76c-.41.25-.82.51-1.23.8-12.07,8.57,5.12,44.12,17.52,36.68C46.57,194.27,29.65,157.13,10.28,168.76Z"/><path class="cls-2" d="M153.74,36.73a2.85,2.85,0,0,1,.74-.81,3.81,3.81,0,0,1,2-.63c5-.54,10.93.15,15.25,3.43,2.87,2.18,6.84,9.19,2,12.43a25.53,25.53,0,0,1-9.54,3.69c-3.73.59-6.84-1.53-8.71-5.64-1.12-2.46-2.49-5.81-2.6-8.83A6.61,6.61,0,0,1,153.74,36.73Z"/></g></g></svg>