<svg xmlns="http://www.w3.org/2000/svg" viewBox="0 0 384 384"><defs><style>.cls-1{fill:#1877f2;}</style></defs><title>fb-logo</title><g id="Layer_2" data-name="Layer 2"><g id="Layer_1-2" data-name="Layer 1"><path class="cls-1" d="M362.8,0H21.2A21.21,21.21,0,0,0,0,21.2V362.8A21.21,21.21,0,0,0,21.2,384H192V232H146.1V176H192V134.6C192,85,226.4,58,270.7,58c21.2,0,44,1.6,49.3,2.3v51.8H284.7c-24.1,0-28.7,11.4-28.7,28.2V176h57.4l-7.5,56H256V384H362.8A21.21,21.21,0,0,0,384,362.8V21.2A21.21,21.21,0,0,0,362.8,0Z"/></g></g></svg>