<svg xmlns="http://www.w3.org/2000/svg" viewBox="0 0 416 384"><defs><style>.cls-1{fill:#f5ddd0;}.cls-2{fill:#e5d0c7;}</style></defs><title>Asset 1</title><g id="Layer_2" data-name="Layer 2"><g id="Layer_1-2" data-name="Layer 1"><path class="cls-1" d="M160,384V256h96V384h97.6V192H416L208,0,0,192H62.4V384Z"/><path class="cls-2" d="M233.72,90.05c-19,3.35-29.33,27-24.57,40.25,7.25,20.16,44.24,24.6,53,1.88,4.7-12.1.15-39.22-19.63-42.2A27.25,27.25,0,0,0,233.72,90.05Z"/><path class="cls-2" d="M352.64,384c-44-11.33-63.16-49.59-54.26-71.56,6.47-16,29.05-26.32,54.26-25.64Z"/><path class="cls-2" d="M112.17,216.37h-.11c-8-1.68-14.76-8.16-18.28-15.67C88,188.36,90.48,174,97,163.17c3.76-6.27,9-11.84,15.85-14.52,16.74-6.58,46.42,14.1,45.83,33.32-.19,6.39-4.26,11.65-8.62,16C141,206.93,126.59,219.34,112.17,216.37Z"/><path class="cls-2" d="M298.63,191.17c-19,3.35-29.33,27-24.56,40.24,7.24,20.17,44.24,24.61,53,1.88,4.7-12.09.14-39.22-19.64-42.2A27.25,27.25,0,0,0,298.63,191.17Z"/><path class="cls-2" d="M90.24,294c-19,3.34-29.33,27-24.56,40.24,7.24,20.17,44.24,24.6,53,1.88,4.7-12.1.14-39.22-19.64-42.2A27,27,0,0,0,90.24,294Z"/></g></g></svg>