<svg xmlns="http://www.w3.org/2000/svg" viewBox="0 0 416.14 416"><defs><style>.cls-1{fill:#f5ddd0;}.cls-2{fill:#e5d0c7;}</style></defs><title>home2</title><g id="Layer_2" data-name="Layer 2"><g id="Layer_1-2" data-name="Layer 1"><path class="cls-1" d="M210.52,56.1a3.92,3.92,0,0,0-5,0l-156,124.8A4.2,4.2,0,0,0,48,184V414a2,2,0,0,0,2,2H158a2,2,0,0,0,2-2V274a2,2,0,0,1,2-2h92a2,2,0,0,1,2,2V414a2,2,0,0,0,2,2H366a2,2,0,0,0,2-2V184a4,4,0,0,0-1.5-3.1Z"/><path class="cls-1" d="M410.72,156.2,221.72,4.8a22,22,0,0,0-27.4,0L112,71.7V29.5a2,2,0,0,0-2-2H50a2,2,0,0,0-2,2v92.2L5.32,156.8a14,14,0,0,0-1.2,20.9,13.91,13.91,0,0,0,9.9,4.1,14.09,14.09,0,0,0,8.8-3.1l183.9-148a1.79,1.79,0,0,1,1.3-.4,2.42,2.42,0,0,1,1.3.4l183.9,147.4a14.09,14.09,0,0,0,8.8,3.1,14.19,14.19,0,0,0,14.1-14.8,14.21,14.21,0,0,0-5.4-10.2Z"/><path class="cls-2" d="M238.36,129.89c-20.19,3.56-31.2,28.71-26.13,42.81,7.71,21.45,47.06,26.17,56.41,2,5-12.87.15-41.72-20.89-44.89A28.9,28.9,0,0,0,238.36,129.89Z"/><path class="cls-2" d="M368,405.54c-46.81-12.05-67.18-52.75-57.72-76.12,6.89-17,30.9-28,57.72-27.27Z"/><path class="cls-2" d="M135.23,255.17l-.12,0c-8.46-1.79-15.7-8.68-19.44-16.67-6.13-13.12-3.51-28.36,3.43-39.92,4-6.67,9.57-12.59,16.86-15.44,17.81-7,49.38,15,48.76,35.44-.21,6.8-4.54,12.39-9.17,17C165.92,245.13,150.57,258.33,135.23,255.17Z"/><path class="cls-2" d="M310.55,200.42c-20.19,3.56-31.2,28.71-26.13,42.81,7.71,21.45,47.06,26.17,56.41,2,5-12.87.15-41.72-20.89-44.89A28.9,28.9,0,0,0,310.55,200.42Z"/><path class="cls-2" d="M88.88,309.8c-20.19,3.56-31.2,28.71-26.13,42.81,7.71,21.45,47.06,26.17,56.41,2,5-12.87.15-41.72-20.89-44.89A28.9,28.9,0,0,0,88.88,309.8Z"/></g></g></svg>