<svg xmlns="http://www.w3.org/2000/svg" viewBox="0 0 416 288"><defs><style>.cls-1{fill:#ffdde1;}.cls-2{fill:#f5ddd0;}</style></defs><title>mail-logo</title><g id="Layer_2" data-name="Layer 2"><g id="Layer_1-2" data-name="Layer 1"><path class="cls-1" d="M412.6,35.3,305,144.9a1.93,1.93,0,0,0,0,2.8l75.3,80.2a13,13,0,0,1,0,18.4,13,13,0,0,1-18.4,0l-75-79.9a2.05,2.05,0,0,0-2.9,0L265.7,185a80.52,80.52,0,0,1-57.4,24.2c-22.1.1-43.1-9.2-58.6-24.9l-17.6-17.9a2.05,2.05,0,0,0-2.9,0l-75,79.9a13,13,0,0,1-18.4,0,13,13,0,0,1,0-18.4l75.3-80.2a2.13,2.13,0,0,0,0-2.8L3.4,35.3A2,2,0,0,0,0,36.7V256a32.09,32.09,0,0,0,32,32H384a32.09,32.09,0,0,0,32-32V36.7A2,2,0,0,0,412.6,35.3Z"/><path class="cls-2" d="M208,183.1a54.37,54.37,0,0,0,39.1-16.4L404,7a31.43,31.43,0,0,0-19.8-7H31.9A31.22,31.22,0,0,0,12.1,7L169,166.7A54.37,54.37,0,0,0,208,183.1Z"/></g></g></svg>