<svg xmlns="http://www.w3.org/2000/svg" viewBox="0 0 228.08 278.86"><defs><style>.cls-1{fill:#a2cecc;}.cls-2{fill:#fff;}.cls-3{fill:#aededb;}.cls-4{fill:#e5d0c7;}.cls-5{fill:#a19f87;}.cls-6{fill:#fff7eb;}.cls-7{fill:#f5ddd0;}</style></defs><title>milk</title><g id="Layer_2" data-name="Layer 2"><g id="Layer_1-2" data-name="Layer 1"><polygon class="cls-1" points="218.81 106.21 226.11 106.79 227.86 110.49 226.03 113.32 219.35 112.36 218.81 106.21"/><path class="cls-1" d="M99.59,35.22s-10.68.4-10.76.68,11.88,10.92,11.88,10.92Z"/><path class="cls-2" d="M150.55,247c2.79-12.46,3.06-25.55,10.42-36.63,11.58-17.59,30.59-29.2,37.42-49.17a24.74,24.74,0,0,0,1.27-8.95,23.09,23.09,0,0,0-2.77-9.61c-9.14-17.42-29.21-28.88-45.66-38.41l0,0c-10.91,15.06-21,30.91-30.74,47q-2.92,4.83-5.81,9.69c-19,32.94-41,63.72-57.49,98.18-.53,1,6.78,3.72,10.55,5.57,2.46,1.09,5,2.2,7.4,3.22,4.75,2,8.72,3.68,9.59,4,13.9,4.69,29.08,8.54,43.69,4.94a34.27,34.27,0,0,0,8.58-3.31,20.45,20.45,0,0,0,6.8-5.89,30.83,30.83,0,0,0,4.31-9.87C149.07,254.2,149.7,250.44,150.55,247Z"/><path class="cls-2" d="M111.37,71.66l72.18,38.54s-18.3,21.65-40.9,48.36l-14,16.51c-19.12,22.15-37.86,44.72-57.06,67.47-4.23,4.92-8.44,10.27-13.14,15.36C68,226.94,76,196.29,85,164.78c1.31-4.66,2.63-9.32,3.94-13.92C100.7,109.37,111.37,71.66,111.37,71.66Z"/><path class="cls-2" d="M16.17,173.49c9-9,19.95-16.25,25.38-28.4,8.68-19.19,8.33-41.46,21.55-57.91A24.92,24.92,0,0,1,70,81.33a23.19,23.19,0,0,1,9.6-2.8c19.61-1.59,40,9.24,56.87,18,0,0,0,0,0,0-16.55,41.46-39.46,81.3-59,121.4q-10.17,20.82-20.33,41.63c-1.79-.85-3.57-1.72-5.36-2.58-7.32-4.72-20-13.48-21.4-14.63-11.39-9.24-22.76-20-27.53-34.29a34.63,34.63,0,0,1-1.79-9,20.79,20.79,0,0,1,1.34-8.9,31.07,31.07,0,0,1,6-8.93C10.87,178.59,13.71,176,16.17,173.49Z"/><polygon class="cls-3" points="88.42 39.82 89.12 38.19 90.35 39.82 89.57 42.1 88.42 39.82"/><path class="cls-4" d="M204.88,75.47a131.48,131.48,0,0,0-33-25,140.26,140.26,0,0,0-39.21-14c-2.83-.56-5.69-1-8.55-1.36-1.38-.18-2.77-.34-4.16-.5a22.4,22.4,0,0,0-3.28-.06c-1.13,0-2.26.11-3.38.07-2.37-.07-4.79-.48-7.16-.41-2.09.07-4.26.44-6.36.66s-4.09.43-6.14.57a16.38,16.38,0,0,1-2.21.17l-.1,0s-.39.15-.12,0l-.27.1c25,39.06,55.73,57.92,81.76,66.87,2.37.82,4.7,1.55,7,2.21,2,.51,3.9,1,5.87,1.46,13.41,3.28,27.95,5.07,42.15,3.88A114.77,114.77,0,0,0,204.88,75.47Z"/><path class="cls-5" d="M89.1,35.45a106.94,106.94,0,0,1,21.21-2c3.55,0,7.12.16,10.66.44s7.09.73,10.59,1.34,7,1.4,10.42,2.31,6.84,2,10.2,3.08a147.89,147.89,0,0,1,19.67,8.15,103.45,103.45,0,0,1,9.29,5.25c1.52.93,3,2,4.46,2.94s2.9,2.08,4.3,3.18,2.78,2.23,4.16,3.36,2.71,2.33,4,3.56c2.63,2.4,5.1,5,7.49,7.63a132,132,0,0,1,22.53,36.05l-.14.06a160,160,0,0,0-23.64-35c-.58-.66-1.18-1.3-1.79-1.94s-1.18-1.3-1.81-1.91c-1.24-1.25-2.47-2.5-3.76-3.71s-2.59-2.39-3.89-3.57-2.67-2.29-4.06-3.37q-4.14-3.3-8.53-6.25c-1.45-1-3-1.91-4.44-2.86l-2.27-1.36c-.76-.46-1.54-.87-2.31-1.31-3.09-1.69-6.25-3.3-9.49-4.7s-6.57-2.64-9.93-3.72-6.8-2-10.25-2.72-6.93-1.37-10.42-1.87a179,179,0,0,0-21.07-1.85c-1.76,0-3.53-.06-5.29-.05s-3.53.05-5.3.12c-3.53.14-7.06.37-10.57.83Z"/><path class="cls-6" d="M134.05,41.21A13.82,13.82,0,0,0,132,47.37c-.9,13.32,21.67,26.76,32.2,31.82,11.45,5.51,26.88,13.15,35.12.65,8.88-13.48,3-32.36-.24-47.33-.41-1.21-.84-2.38-1.33-3.54.09.22,6-3.51,6.33-3.79,2.89-2.32,5.52-5.71,5.22-9.65C208.4,4.14,192.48-3,183.06,2.31c-5.37,3-5,9.86-3.66,15.23a2.17,2.17,0,0,1,.07.24c-.35-1.32-16.28,3.38-17.19,3.73C152,25.38,139.69,31.74,134.05,41.21Z"/><path class="cls-5" d="M134.06,41.57a15.72,15.72,0,0,0-1.71,4,11,11,0,0,0-.24,4.35,17.77,17.77,0,0,0,3.47,7.94,40.58,40.58,0,0,0,5.95,6.41,72,72,0,0,0,6.94,5.36,124,124,0,0,0,15.16,8.83c2.64,1.28,5.29,2.56,8,3.74a63.8,63.8,0,0,0,8.18,3,24.26,24.26,0,0,0,8.53,1,14.41,14.41,0,0,0,4.15-1,13,13,0,0,0,3.63-2.24,16.6,16.6,0,0,0,2.84-3.24A27.22,27.22,0,0,0,201,76a29.67,29.67,0,0,0,1.44-4.13,36.64,36.64,0,0,0,.82-4.3,47.55,47.55,0,0,0,.17-8.77,73.5,73.5,0,0,0-1.13-8.72c-1.06-5.78-2.57-11.46-3.92-17.21l0,.06-1.34-3.46-.11-.26.14-.22a1.62,1.62,0,0,1,.47-.52,3.58,3.58,0,0,1,.44-.31c.3-.19.59-.34.88-.49l1.7-.84c.22-.12.51-.32.79-.47l.81-.49a11.33,11.33,0,0,0,1.48-1.06,13.75,13.75,0,0,0,4.3-5.73,7.75,7.75,0,0,0,.42-3.44,11.94,11.94,0,0,0-.86-3.47,15.58,15.58,0,0,0-4.31-5.75,20.5,20.5,0,0,0-13.5-4.78,13.56,13.56,0,0,0-6.8,2,8.34,8.34,0,0,0-3.48,5.76,15.49,15.49,0,0,0-.14,3.61,10.48,10.48,0,0,0,.25,1.77c.12.61.28,1.25.37,1.94a3.87,3.87,0,0,1,0,.61,1.91,1.91,0,0,1,0,.2.78.78,0,0,1-.06.23,1.1,1.1,0,0,1-.32.53,1.63,1.63,0,0,1-.82.37c-.19,0-.36.06-.52.08-.62.07-1.24.17-1.86.27-1.24.2-2.47.43-3.7.69s-2.46.55-3.68.86l-3.69.92a33.77,33.77,0,0,0-3.58,1.12c-1.19.43-2.37.88-3.54,1.36a73.91,73.91,0,0,0-13.45,7,44.2,44.2,0,0,0-5.9,4.76A31,31,0,0,0,134.06,41.57Zm-.13-.08a30.62,30.62,0,0,1,4.73-6,46.5,46.5,0,0,1,5.84-4.92,76.65,76.65,0,0,1,13.3-7.51c1.17-.52,2.34-1,3.52-1.5A36.43,36.43,0,0,1,165,20.3c1.23-.38,2.47-.69,3.68-1s2.46-.68,3.71-1,2.5-.55,3.77-.77c.63-.11,1.27-.22,1.9-.31l.42-.06c.12,0,.17-.08.06,0s0,.05-.06.07,0,.05,0,.05,0,0,0,0,0,0,0,0a2.31,2.31,0,0,0,0-.34c-.07-.56-.23-1.16-.37-1.79-.07-.32-.13-.65-.19-1s-.07-.68-.1-1a17.73,17.73,0,0,1,.12-4,11.13,11.13,0,0,1,1.33-3.87,9.21,9.21,0,0,1,2.83-3A15.1,15.1,0,0,1,189.66,0a21,21,0,0,1,7.78,1.3,22.29,22.29,0,0,1,6.79,4,17,17,0,0,1,4.67,6.37,13.48,13.48,0,0,1,.94,3.9,9.29,9.29,0,0,1-.54,4.05,12.63,12.63,0,0,1-2,3.47,18,18,0,0,1-2.8,2.78A12.61,12.61,0,0,1,202.84,27l-.83.48c-.27.16-.51.32-.85.5-.61.3-1.18.54-1.73.81-.28.14-.55.28-.8.43l-.34.22a.74.74,0,0,0-.18.17l0-.49,1.28,3.54v0C200.62,38.44,202,44.17,203,50a62.6,62.6,0,0,1,.8,17.66,37.64,37.64,0,0,1-.82,4.36,32.69,32.69,0,0,1-1.42,4.22,29.15,29.15,0,0,1-2.08,4,17.49,17.49,0,0,1-2.87,3.45,13.87,13.87,0,0,1-3.79,2.48,14.89,14.89,0,0,1-4.39,1.14,25.32,25.32,0,0,1-8.93-.83C173.64,85,168.3,82.3,163,79.76a103.17,103.17,0,0,1-15.15-9.23A72.66,72.66,0,0,1,141,64.85a41.35,41.35,0,0,1-5.82-6.71A18.88,18.88,0,0,1,131.86,50a11.9,11.9,0,0,1,.29-4.41A16.51,16.51,0,0,1,133.93,41.49Z"/><path class="cls-7" d="M41.55,145.09S72,131.46,99.06,143.21s56,4.51,56,4.51,45.85-4.41,44.58,4.53-18.82,40.15-36.12,53.87c0,0-12.24,22.08-16.11,56.08,0,0-1.79,15.21-33.11,16.11s-138.53-51.62-107.95-96c0,0,21.53-21.53,25-22s9.91-16.79,9.91-16.79"/><path class="cls-5" d="M81,78.43a26.46,26.46,0,0,0-6,1,23,23,0,0,0-5.53,2.37,19.44,19.44,0,0,0-4.61,3.82,44.62,44.62,0,0,0-3.75,4.72A46,46,0,0,0,58,95.55c-.91,1.79-1.68,3.65-2.46,5.52s-1.51,3.76-2.19,5.66c-.34.94-.66,1.9-1,2.86-.13.48-.27,1-.38,1.44a5.11,5.11,0,0,0-.16,1.33v.13l0,.06-2.57,9.9-2.5,9.94c-.95,3.32-2,6.55-3.32,9.75-.64,1.59-1.32,3.18-2.1,4.73a26.49,26.49,0,0,1-2.73,4.47l0,0a72.41,72.41,0,0,1-5.62,7q-3,3.33-6.31,6.36c-1.1,1-2.23,2-3.37,2.94-.57.47-1.17,1-1.71,1.41l-1.62,1.5q-3.26,3-6.42,6.14c-2.1,2.08-4.17,4.19-6.11,6.4a35.82,35.82,0,0,0-2.69,3.43c-.1.15-.2.29-.29.44l-.24.45-.24.45-.22.52c-.3.69-.61,1.37-.91,2a18.6,18.6,0,0,0-1.35,4.08,16.39,16.39,0,0,0-.2,4.26,41.74,41.74,0,0,0,1.76,8.56,55.32,55.32,0,0,0,3.33,8.15,44.1,44.1,0,0,0,4.66,7.45,128.76,128.76,0,0,0,12,13,123.78,123.78,0,0,0,14,10.93q7.29,5.12,14.71,10l0,0c4.47,2.2,8.94,4.43,13.42,6.58s9.07,4.12,13.69,6,9.3,3.55,14.07,5a71.93,71.93,0,0,0,14.54,3h0a48.66,48.66,0,0,0,7.83.65,52.74,52.74,0,0,0,7.85-.53,41.6,41.6,0,0,0,7.64-1.8l1.84-.66,1.8-.79.89-.39.86-.47,1.72-.95,0,0,.07,0a7.71,7.71,0,0,0,1.65-.94,13.28,13.28,0,0,0,1.5-1.31,19,19,0,0,0,1.33-1.5c.38-.55.8-1.08,1.14-1.67a30.52,30.52,0,0,0,3.26-7.44l.29-1,.25-1c.15-.67.34-1.31.47-2l.8-4.07,1.6-8.14,1.61-8.14.8-4.07c.26-1.37.55-2.73.85-4.09.61-2.72,1.3-5.42,2.18-8.09a30.84,30.84,0,0,1,1.62-3.94c.17-.32.37-.64.56-1l.54-.86c.35-.57.69-1.16,1-1.76a37.07,37.07,0,0,1,2.24-3.59c.82-1.15,1.67-2.26,2.54-3.35,1.74-2.17,3.53-4.29,5.35-6.38.91-1,1.82-2.1,2.76-3.16l2.89-3c1.92-2,3.82-4,5.7-6s3.74-4.05,5.54-6.13c.9-1,1.78-2.09,2.6-3.17l.61-.81.55-.83c.39-.6.74-1.16,1.11-1.74,1.44-2.34,2.81-4.73,4-7.17a33,33,0,0,0,2.83-7.55v0a23.43,23.43,0,0,0,.43-7.66,18.14,18.14,0,0,0-.8-3.75c-.17-.62-.45-1.19-.68-1.79l-.44-.84-.22-.43-.25-.42a42.53,42.53,0,0,0-4.71-6.28,61,61,0,0,0-5.62-5.52l.12.08q-25.91-14.28-52-28.15c-8.71-4.62-17.44-9.2-26.23-13.65-4.39-2.24-8.8-4.44-13.26-6.55-2.23-1-4.47-2.09-6.73-3-1.13-.48-2.27-1-3.43-1.36-.58-.2-1.16-.4-1.75-.56a6.85,6.85,0,0,0-.9-.19A1.42,1.42,0,0,0,81,78.43Zm0-.15a1.59,1.59,0,0,1,.94-.08,8.62,8.62,0,0,1,.91.18c.61.15,1.2.34,1.78.54,1.17.39,2.32.84,3.47,1.3,2.29.93,4.55,1.92,6.79,2.94,4.5,2,9,4.15,13.39,6.31,8.86,4.34,17.65,8.82,26.42,13.34s17.49,9.11,26.2,13.74,17.41,9.29,26.08,14l.06,0,.05.05a57.75,57.75,0,0,1,5.83,5.66,45.93,45.93,0,0,1,4.89,6.51l.26.44.25.47.48.93c.25.65.56,1.28.75,2a19.85,19.85,0,0,1,.88,4.07,24.76,24.76,0,0,1,.11,4.13,23.62,23.62,0,0,1-.58,4.12l0-.06a34.4,34.4,0,0,1-3,8c-1.24,2.51-2.62,4.93-4.09,7.31-.37.59-.75,1.2-1.12,1.76l-.59.91-.64.85c-.86,1.13-1.76,2.19-2.66,3.25-1.82,2.11-3.69,4.16-5.58,6.19s-3.82,4-5.75,6l-2.9,3-2.72,3.08c-1.81,2.08-3.61,4.18-5.34,6.32a44.15,44.15,0,0,0-4.66,6.7c-.33.61-.69,1.22-1.07,1.83l-.57.88-.48.84a27.89,27.89,0,0,0-1.53,3.72,78.65,78.65,0,0,0-2.18,7.93c-.31,1.34-.6,2.69-.86,4l-.82,4.07-1.67,8.14-1.68,8.13-.84,4.07c-.13.68-.33,1.36-.49,2l-.27,1-.31,1a31.92,31.92,0,0,1-3.46,7.68,21.05,21.05,0,0,1-1.22,1.75A21.37,21.37,0,0,1,142,270.9a13,13,0,0,1-1.64,1.4,8.26,8.26,0,0,1-2,1.08l.12-.05-1.78.95-.89.48-.92.4-1.86.79-1.89.66a43,43,0,0,1-7.82,1.77,53.39,53.39,0,0,1-8,.47,50.92,50.92,0,0,1-8-.74h0A72.48,72.48,0,0,1,92.8,275c-4.77-1.46-9.46-3.18-14.09-5.05s-9.19-3.89-13.7-6l-13.44-6.55h0v0q-7.45-4.87-14.78-9.94c-2.44-1.7-4.87-3.41-7.26-5.17a81.75,81.75,0,0,1-6.91-5.68,132.06,132.06,0,0,1-12.27-13A46,46,0,0,1,5.46,216,56.36,56.36,0,0,1,2,207.69a41,41,0,0,1-1.91-8.83,17.78,17.78,0,0,1,.2-4.6,19.63,19.63,0,0,1,1.43-4.37c.3-.68.61-1.36.89-2l.22-.5.28-.54.28-.54c.1-.17.21-.33.32-.49a35.43,35.43,0,0,1,2.79-3.59c2-2.26,4-4.39,6.15-6.5s4.27-4.15,6.45-6.17L20.73,168c.59-.5,1.16-1,1.74-1.42,1.14-.94,2.26-1.89,3.35-2.89q3.27-3,6.24-6.24a70.49,70.49,0,0,0,5.53-6.85l0,0h0a24.6,24.6,0,0,0,2.61-4.24c.76-1.5,1.44-3.05,2.07-4.62,1.27-3.14,2.38-6.37,3.33-9.61l2.61-9.89,2.69-9.88v.19a3.65,3.65,0,0,1,0-.89,6.5,6.5,0,0,1,.15-.79c.12-.51.27-1,.42-1.49.31-1,.64-1.94,1-2.89q1.06-2.86,2.27-5.66c.8-1.86,1.59-3.75,2.55-5.56A48,48,0,0,1,60.58,90a47.32,47.32,0,0,1,3.89-4.72,20.3,20.3,0,0,1,4.78-3.82,23.78,23.78,0,0,1,5.66-2.3A25,25,0,0,1,80.94,78.28Z"/><path class="cls-7" d="M227.78,110.7a.38.38,0,0,1-.15,0,15.68,15.68,0,0,1-1.79-.34c-11.79-1-73.23-8.93-136.86-73.3L71.79,67.49s53.46,71.94,138.05,77.57Z"/><path class="cls-5" d="M71.58,68l4.19-7.88L80,52.28c1.42-2.61,2.85-5.23,4.3-7.82s2.92-5.18,4.41-7.75l.32-.54.44.46a1.7,1.7,0,0,1,.2,2.19,1.37,1.37,0,0,1-.71.55.66.66,0,0,1-.38,0,.63.63,0,0,1-.41-.26.88.88,0,0,1-.17-.59,2.34,2.34,0,0,1,.15-.72,9,9,0,0,1,.52-1.13l.33-.61.5.51,7,7.13,7.29,6.86,7.52,6.57,7.79,6.27,8,6L135.41,75l8.47,5.31,8.68,4.95,8.89,4.58L170.52,94l9.23,3.83,9.4,3.43a222.82,222.82,0,0,0,38.88,9.4,199.47,199.47,0,0,1-39.21-8.42L179.33,99c-3.12-1.23-6.24-2.46-9.34-3.72l-9.16-4.17-9-4.56-8.77-4.93-8.55-5.29-8.29-5.69-8-6-7.8-6.35-7.53-6.66c-2.43-2.31-4.82-4.65-7.23-7l-6.92-7.29.82-.1a7.7,7.7,0,0,0-.47,1,1.82,1.82,0,0,0-.1.41s0,0,0,0a.31.31,0,0,0-.18-.11h-.09a.48.48,0,0,0,.17-.17.85.85,0,0,0,.15-.32.78.78,0,0,0-.23-.66l.76-.08Q87.23,41,85,44.84l-4.49,7.69Z"/><path class="cls-5" d="M227.82,111l-4.3,8.55c-1.44,2.85-2.88,5.7-4.35,8.53l-4.38,8.52c-1.44,2.85-2.93,5.67-4.41,8.5l-.14.27-.31,0a183.62,183.62,0,0,1-20.22-2.76,177,177,0,0,1-19.78-5.08,190,190,0,0,1-37.23-16.6q-4.41-2.56-8.7-5.33c-2.85-1.85-5.65-3.79-8.4-5.78q-8.28-6-15.95-12.71T85,82.87A157,157,0,0,1,71.93,67.25c2,2.73,4.21,5.32,6.42,7.89s4.53,5,6.89,7.49q7.08,7.31,14.81,13.94a217.14,217.14,0,0,0,33.11,23.49,188.61,188.61,0,0,0,37.09,16.4,180,180,0,0,0,19.65,5.1A183.85,183.85,0,0,0,210,144.37l-.45.24c1.5-2.82,3-5.64,4.51-8.44l4.55-8.43q2.26-4.21,4.57-8.41Z"/></g></g></svg>