<svg xmlns="http://www.w3.org/2000/svg" viewBox="0 0 416.2 384.01"><defs><style>.cls-1{fill:#f5ddd0;}.cls-2{fill:#e5d0c7;}</style></defs><title>text2</title><g id="Layer_2" data-name="Layer 2"><g id="Layer_1-2" data-name="Layer 1"><path class="cls-1" d="M208,0C93.1,0,0,75.2,0,168c0,64.9,45.6,121.2,112.3,149.2-5.2,25.8-21,47-33.5,60.5-2.3,2.5.2,6.5,3.6,6.3,11.5-.8,32.9-4.4,51-12.7,21.5-9.9,40.3-30.1,46.3-36.9a266.23,266.23,0,0,0,28.5,1.6c114.9,0,208-75.2,208-168C416,75.2,322.9,0,208,0Z"/><path class="cls-2" d="M322.25,106.4c-20.19,3.56-31.2,28.71-26.13,42.81,7.71,21.45,47.06,26.17,56.41,2,5-12.87.15-41.72-20.89-44.89A28.9,28.9,0,0,0,322.25,106.4Z"/><path class="cls-2" d="M272.83,326.54s-24.33-71.49,12.24-96.15c24.14-16.28,58.93-4.58,77.88,8.24a83,83,0,0,1,20.48,19.94,197.76,197.76,0,0,1-110.6,68Z"/><path class="cls-2" d="M172.19,234.75l-.12,0c-8.46-1.79-15.7-8.68-19.44-16.67-6.13-13.12-3.51-28.36,3.43-39.92,4-6.67,9.57-12.59,16.86-15.44,17.81-7,49.38,15,48.76,35.44-.21,6.8-4.54,12.39-9.17,17C202.88,224.71,187.53,237.91,172.19,234.75Z"/><path class="cls-2" d="M7.94,213.62c26.61,56,39.19,62,45.19,60.56,11.33-2.7,24.13-38.08,4.37-57.55C45.08,204.39,24.06,202.62,7.94,213.62Z"/><ellipse class="cls-2" cx="101.83" cy="107.83" rx="25.4" ry="24.42"/><path class="cls-2" d="M219.32,21.19C199.13,24.75,188.12,49.9,193.19,64c7.71,21.45,47.06,26.17,56.41,2,5-12.87.15-41.72-20.89-44.89A28.9,28.9,0,0,0,219.32,21.19Z"/></g></g></svg>