<svg xmlns="http://www.w3.org/2000/svg" viewBox="0 0 368 368"><defs><style>.cls-1{fill:#b8d3d3;}.cls-2{fill:#fff;}</style></defs><title>Asset 1</title><g id="Layer_2" data-name="Layer 2"><g id="Layer_1-2" data-name="Layer 1"><rect class="cls-1" width="368" height="368" rx="50.2"/><path class="cls-2" d="M237.66,255v18.6H136V255h42.6V126.57q-2.4,3.6-8.25,7.8a100.25,100.25,0,0,1-12.9,7.8,96.85,96.85,0,0,1-14.55,6,44.09,44.09,0,0,1-13.2,2.4v-19.8q6.9,0,15.15-3.9a109.09,109.09,0,0,0,15.6-9,137,137,0,0,0,12.45-9.6q5.1-4.5,5.7-6h21V255Z"/></g></g></svg>