<svg xmlns="http://www.w3.org/2000/svg" viewBox="0 0 368 368"><defs><style>.cls-1{fill:#b89764;}.cls-2{fill:#fff;}</style></defs><title>10</title><g id="Layer_2" data-name="Layer 2"><g id="Layer_1-2" data-name="Layer 1"><rect class="cls-1" width="368" height="368" rx="50.2"/><path class="cls-2" d="M150.8,271.4V290H49.1V271.4H91.7V143q-2.4,3.6-8.25,7.8a100.25,100.25,0,0,1-12.9,7.8,96.85,96.85,0,0,1-14.55,6A44.09,44.09,0,0,1,42.8,167V147.2q6.9,0,15.15-3.9a109.09,109.09,0,0,0,15.6-9A137,137,0,0,0,86,124.7q5.1-4.5,5.7-6h21V271.4Z"/><path class="cls-2" d="M324.5,202.1a111.9,111.9,0,0,1-5.7,36.45,90.83,90.83,0,0,1-15.75,28.8,71.38,71.38,0,0,1-23.85,18.9,70,70,0,0,1-60,0,71.38,71.38,0,0,1-23.85-18.9,90.83,90.83,0,0,1-15.75-28.8,111.9,111.9,0,0,1-5.7-36.45,111.9,111.9,0,0,1,5.7-36.45,90.83,90.83,0,0,1,15.75-28.8,73.11,73.11,0,0,1,23.85-19,68.67,68.67,0,0,1,60,0,73.11,73.11,0,0,1,23.85,19,90.83,90.83,0,0,1,15.75,28.8A111.9,111.9,0,0,1,324.5,202.1Zm-20.7,0a100,100,0,0,0-4.05-29.4,71.69,71.69,0,0,0-11.25-22.65,51.53,51.53,0,0,0-17.25-14.7,46.92,46.92,0,0,0-22.05-5.25,47.53,47.53,0,0,0-22.35,5.25,51.53,51.53,0,0,0-17.25,14.7,71.69,71.69,0,0,0-11.25,22.65,100,100,0,0,0-4,29.4,100,100,0,0,0,4,29.4,71.69,71.69,0,0,0,11.25,22.65,50,50,0,0,0,17.25,14.55,48.67,48.67,0,0,0,22.35,5.1,48,48,0,0,0,22.05-5.1,50,50,0,0,0,17.25-14.55,71.69,71.69,0,0,0,11.25-22.65A100,100,0,0,0,303.8,202.1Z"/></g></g></svg>