<svg xmlns="http://www.w3.org/2000/svg" viewBox="0 0 368 368"><defs><style>.cls-1{fill:#b8d3d3;}.cls-2{fill:#fff;}</style></defs><title>11</title><g id="Layer_2" data-name="Layer 2"><g id="Layer_1-2" data-name="Layer 1"><rect class="cls-1" width="368" height="368" rx="50.2"/><path class="cls-2" d="M178.47,251.07v18.6H76.77v-18.6h42.61V122.67q-2.41,3.6-8.26,7.8a99.14,99.14,0,0,1-12.9,7.8,96.85,96.85,0,0,1-14.55,6,43.78,43.78,0,0,1-13.2,2.4v-19.8q6.9,0,15.15-3.9a107.23,107.23,0,0,0,15.6-9,137,137,0,0,0,12.45-9.6c3.4-3,5.3-5,5.71-6h21v152.7Z"/><path class="cls-2" d="M306.87,251.07v18.6H205.17v-18.6h42.6V122.67q-2.4,3.6-8.25,7.8a99.14,99.14,0,0,1-12.9,7.8,96.85,96.85,0,0,1-14.55,6,43.78,43.78,0,0,1-13.2,2.4v-19.8q6.9,0,15.15-3.9a107.23,107.23,0,0,0,15.6-9,137,137,0,0,0,12.45-9.6c3.4-3,5.3-5,5.7-6h21v152.7Z"/></g></g></svg>