<svg xmlns="http://www.w3.org/2000/svg" viewBox="0 0 368 368"><defs><style>.cls-1{fill:#b89764;}.cls-2{fill:#fff;}</style></defs><title>2</title><g id="Layer_2" data-name="Layer 2"><g id="Layer_1-2" data-name="Layer 1"><rect class="cls-1" width="368" height="368" rx="50.2"/><path class="cls-2" d="M119.19,275.3a119.75,119.75,0,0,1,1.8-20.55,71.64,71.64,0,0,1,7-20.55,76.15,76.15,0,0,1,15-19.65q9.75-9.45,26-17.85,8.7-4.5,18.15-8.85a120.77,120.77,0,0,0,17.4-9.75A54.56,54.56,0,0,0,217.59,166a25.4,25.4,0,0,0,5.1-15.75A26.71,26.71,0,0,0,220.14,139a29.56,29.56,0,0,0-7.5-9.9,38.54,38.54,0,0,0-12.3-7.05,50,50,0,0,0-17.25-2.7,51.35,51.35,0,0,0-17.7,2.85,64.33,64.33,0,0,0-13.65,6.75,60.7,60.7,0,0,0-10.05,8.25,94,94,0,0,0-6.3,7l-13.5-14.7q1.8-1.8,6.9-6.6a73.3,73.3,0,0,1,13.35-9.6,105.92,105.92,0,0,1,19.35-8.55,77.51,77.51,0,0,1,24.9-3.75,74.79,74.79,0,0,1,24.6,3.75,54.28,54.28,0,0,1,18.3,10.35,44.89,44.89,0,0,1,11.4,15.15,42.54,42.54,0,0,1,3.9,17.85q0,12.3-5.4,21.3A60.7,60.7,0,0,1,225.84,185a94.11,94.11,0,0,1-17,11.25q-9,4.65-16.2,7.95a193.47,193.47,0,0,0-18.75,9.45,101.24,101.24,0,0,0-16.35,11.55,58.5,58.5,0,0,0-11.85,14.1,33.33,33.33,0,0,0-4.65,17.4h106.8v18.6Z"/></g></g></svg>