<svg xmlns="http://www.w3.org/2000/svg" viewBox="0 0 368 368"><defs><style>.cls-1{fill:#b8d3d3;}.cls-2{fill:#fff;}</style></defs><title>3</title><g id="Layer_2" data-name="Layer 2"><g id="Layer_1-2" data-name="Layer 1"><rect class="cls-1" width="368" height="368" rx="50.2"/><path class="cls-2" d="M204.84,184.45q19.8,3.3,31.65,18t11.85,36.3a60.78,60.78,0,0,1-5,24.75,53.81,53.81,0,0,1-14.1,19.2,65.09,65.09,0,0,1-21.9,12.3A87.67,87.67,0,0,1,179,299.35q-22.8,0-39.9-9.15a61.33,61.33,0,0,1-25.8-25.35l14.1-12.9a48.66,48.66,0,0,0,19.2,21q12.9,7.8,32.4,7.8,22.5,0,35.4-10.95t12.9-31.35q0-20.7-13.5-32.7t-39-12h-7.5v-17.4h8.1q23.1,0,35.4-10.65T223.14,138a36.44,36.44,0,0,0-3.3-15.9,32.39,32.39,0,0,0-9.15-11.55,40.92,40.92,0,0,0-13.8-7,59.49,59.49,0,0,0-17.25-2.4q-17.1,0-30.15,7.65a49,49,0,0,0-19.65,21.15l-13.2-12.6A48,48,0,0,1,126.84,103a65.74,65.74,0,0,1,15-11,80.63,80.63,0,0,1,18.6-7,86.26,86.26,0,0,1,21-2.55,78.82,78.82,0,0,1,25.35,3.9,61,61,0,0,1,20,11,49.29,49.29,0,0,1,13,17,50.87,50.87,0,0,1,4.65,21.9,55.1,55.1,0,0,1-2.7,17.25,47.08,47.08,0,0,1-7.8,14.7,44.75,44.75,0,0,1-12.45,10.8A43.2,43.2,0,0,1,204.84,184.45Z"/></g></g></svg>