<svg xmlns="http://www.w3.org/2000/svg" viewBox="0 0 368 368"><defs><style>.cls-1{fill:#b8d3d3;}.cls-2{fill:#fff;}</style></defs><title>5</title><g id="Layer_2" data-name="Layer 2"><g id="Layer_1-2" data-name="Layer 1"><rect class="cls-1" width="368" height="368" rx="50.2"/><path class="cls-2" d="M185.69,153.65A74,74,0,0,1,213,158.6a67.29,67.29,0,0,1,22,14A64.94,64.94,0,0,1,249.89,194a68.26,68.26,0,0,1,5.4,27.45,70,70,0,0,1-5.85,29,66.37,66.37,0,0,1-15.9,22.2A73.13,73.13,0,0,1,210,286.85a81,81,0,0,1-28.8,5.1,82,82,0,0,1-21.75-2.85,72.62,72.62,0,0,1-19.05-8.25A78.28,78.28,0,0,1,124.64,268a67.34,67.34,0,0,1-11.55-16.8l13.5-10.2a66,66,0,0,0,22.95,23.7,59.56,59.56,0,0,0,32,9,56.6,56.6,0,0,0,20.7-3.75A51,51,0,0,0,219,259.25a49.06,49.06,0,0,0,11.25-16.5,53.48,53.48,0,0,0,4-21,51.13,51.13,0,0,0-3.9-20.25,47,47,0,0,0-10.8-15.75,48.47,48.47,0,0,0-16.2-10.2,55.2,55.2,0,0,0-20.1-3.6,59.15,59.15,0,0,0-26.55,6.15A51.24,51.24,0,0,0,136.49,196h-18.9q.3-1.8,1.5-8.1t3-15q1.8-8.7,3.9-19.35t4.2-21.45q5.1-25.2,11.1-56.1h102.9v18.9h-87.6l-14.7,76.5a53.48,53.48,0,0,1,19.05-13A64.18,64.18,0,0,1,185.69,153.65Z"/></g></g></svg>