<svg xmlns="http://www.w3.org/2000/svg" viewBox="0 0 368 368"><defs><style>.cls-1{fill:#b89764;}.cls-2{fill:#fff;}</style></defs><title>6</title><g id="Layer_2" data-name="Layer 2"><g id="Layer_1-2" data-name="Layer 1"><rect class="cls-1" width="368" height="368" rx="50.2"/><path class="cls-2" d="M252.7,224.8a70.59,70.59,0,0,1-5.85,28.65,72.73,72.73,0,0,1-16,23.25,75.39,75.39,0,0,1-24,15.6,80.47,80.47,0,0,1-60.6-.45,68.06,68.06,0,0,1-24.15-17.55q-10-11.4-15.75-28.05t-5.7-37.35q0-32.4,5.7-56.55t16-40.2Q132.7,96.1,147.1,88.3a66.29,66.29,0,0,1,32.1-7.8q21.3,0,38.1,10.5a66.91,66.91,0,0,1,25.5,29.1l-13.2,12a53.67,53.67,0,0,0-50.4-33.6,46.76,46.76,0,0,0-24,6.3A55,55,0,0,0,136.75,123q-7.65,11.85-12,29.25a162.42,162.42,0,0,0-4.35,39.3,56.56,56.56,0,0,1,22.65-28.2,65.1,65.1,0,0,1,36.45-10.5,73.88,73.88,0,0,1,28.65,5.55A71.39,71.39,0,0,1,247,196.6,70.37,70.37,0,0,1,252.7,224.8Zm-75,55.2a53.42,53.42,0,0,0,21.45-4.35,57.88,57.88,0,0,0,17.7-11.85,54.8,54.8,0,0,0,12-17.55,53.42,53.42,0,0,0,4.35-21.45,51.89,51.89,0,0,0-4.5-21.45,56.87,56.87,0,0,0-12.15-17.55A57.88,57.88,0,0,0,198.85,174a55.06,55.06,0,0,0-42.9,0,57.88,57.88,0,0,0-17.7,11.85,54.8,54.8,0,0,0-12,17.55,53.42,53.42,0,0,0-4.35,21.45,50.86,50.86,0,0,0,4.5,21.3,59.34,59.34,0,0,0,12.15,17.55,56.57,56.57,0,0,0,17.7,12A53.42,53.42,0,0,0,177.7,280Z"/></g></g></svg>