<svg xmlns="http://www.w3.org/2000/svg" viewBox="0 0 368 368"><defs><style>.cls-1{fill:#b89764;}.cls-2{fill:#fff;}</style></defs><title>8</title><g id="Layer_2" data-name="Layer 2"><g id="Layer_1-2" data-name="Layer 1"><rect class="cls-1" width="368" height="368" rx="50.2"/><path class="cls-2" d="M259.9,241.9a53,53,0,0,1-6,25.35,61.39,61.39,0,0,1-16.2,19.35,74.12,74.12,0,0,1-23.85,12.45,93.79,93.79,0,0,1-28.65,4.35,84.78,84.78,0,0,1-29.4-4.95A72.91,72.91,0,0,1,132.55,285,61.12,61.12,0,0,1,117.4,265a56.06,56.06,0,0,1-5.4-24.3,47.24,47.24,0,0,1,3.75-18.9,57.06,57.06,0,0,1,9.75-15.45,66.52,66.52,0,0,1,13.65-11.7A71.56,71.56,0,0,1,154.6,187a73.3,73.3,0,0,1-13.5-7.35A56.09,56.09,0,0,1,130,169.6a47.74,47.74,0,0,1-7.65-12.6,38.12,38.12,0,0,1-2.85-14.7,44.48,44.48,0,0,1,6-23.25,56.88,56.88,0,0,1,15.45-17,70.61,70.61,0,0,1,21.3-10.5,80.8,80.8,0,0,1,47.7,0A72.7,72.7,0,0,1,231.25,102a54.57,54.57,0,0,1,15.45,17,44.7,44.7,0,0,1,6,23.1,38.12,38.12,0,0,1-2.85,14.7,48,48,0,0,1-7.8,12.75,55.5,55.5,0,0,1-11.4,10.2A78,78,0,0,1,217,187a70.76,70.76,0,0,1,16.5,8.25,66.33,66.33,0,0,1,13.65,12.15,55.65,55.65,0,0,1,9.3,15.6A50.81,50.81,0,0,1,259.9,241.9Zm-20.7-1.5a37.19,37.19,0,0,0-4.8-19.05,45.39,45.39,0,0,0-12.6-13.95,59.16,59.16,0,0,0-17.4-8.7,63.14,63.14,0,0,0-18.9-3,59.45,59.45,0,0,0-19.2,3.15,56.63,56.63,0,0,0-16.8,9,44.57,44.57,0,0,0-12,14.25,38.76,38.76,0,0,0-4.5,18.6,36.59,36.59,0,0,0,4.8,18.75,46.19,46.19,0,0,0,12.45,13.95,57.51,57.51,0,0,0,17.1,8.7,62.63,62.63,0,0,0,19.05,3,59.9,59.9,0,0,0,19-3.15,56.22,56.22,0,0,0,17-9,47,47,0,0,0,12.15-14.1A36.92,36.92,0,0,0,239.2,240.4Zm-99.3-97.2a28.63,28.63,0,0,0,4.2,15.45,39.09,39.09,0,0,0,10.8,11.4,49.64,49.64,0,0,0,14.85,7,55.37,55.37,0,0,0,32.25,0,49.89,49.89,0,0,0,14.85-7.2,39.36,39.36,0,0,0,11-11.7,29.4,29.4,0,0,0,4.2-15.6,29.73,29.73,0,0,0-3.9-15.15,36.34,36.34,0,0,0-10.35-11.4,47.43,47.43,0,0,0-14.85-7,63,63,0,0,0-17.4-2.4,57.07,57.07,0,0,0-16.95,2.55,48.28,48.28,0,0,0-14.55,7.2,36.51,36.51,0,0,0-10.2,11.55A30.55,30.55,0,0,0,139.9,143.2Z"/></g></g></svg>