<svg xmlns="http://www.w3.org/2000/svg" viewBox="0 0 368 368"><defs><style>.cls-1{fill:#b8d3d3;}.cls-2{fill:#fff;}</style></defs><title>9</title><g id="Layer_2" data-name="Layer 2"><g id="Layer_1-2" data-name="Layer 1"><rect class="cls-1" width="368" height="368" rx="50.2"/><path class="cls-2" d="M107.47,150.57a70.59,70.59,0,0,1,5.85-28.65,72.71,72.71,0,0,1,16.06-23.25,75.17,75.17,0,0,1,24-15.6,80.44,80.44,0,0,1,60.59.45,68.06,68.06,0,0,1,24.15,17.55,82.27,82.27,0,0,1,15.76,28.05q5.69,16.65,5.69,37.35,0,32.4-5.69,56.55t-16.06,40.2q-10.35,16-24.9,23.85a66.55,66.55,0,0,1-31.95,7.8A70.6,70.6,0,0,1,143,284.37a66.52,66.52,0,0,1-25.64-29.1l13.19-12a54.07,54.07,0,0,0,50.4,33.6,46.76,46.76,0,0,0,24-6.3,56.36,56.36,0,0,0,18.6-18.15q7.8-11.85,12-29.1a177.63,177.63,0,0,0,4.5-39.45,58.19,58.19,0,0,1-22.95,28.2q-16.05,10.52-36.45,10.5A73.7,73.7,0,0,1,152,217a72.44,72.44,0,0,1-23.25-15.3,71.58,71.58,0,0,1-15.6-22.95A70.33,70.33,0,0,1,107.47,150.57Zm75.3-55.2a53.59,53.59,0,0,0-21.45,4.35,58.06,58.06,0,0,0-17.7,11.85,56.87,56.87,0,0,0-12.15,17.55,53.37,53.37,0,0,0,0,42.9,56.64,56.64,0,0,0,12.15,17.55,57.71,57.71,0,0,0,17.7,11.85,53.42,53.42,0,0,0,21.45,4.35,54.57,54.57,0,0,0,21.61-4.35A55.26,55.26,0,0,0,233.92,172a53.38,53.38,0,0,0,4.35-21.45,52.75,52.75,0,0,0-4.35-21.15,56.73,56.73,0,0,0-29.7-29.7A53.59,53.59,0,0,0,182.77,95.37Z"/></g></g></svg>