<?xml version="1.0" encoding="utf-8"?>
<!-- Generator: Adobe Illustrator 23.0.4, SVG Export Plug-In . SVG Version: 6.00 Build 0)  -->
<svg version="1.1" id="Layer_1" xmlns="http://www.w3.org/2000/svg" xmlns:xlink="http://www.w3.org/1999/xlink" x="0px" y="0px"
	 viewBox="0 0 1125 2436" style="enable-background:new 0 0 1125 2436;" xml:space="preserve">
<style type="text/css">
	.st0{fill:#F4E4E4;}
	.st1{font-family:'ArialMT';}
	.st2{font-size:101.6948px;}
	.st3{font-size:42.7016px;}
	.st4{fill:#F9B48F;}
	.st5{fill:#F9E0D0;}
	.st6{fill:none;stroke:#F9E0D0;stroke-miterlimit:10;}
	.st7{fill:#6F402F;}
	.st8{fill:#F7A582;}
	.st9{fill:#C16050;}
	.st10{fill:#703F30;stroke:#6F402F;stroke-miterlimit:10;}
	.st11{fill:#F9E0D0;stroke:#F9E0D0;stroke-miterlimit:10;}
	.st12{fill:#493832;}
	.st13{fill:#FFFFFF;}
	.st14{fill:#D49A7C;}
	.st15{fill:#C9EAFB;}
	.st16{fill:#3A2B25;}
	.st17{fill:#F1695C;}
	.st18{fill:#231F20;}
	.st19{font-family:'KozGoPr6N-Regular-83pv-RKSJ-H';}
	.st20{font-size:28.215px;}
	.st21{fill:#C3544A;}
	.st22{fill:#C7757E;}
	.st23{fill:#C0DEE9;}
	.st24{fill:#BDE4EA;}
	.st25{fill:#4AACAA;}
	.st26{opacity:0.66;fill:#B7DCD7;enable-background:new    ;}
	.st27{fill:#FBE1D1;}
	.st28{fill:#F7A583;}
	.st29{fill:#6E3F2E;}
	.st30{opacity:0.54;fill:#A8D2CD;enable-background:new    ;}
	.st31{fill:#5F8797;}
	.st32{fill:#D1987B;}
	.st33{fill:#FAE1D0;}
	.st34{clip-path:url(#SVGID_2_);fill:#BCDCDD;}
	.st35{fill:#AEC2C5;}
	.st36{fill:#8E9FA2;}
	.st37{fill:#A0B296;}
	.st38{fill:#F7D4BF;stroke:#F7D4BF;stroke-miterlimit:10;}
	.st39{fill:#522D25;}
	.st40{fill:#F8AB89;}
	.st41{fill:#8D5349;}
	.st42{fill:#D7EEF0;}
	.st43{fill:#EAF5F2;}
	.st44{font-size:27.8478px;}
	.st45{font-size:36.9253px;}
	.st46{font-size:47.5496px;}
</style>
<g id="bg">
	<rect x="10.7" y="-7" class="st0" width="1116.2" height="2436"/>
</g>
<g id="icons">
	<text transform="matrix(1 0 0 1 362.6239 338.6406)" class="st1 st2">Practices</text>
	<text transform="matrix(1 0 0 1 134.6083 908.1074)" class="st1 st3">Drinking water</text>
	<g>
		<text transform="matrix(1 0 0 1 751.8113 911.9102)" class="st1 st3">Workout</text>
	</g>
	<g>
		
			<image style="overflow:visible;opacity:0.45;enable-background:new    ;" width="243" height="380" xlink:href="D4493BCAAAB2F2E8.png"  transform="matrix(1 0 0 1 146.4794 477.8633)">
		</image>
		<g>
			<g>
				<g>
					<path class="st4" d="M352.9,766.6c-0.2-1.2-108.2,9.1-118.1,9.9c-19,1.6-42.7-0.2-61,5.1c-1.8,0.5-3.1,1.2-4.1,2
						c-2.6,2.1-3.3,7.6-3.2,14c3.8,3,6.3,7.7,6.2,12.5c0,6.1-0.6,12.3-0.6,18.4c0,1.6-0.3,3.1-0.7,4.6c1.4,2,3.8,3,7.4,2.5
						c59.3-7.2,119.4-4.3,179.1-1.3C358,811.7,356.3,789,352.9,766.6z"/>
				</g>
				<g id="face_18_">
					<path class="st5" d="M167.7,608.6l2.9,13.9c0,0-19.8-1-12.6,20.2c0,0,2.1,17.6,18.9,16.6c0,0,6.5,44.4,74.1,45.5
						c0,0,70.7,7.8,85.5-43.4c0.1-0.5,3.5-1.5,4-1.8c1.2-0.6,2.4-1.2,3.6-2s2.3-1.5,3.4-2.3c8.4-6.7,11.4-21,2.8-28.5
						c-0.9-0.9-1.7-1.3-3-1.8c-1.7-0.5-3.9-0.9-5.6,0c0.9-4,0.4-8,0.8-12.2c0.1-1.4,0.1-2.7,0.2-4.1c0.2-2.7,0.3-5.4,0.6-8.1
						c0.1-1.4,0.2-2.8,0.3-4.2c0.3-4.2,0.5-8.4,0.9-12.6c0.5-6.6,1-13.2,1.5-19.8L288.1,525L203,568L167.7,608.6z"/>
					<path class="st6" d="M167.7,608.6l2.9,13.9c0,0-19.8-1-12.6,20.2c0,0,2.1,17.6,18.9,16.6c0,0,6.5,44.4,74.1,45.5
						c0,0,70.7,7.8,85.5-43.4c0.1-0.5,3.5-1.5,4-1.8c1.2-0.6,2.4-1.2,3.6-2s2.3-1.5,3.4-2.3c8.4-6.7,11.4-21,2.8-28.5
						c-0.9-0.9-1.7-1.3-3-1.8c-1.7-0.5-3.9-0.9-5.6,0c0.9-4,0.4-8,0.8-12.2c0.1-1.4,0.1-2.7,0.2-4.1c0.2-2.7,0.3-5.4,0.6-8.1
						c0.1-1.4,0.2-2.8,0.3-4.2c0.3-4.2,0.5-8.4,0.9-12.6c0.5-6.6,1-13.2,1.5-19.8L288.1,525L203,568L167.7,608.6z"/>
				</g>
				<g>
					<path class="st5" d="M241.3,707.2c0,0-4.9,26-18,30.2s49,14.3,49,14.3l22.1-10.9l4.9-3.4c0,0-19.6-8.4-22.1-36.9l-32.7-3.4
						L241.3,707.2z"/>
					<path class="st6" d="M241.3,707.2c0,0-4.9,26-18,30.2s49,14.3,49,14.3l22.1-10.9l4.9-3.4c0,0-19.6-8.4-22.1-36.9l-32.7-3.4
						L241.3,707.2z"/>
				</g>
				<g>
					<path class="st7" d="M206.7,605c2-1.7,4.2-3,6.5-4.2c2.3-1.1,4.8-2,7.3-2.6c2.5-0.6,5.2-0.8,7.8-0.6c2.6,0.1,5.1,0.9,7.5,1.8
						c-0.6-0.1-1.3-0.3-1.9-0.4L233,599l-0.9-0.1l-1.9-0.3l-1.9-0.1c-2.5,0-5.1,0.2-7.5,0.8c-2.5,0.5-4.9,1.3-7.2,2.3
						c-1.2,0.5-2.3,1-3.5,1.6C208.9,603.7,207.8,604.4,206.7,605z"/>
				</g>
				<g>
					<path class="st7" d="M308,599.9c-1.3-0.4-2.6-0.9-4-1.2c-1.3-0.4-2.6-0.8-4-1.1c-2.7-0.6-5.4-1.2-8-1.5
						c-2.7-0.3-5.4-0.5-8.1-0.2c-1.4,0.1-2.7,0.3-4,0.7c-1.3,0.3-2.6,0.9-3.8,1.5c2.2-1.7,4.9-2.6,7.7-3c2.8-0.4,5.6-0.3,8.4,0
						c2.8,0.4,5.5,0.9,8.1,1.8C302.9,597.7,305.5,598.6,308,599.9z"/>
				</g>
				<g>
					<path class="st7" d="M259.4,637.6c0,2.4-0.2,4.7-0.6,7.1c-0.4,2.3-1.1,4.7-2.3,6.8l-0.9,1.5c-0.1,0.2-0.2,0.5-0.4,0.7
						c-0.1,0.2-0.2,0.5-0.2,0.7c-0.1,0.5,0.1,0.8,0.5,1.1c0.4,0.3,0.9,0.4,1.5,0.5c0.3,0,0.6,0.1,0.8,0.1c0.2,0,0.6,0,0.8-0.1
						c0.6-0.1,1.2-0.2,1.7-0.2c1.2-0.2,2.3-0.4,3.4-0.8c-1,0.6-2.2,1-3.3,1.3c-0.6,0.1-1.2,0.3-1.7,0.4c-0.3,0-0.6,0.1-0.9,0.2
						c-0.3,0-0.6,0-0.9,0c-0.6,0-1.3-0.2-1.9-0.5c-0.3-0.2-0.6-0.5-0.8-0.8c-0.1-0.3-0.2-0.7-0.2-1.1c0.1-1.4,1-2.4,1.5-3.4
						c1.1-2,1.9-4.2,2.4-6.5c0.3-1.1,0.6-2.3,0.8-3.4C259.1,640,259.3,638.8,259.4,637.6z"/>
				</g>
				<ellipse class="st8" cx="202.9" cy="657.7" rx="14.5" ry="13.5"/>
				<ellipse class="st8" cx="314.5" cy="659.4" rx="14.5" ry="13.5"/>
				<g>
					<path class="st7" d="M209.2,623.5c1,0.8,2,1.5,3.1,2.1c1.1,0.7,2.1,1.3,3.3,1.8c2.2,1,4.6,1.9,7,2.1c2.4,0.2,4.9-0.1,7-1.2
						c1.1-0.5,2.1-1.2,3-2.1c1-0.8,1.8-1.8,2.6-2.7c-1.2,2.2-3,4.2-5.2,5.5c-2.2,1.4-4.9,1.8-7.5,1.5c-2.6-0.3-5-1.2-7.2-2.4
						C212.9,626.8,210.9,625.3,209.2,623.5z"/>
				</g>
				<g>
					<path class="st7" d="M305.5,623.5c-1.7,1.8-3.8,3.3-6,4.6c-2.2,1.2-4.7,2.1-7.2,2.4c-2.6,0.2-5.3-0.2-7.5-1.5
						c-2.2-1.3-4-3.3-5.2-5.5c0.8,1,1.6,1.9,2.6,2.7c0.9,0.8,1.9,1.5,3,2.1c2.2,1.1,4.6,1.5,7,1.2c2.4-0.2,4.8-1.1,7-2.1
						c1.1-0.5,2.2-1.1,3.3-1.8C303.5,625,304.5,624.2,305.5,623.5z"/>
				</g>
				<g>
					<polygon class="st5" points="231.4,732.6 295,734.7 297.1,761.7 242.7,778.6 					"/>
					<polygon class="st6" points="231.4,732.6 295,734.7 297.1,761.7 242.7,778.6 					"/>
				</g>
				<g>
					<path class="st4" d="M163.1,774.7c0,0-5.9-53,25.2-51.2l37.1,0.5c0,0,26.1,4,35.7,52.5c0,0,13.7-53.9,22.9-53.4l8.1-0.9
						c0,0,46.1-2.2,51.3,8.5c0,0,3,41.3,2,44.5s-119.1,8.5-119.1,8.5l-63.3-2.4L163.1,774.7z"/>
				</g>
				<g>
					<path class="st9" d="M220,723.9l16.6-7.5c0,0,18.5,29.6,23.4,43.2c0,0,17.2-42,23.7-45c0,0,8.5,7,12.4,6.3
						c0,0-29.9,28.1-30.2,57.4l-12.7,0.6C253.2,778.8,241.1,734.7,220,723.9z"/>
				</g>
				<ellipse class="st10" cx="259" cy="682.3" rx="6.9" ry="5.7"/>
				<polyline class="st11" points="161.4,617 175.2,610.9 181.5,623.9 166.3,628.3 161.6,617.6 				"/>
				<g>
					<path class="st12" d="M365.2,508.1c-6.3-15.7-24.8-26.1-43.2-19.4c0,0-16.8,11.7-18.5,16.2c0,0-54.8-17.9-88.9,1.7
						c0,0-50.3,23.5-59.2,87.8c0,0,0.1,28.8,2,34.5c2-2.9,4.7-5.2,8.1-6.6v-2.7c0,0,36.9-29.1,57-32.4c0,0,54.2-16.2,60.9-39.7
						c0,0,9.5,33,56.5,71.5l0.6,5.6c0,0,0.6-0.1,1.6,0c3.3,0.1,6.5,1.3,8.7,3.7c1.9,2.1,3.4,4.2,4.5,6.5c3.2-8.6,9.8-35.4-3.6-86.8
						c0,0.1,11.1-11.8,11.9-13.2C368.5,525.6,368.5,516.1,365.2,508.1z"/>
				</g>
				<g>
					<path class="st4" d="M189.7,765.6l13.9,11.8l39-28.5l30.8,22.1c0,0-57.4,54-86.6,49.7c-29.2-4.3-29-38.7-29-38.7
						s5-42,13.4-49.7C179.4,724.6,189.7,765.6,189.7,765.6z"/>
				</g>
				<path class="st13" d="M237.3,724.1c0.1,0.6,41.8-3,45.5-3.3c2.3-0.2,5-0.7,7.1-0.3c-0.9,10.8-1.5,21.8-2.1,32.7
					c-0.5,7.2-0.9,14.4-1.4,21.5c-0.3,4.1,0.6,8.8-3.4,10.9c-0.5,0.3-1.1,0.5-1.7,0.7c-9.4,3.7-20,3.9-29.6,0.7
					c-1.2-0.4-3.2-0.5-3.9-1.7c-0.3-0.4-0.4-1-0.5-1.5C244.1,763.9,240.7,744,237.3,724.1z"/>
				<g>
					<path class="st14" d="M192.8,757.7c-1.5,5.2-3,10.3-4.3,15.5c-0.3,1.3-0.6,2.6-0.8,3.9c-0.2,1.3-0.4,2.6-0.3,3.8
						c0,0.2,0,0.3,0.1,0.4c0,0.1,0.1,0.2,0.1,0.3c0,0.1,0.1,0.1,0.1,0.2c0,0,0.1,0.1,0.2,0.2c0.4,0.3,1,0.6,1.6,0.9
						c1.2,0.5,2.4,1,3.6,1.4c2.5,0.8,5.1,1.3,7.7,1.5c1.3,0.1,2.6,0.2,3.9,0.2c1.3,0,2.6-0.2,3.9-0.4c2.6-0.5,5.1-1.3,7.2-2.8
						c2.2-1.4,4-3.4,5.5-5.7c-1.1,2.5-2.7,4.8-4.9,6.5c-1.1,0.9-2.3,1.6-3.5,2.2c-1.3,0.6-2.6,1-3.9,1.3c-5.4,1.2-11.1,0.6-16.4-1
						c-1.3-0.4-2.6-0.9-3.9-1.5c-0.6-0.3-1.3-0.6-1.9-1.1c-0.2-0.2-0.3-0.3-0.5-0.5c-0.2-0.2-0.3-0.5-0.4-0.7
						c-0.1-0.2-0.1-0.5-0.2-0.7c0-0.2-0.1-0.4-0.1-0.6c-0.1-1.5,0.2-2.9,0.5-4.2c0.3-1.3,0.6-2.7,1-4
						C188.6,767.7,190.5,762.6,192.8,757.7z"/>
				</g>
				<g>
					<path class="st4" d="M344.7,732.9c-0.3-0.8-0.7-1.5-1.1-2.2c-3.7,1-7.9,4.8-11.2,6.9c-3.6,2.2-7.2,4.5-10.8,6.7
						c0,0,18.2,35.2,18.2,35.2c0.9,1.8,13.1-2.4,14-4c0.4-0.7,0.3-1.5,0.2-2.3c-0.7-7.9-2-15.1-4.1-22.7
						C348.3,744.9,347.2,738.4,344.7,732.9z"/>
				</g>
				<path class="st15" d="M243.9,745.6c0,0,8.1-5.4,17.6-2.4c0,0,9.6,1.4,11,0c0,0,11.7-3.8,12.5-0.6s-2.7,37.1-2.7,37.1
					s-3.1,4.9-8.5,5.2s-15.3,3.5-16.6-3.8c-1.3-7.3-10.5-20.8-10.5-20.8L243.9,745.6z"/>
				<g>
					<path class="st5" d="M222.5,774.8c2.3-7.1,3.9-17,9.1-22.8c4-4.4,6.9,3.3,8.4,7.1c-0.7-1.8,34.2-23.1,35.9,2.6
						c0.8,11.9-2.8,25.2-15.4,28.9c0,0-16.5,6.1-20.1,5.5S222.5,774.8,222.5,774.8z"/>
					<path class="st6" d="M222.5,774.8c2.3-7.1,3.9-17,9.1-22.8c4-4.4,6.9,3.3,8.4,7.1c-0.7-1.8,34.2-23.1,35.9,2.6
						c0.8,11.9-2.8,25.2-15.4,28.9c0,0-16.5,6.1-20.1,5.5S222.5,774.8,222.5,774.8z"/>
				</g>
				<g>
					<path class="st14" d="M170.1,812.6c2.9,1.3,6,2.3,9.1,3c3.1,0.8,6.2,1.2,9.4,1.5c3.1,0.3,6.3,0.3,9.5,0.1
						c3.1-0.2,6.3-0.7,9.3-1.4c3.1-0.7,6.1-1.6,9-2.9c1.5-0.5,2.9-1.3,4.3-1.9l2.1-1.1c0.7-0.3,1.4-0.7,2.1-1.2
						c5.5-3.2,10.6-7.1,15.3-11.5c-4.2,4.9-9,9.3-14.4,12.8c-1.3,0.9-2.8,1.7-4.2,2.5c-1.5,0.7-2.9,1.5-4.4,2.1
						c-3,1.3-6.1,2.3-9.3,3.1c-6.4,1.5-13,1.8-19.4,0.9C182,817.8,175.7,815.8,170.1,812.6z"/>
				</g>
				<g>
					<path class="st14" d="M318.3,754.9c1.1,1.3,1.8,2.8,2.5,4.3c0.3,0.8,0.6,1.5,1,2.3c0.3,0.8,0.6,1.6,0.8,2.3
						c0.5,1.6,1,3.2,1.4,4.8c0.4,1.6,0.8,3.2,1.1,4.8c1.4,6.5,2.3,13,3,19.6c0.6,6.6,1.1,13.2,1.3,19.8c0.1,3.3,0.2,6.6,0.1,9.9
						c-0.1,3.3-0.1,6.6-0.2,9.9c-0.6-6.6-1-13.1-1.5-19.7c-0.5-6.6-1-13.1-1.7-19.6c-0.7-6.5-1.4-13-2.5-19.5l-0.9-4.8
						c-0.4-1.6-0.7-3.2-1.1-4.8C320.8,761,319.9,757.8,318.3,754.9z"/>
				</g>
				<g>
					<path class="st5" d="M240,796.7c2.6-0.3,5.9-1,4.7-4.3c-0.6-1.8-1.8-3.3-3-4.8c-3.1-3.8-6.9-7.2-10.7-10.4
						c-2.4-2.1-4.9-4.1-7.5-6c-0.1,0-0.1-0.1-0.1-0.1l-1.1,4.7c-0.1,0.7,0,1.5,0,2.1c0.1,1.7,0.3,3.5,0.7,5.2c1,4.6,3.4,9,7.5,11.5
						C233.4,796.4,236.8,797.1,240,796.7z"/>
					<path class="st6" d="M240,796.7c2.6-0.3,5.9-1,4.7-4.3c-0.6-1.8-1.8-3.3-3-4.8c-3.1-3.8-6.9-7.2-10.7-10.4
						c-2.4-2.1-4.9-4.1-7.5-6c-0.1,0-0.1-0.1-0.1-0.1l-1.1,4.7c-0.1,0.7,0,1.5,0,2.1c0.1,1.7,0.3,3.5,0.7,5.2c1,4.6,3.4,9,7.5,11.5
						C233.4,796.4,236.8,797.1,240,796.7z"/>
				</g>
			</g>
		</g>
	</g>
	<g>
		
			<image style="overflow:visible;opacity:0.45;enable-background:new    ;" width="424" height="379" xlink:href="D4493BCAAAB2F2E9.png"  transform="matrix(1 0 0 1 631.4794 478.8633)">
		</image>
		<g>
			<g>
				<g>
					<path class="st5" d="M962.5,647.2c0,0-1.8-16.7,2.1-20.2c3.9-3.5,19.2-5.1,22.1,1.6c3,6.7-4.2,18.5-4.2,18.5
						S974.2,650.7,962.5,647.2z"/>
					<path class="st6" d="M962.5,647.2c0,0-1.8-16.7,2.1-20.2c3.9-3.5,19.2-5.1,22.1,1.6c3,6.7-4.2,18.5-4.2,18.5
						S974.2,650.7,962.5,647.2z"/>
				</g>
				<g id="face_17_">
					<path class="st5" d="M746.2,603.5l2.6,13.3c0,0-18.2-0.9-11.5,19.3c0,0,1.9,16.8,17.4,15.8c0,0,6,42.4,68.2,43.4
						c0,0,65,7.4,78.6-41.4c0.1-0.4,3.2-1.5,3.7-1.7c1.1-0.6,2.2-1.2,3.3-1.9c1.1-0.7,2.1-1.4,3.1-2.2c7.7-6.4,10.5-20,2.5-27.3
						c-0.8-0.8-1.6-1.3-2.8-1.7c-1.6-0.4-3.6-0.8-5.2,0c0.8-3.8,0.4-7.7,0.8-11.7c0.1-1.3,0.1-2.6,0.2-3.9c0.2-2.6,0.3-5.2,0.5-7.7
						c0.1-1.3,0.2-2.7,0.2-4c0.2-4,0.5-8,0.8-12c0.5-6.3,0.9-12.6,1.4-18.9l-53-37.4l-78.3,41.1L746.2,603.5z"/>
					<path class="st6" d="M746.2,603.5l2.6,13.3c0,0-18.2-0.9-11.5,19.3c0,0,1.9,16.8,17.4,15.8c0,0,6,42.4,68.2,43.4
						c0,0,65,7.4,78.6-41.4c0.1-0.4,3.2-1.5,3.7-1.7c1.1-0.6,2.2-1.2,3.3-1.9c1.1-0.7,2.1-1.4,3.1-2.2c7.7-6.4,10.5-20,2.5-27.3
						c-0.8-0.8-1.6-1.3-2.8-1.7c-1.6-0.4-3.6-0.8-5.2,0c0.8-3.8,0.4-7.7,0.8-11.7c0.1-1.3,0.1-2.6,0.2-3.9c0.2-2.6,0.3-5.2,0.5-7.7
						c0.1-1.3,0.2-2.7,0.2-4c0.2-4,0.5-8,0.8-12c0.5-6.3,0.9-12.6,1.4-18.9l-53-37.4l-78.3,41.1L746.2,603.5z"/>
				</g>
				<g>
					<path class="st5" d="M813.9,697.6c0,0-4.5,24.9-16.5,28.9s45.1,13.6,45.1,13.6l20.3-10.4l4.5-3.2c0,0-18-8-20.3-35.3l-30.1-3.2
						L813.9,697.6z"/>
					<path class="st6" d="M813.9,697.6c0,0-4.5,24.9-16.5,28.9s45.1,13.6,45.1,13.6l20.3-10.4l4.5-3.2c0,0-18-8-20.3-35.3l-30.1-3.2
						L813.9,697.6z"/>
				</g>
				<g>
					<path class="st7" d="M783.3,594.7c1.1,0.5,2.2,0.9,3.3,1.2c1.1,0.4,2.2,0.7,3.4,1c2.3,0.5,4.6,0.9,6.9,1c2.3,0.2,4.6,0,6.9-0.4
						l1.7-0.4l1.7-0.5c0.3-0.1,0.6-0.2,0.8-0.3l0.8-0.4c0.5-0.2,1.1-0.5,1.6-0.7c-2,1.3-4.2,2.4-6.5,2.9c-2.3,0.6-4.8,0.8-7.2,0.7
						c-2.4-0.1-4.8-0.6-7-1.3C787.5,596.9,785.3,596,783.3,594.7z"/>
				</g>
				<g>
					<path class="st7" d="M872.9,594.8c-2.2,1.2-4.6,2.1-7.1,2.9c-2.4,0.8-4.9,1.3-7.5,1.7c-2.5,0.3-5.2,0.4-7.7,0
						c-1.3-0.2-2.5-0.5-3.7-1c-1.2-0.5-2.3-1.1-3.3-1.9c1.1,0.6,2.3,1.1,3.5,1.5c1.2,0.4,2.4,0.6,3.7,0.7c2.5,0.2,5,0.1,7.5-0.2
						c2.5-0.3,5-0.8,7.4-1.4c1.2-0.3,2.4-0.6,3.7-1C870.5,595.6,871.7,595.2,872.9,594.8z"/>
				</g>
				<g>
					<path class="st7" d="M830.6,631.1c0.1,2.2-0.1,4.5-0.5,6.7c-0.4,2.2-1,4.4-2.1,6.4c-0.6,1-1.2,1.9-1.4,2.8
						c-0.1,0.5,0,0.8,0.3,1.1c0.3,0.3,0.8,0.5,1.3,0.5c0.2,0,0.5,0.1,0.8,0.1c0.1,0,0.2,0,0.4,0l0.4,0c0.5-0.1,1.1-0.1,1.6-0.2
						c1.1-0.2,2.2-0.4,3.2-0.8c-0.9,0.6-2,0.9-3.1,1.3c-0.5,0.2-1.1,0.3-1.6,0.4l-0.4,0.1c-0.1,0-0.3,0-0.5,0c-0.3,0-0.6,0-0.9,0
						c-0.6-0.1-1.2-0.2-1.8-0.6c-0.6-0.4-0.8-1.3-0.7-1.9c0.2-1.3,1-2.2,1.5-3.1c1-1.9,1.7-4,2.2-6.1c0.3-1.1,0.5-2.2,0.7-3.2
						C830.2,633.3,830.4,632.2,830.6,631.1z"/>
				</g>
				<ellipse class="st8" cx="780.9" cy="651.1" rx="13.3" ry="12.9"/>
				<ellipse class="st8" cx="876.5" cy="651.9" rx="13.3" ry="12.9"/>
				<g>
					<polygon class="st5" points="804.7,721.9 863.3,723.9 865.2,749.7 815.2,765.8 					"/>
					<polygon class="st6" points="804.7,721.9 863.3,723.9 865.2,749.7 815.2,765.8 					"/>
				</g>
				<g>
					<path class="st4" d="M748.3,762.1c0,0-5.3-50.6,22.3-48.9l32.8,0.4c0,0,23.1,3.9,31.6,50.2c0,0,12.2-51.5,20.3-51l7.2-0.9
						c0,0,40.8-2.1,45.4,8.1c0,0,2.6,39.5,1.7,42.5c-0.9,3-105.3,8.1-105.3,8.1l-56-2.3L748.3,762.1z"/>
				</g>
				<g>
					<path class="st9" d="M794.3,713.5l15.2-7.2c0,0,17,28.3,21.5,41.3c0,0,15.8-40.1,21.8-43c0,0,7.8,6.6,11.4,6.1
						c0,0-27.5,26.8-27.8,54.8l-11.7,0.6C824.8,766.1,813.7,723.9,794.3,713.5z"/>
				</g>
				<polyline class="st11" points="740.4,611.5 753.1,605.6 758.9,618 744.9,622.3 740.6,612 				"/>
				<g>
					<path class="st12" d="M927.8,507.4c-5.8-15-22.8-24.9-39.7-18.5c0,0-15.4,11.2-17,15.5c0,0-50.4-17.1-81.7,1.6
						c0,0-46.2,22.4-54.5,83.8c0,0,0.1,27.5,1.8,32.9c1.8-2.7,4.3-4.9,7.4-6.3v-2.6c0,0,33.9-27.8,52.4-31c0,0,49.8-15.5,56-37.9
						c0,0,8.7,31.5,51.9,68.3l0.5,5.3c0,0,0.6-0.1,1.4,0c3,0.1,6,1.2,8,3.5c1.8,2,3.1,4.1,4.1,6.2c2.9-8.2,9-33.8-3.3-82.9
						c0,0.1,10.2-11.3,10.9-12.6C930.8,524.1,930.8,515.1,927.8,507.4z"/>
				</g>
				<g>
					<path class="st4" d="M917.5,762.3c0.1-0.5,0.1-1.1,0-1.6c-0.6-7.5-1.8-14.4-3.8-21.7c-1.5-5.4-2.5-11.7-4.8-16.9
						c-0.3-0.7-0.7-1.4-1-2.1c-3.4,1-7.2,4.6-10.3,6.6c-3.3,2.2-6.7,4.2-10,6.4c0,0,16.7,33.7,16.7,33.7c0.7,1.4,8.5-1.1,11.6-2.9
						C916.2,763.1,916.8,762.5,917.5,762.3z"/>
				</g>
				<g>
					<path class="st16" d="M915.4,547.3c-2.5-4.9-5-9.4-7.9-13.6c-1.5-2.1-3-4.1-4.7-6c-1.7-1.9-3.4-3.7-5.3-5.4
						c-3.7-3.4-7.8-6.4-12.2-9c-4.4-2.6-9.1-5-14.1-7.1c1.4-0.1,2.8-0.1,4.1,0s2.7,0.3,4.1,0.5c2.7,0.5,5.4,1.3,8,2.3
						c5.2,2,10,5,14.2,8.8c2.1,1.9,4,4,5.7,6.2c1.7,2.2,3.1,4.7,4.3,7.2C913.9,536.4,915.3,541.8,915.4,547.3z"/>
				</g>
				<path class="st10" d="M819,674c0,0,14.2-2.9,20.1,0C839.1,674,831.3,658.4,819,674z"/>
				<path class="st4" d="M916,764.6c0-1.3,0.7-2.1,1.6-2.3l-0.3-2.4L748,765.2l-0.8,65.8l170.6-5.8C917.4,805.1,916,784.8,916,764.6
					z"/>
				<path class="st4" d="M878.9,711.2c0.7,6.3,25.8,5.3,29.5,4.6c9.4-1.6,18.3-6.2,25.6-13.5c14.4-14.5,20.3-36.7,28.1-56.1
					c6.4,2.9,13.7,3.2,20.4,0.9c3.1,14.9-4.9,39.4-10,53.1c-8.7,23.6-22.7,44.5-41.7,57.7c-12,8.4-26,10-36.8-1
					C883.1,745.6,880.6,727.6,878.9,711.2z"/>
				<g>
					<polygon class="st4" points="747.6,768.4 742.4,835 918.9,834 916,770.7 					"/>
				</g>
				<path class="st4" d="M780.7,712.7c-1.7,6.1-28.8,0.9-32.6-0.4c-9.9-3.2-18.8-9.1-25.5-17.5c-13.3-16.5-16.1-39.2-21.4-59.5
					c-7.4,1.8-15.3,0.9-22.2-2.5c-5.8,14.1-1,39.3,2.3,53.6c5.7,24.5,17.4,47.3,35.8,63.4c11.7,10.2,26.6,14.1,39.9,5.1
					C770.7,745.7,776.3,728.4,780.7,712.7z"/>
				<g>
					<path class="st17" d="M747.8,548.7c0,0,105.8,18.2,169.6,5.5c0,0,3.8,18.7,4.7,25.5c0,0-138.5,15-184.4-5.9
						C737.6,573.7,744.4,551.4,747.8,548.7z"/>
				</g>
				<text transform="matrix(0.8482 0 0 1 806.1981 581.6905)" class="st18 st19 st20">必胜</text>
				<g>
					<path class="st17" d="M912,559.8c0,0,14.8-17.1,34.5-6.8c4.9,2.6,14.7,2.2,20.2,2c4.5-0.2,9.1-1.2,12.6-4.1
						c3.6-3,5.5-7.4,8.1-11.2c1.9-2.8,4.2-5.3,6.8-7.5c0.4-0.4,1-0.7,1.5-0.5c0.3,0.2,0.5,0.5,0.6,0.9c0.5,1.6,3.2,13.6,4.3,13.7
						c-7.4-1-11.6,4.6-16.3,9.3c-13.7,13.5-28.6,9.4-45.1,7.8c-4.1-0.4-8.4,0.7-12.1,2.6c-1.2,0.6-10,6.1-9.3,7.5L912,559.8z"/>
				</g>
				<g>
					<path class="st17" d="M913.4,571.1c0,0,11.8,19.7,31.3,8.2c4.9-2.9,13.9-2.4,19-2.1c4.1,0.2,8.3,1.5,11.2,4.8
						c3,3.4,4.2,8.5,6.2,12.9c1.4,3.2,3.3,6.1,5.5,8.6c0.4,0.4,0.9,0.8,1.4,0.6c0.3-0.2,0.5-0.6,0.6-1c0.7-1.9,4.6-15.5,5.6-15.7
						c-7,1-10.2-5.4-14.1-10.8c-11.2-15.5-25.5-11-41-9.4c-3.9,0.4-7.7-0.9-10.9-3.1c-1.1-0.7-8.5-7-7.8-8.7L913.4,571.1z"/>
				</g>
				<g>
					<path class="st7" d="M791.4,610.8c2.8,0.9,5.5,1.9,8.3,2.9c2.7,1,5.5,2.1,8.2,3.1l1,0.4l-0.9,0.5c-2.6,1.4-5.2,2.8-7.8,4.1
						l-3.9,2c-1.3,0.6-2.6,1.3-4,1.9c1.2-0.8,2.5-1.6,3.8-2.3l3.8-2.2c2.5-1.5,5.1-2.9,7.7-4.3l0.1,0.9c-2.7-1.1-5.4-2.2-8.1-3.3
						C796.7,613.2,794.1,612.1,791.4,610.8z"/>
				</g>
				<g>
					<path class="st7" d="M790.2,617.7c2.9-0.5,5.8-0.6,8.7-0.7c2.9,0,5.8,0,8.7,0.3c-2.9,0.5-5.8,0.6-8.7,0.7
						C796.1,618,793.2,618,790.2,617.7z"/>
				</g>
				<g>
					<path class="st7" d="M862,611.1c-2.6,1.3-5.3,2.4-8,3.6c-2.7,1.2-5.4,2.2-8.1,3.3l0.1-0.9c2.6,1.4,5.2,2.8,7.7,4.3l3.8,2.2
						c1.2,0.8,2.5,1.5,3.8,2.3c-1.3-0.6-2.7-1.3-4-1.9l-3.9-2c-2.6-1.3-5.2-2.7-7.8-4.1l-0.9-0.5l1-0.4c2.7-1.1,5.4-2.1,8.2-3.1
						C856.5,613,859.2,612,862,611.1z"/>
				</g>
				<g>
					<path class="st7" d="M863.2,618c-2.9,0.3-5.8,0.4-8.7,0.3c-2.9-0.1-5.8-0.2-8.7-0.7c2.9-0.3,5.8-0.3,8.7-0.3
						C857.4,617.4,860.3,617.6,863.2,618z"/>
				</g>
				<g>
					<path class="st21" d="M917.5,554.1c0.6,2.1,1.1,4.2,1.7,6.3c0.5,2.1,1,4.2,1.5,6.3s1.2,4.2,1.3,6.3c0.2,2.2,0.2,4.3-0.3,6.6
						l-0.3,0c-1.2-2-1.8-4.1-2.4-6.2c-0.6-2.1-0.5-4.3-0.8-6.4s-0.4-4.3-0.6-6.4c-0.2-2.2-0.3-4.3-0.5-6.5L917.5,554.1z"/>
				</g>
				<path class="st22" d="M956.7,639.3l35.6,5.1l0-9.1l-36.7-4.5C955.6,630.7,953,636.2,956.7,639.3z"/>
				<path class="st22" d="M985.9,636c0.3-0.6,0.6-1.3,0.9-1.9c9.6-17.6,32.2-7,30.2,12.8c-1.1,10.9-8,23-19.1,20.4
					C985.7,664.3,980.8,647.9,985.9,636z"/>
				<path class="st22" d="M963.3,631.1c-0.1-3-0.6-6.1-1.4-8.9c-1.9-6.3-7.5-9.6-13.3-8.6c-15.2,2.7-19.2,28.5-7.7,38.6
					c6.8,6,16.4-1.9,19.8-8.6C962.6,639.9,963.4,635.5,963.3,631.1z"/>
				<path class="st5" d="M963.3,631.1l23.5,2.9C986.9,634.1,974.3,643,963.3,631.1z"/>
				<g>
					<path class="st5" d="M701.6,636.8c0,0,2.5-17.4-1.7-21.2c-4.1-3.8-20.8-5.9-24.3,1c-3.5,6.9,4.1,19.5,4.1,19.5
						S688.7,640.1,701.6,636.8z"/>
					<path class="st6" d="M701.6,636.8c0,0,2.5-17.4-1.7-21.2c-4.1-3.8-20.8-5.9-24.3,1c-3.5,6.9,4.1,19.5,4.1,19.5
						S688.7,640.1,701.6,636.8z"/>
				</g>
				<path class="st22" d="M707.2,630.1l-39.7,1.7l0.8-9.5l40.9-1C709.1,621.2,711.5,627.2,707.2,630.1z"/>
				<path class="st22" d="M675.2,623.7c-0.2-0.7-0.5-1.4-0.8-2.1c-9-19.3-34.9-10.5-34.4,10.3c0.2,11.5,6.7,24.7,19.2,23.1
					C672.9,653.2,679.8,636.7,675.2,623.7z"/>
				<path class="st22" d="M702.9,620.8c0.3-3.1,1.2-6.2,2.4-9.1c2.7-6.4,9.2-9.2,15.5-7.6c16.6,4.4,18.6,31.5,5,41
					c-8,5.5-17.9-3.6-21-10.9C702.9,630.1,702.4,625.4,702.9,620.8z"/>
				<path class="st5" d="M702.3,621l-28.3-0.6C673.9,620.5,686.6,636.2,702.3,621z"/>
				<g>
					<path class="st7" d="M666.6,700.7c-0.2,5.8,0,11.4,1,17c0.1,0.7,0.3,1.4,0.4,2.1l0.4,2c0.3,1.4,0.7,2.7,1.1,4
						c0.4,1.3,0.9,2.6,1.3,4c0.5,1.3,1.1,2.5,1.6,3.8c0.6,1.3,1.3,2.5,1.9,3.7c0.7,1.2,1.5,2.3,2.2,3.5c0.8,1.2,1.6,2.2,2.4,3.4
						l2.7,3.2c3.8,4.1,8.3,7.5,13.3,10.4c-5.5-1.7-10.7-4.8-15-8.8c-1-1-2.1-2.1-3.1-3.2c-0.9-1.2-1.9-2.3-2.8-3.4
						c-0.8-1.2-1.7-2.4-2.4-3.7c-0.7-1.3-1.4-2.6-2.1-3.9c-0.5-1.4-1.2-2.7-1.7-4.1c-0.4-1.4-1-2.8-1.3-4.2c-0.3-1.4-0.7-2.8-1-4.3
						c-0.2-1.5-0.5-2.9-0.6-4.3C664.7,712.1,665.1,706.3,666.6,700.7z"/>
				</g>
				<g>
					<path class="st7" d="M653.5,679.7c-1.9,9.2-2.9,18.5-2.9,27.9c0.1,4.7,0.3,9.3,0.9,13.9c0.6,4.6,1.5,9.2,2.7,13.6
						c1.2,4.5,2.7,8.8,4.5,13.1c1.8,4.3,4,8.3,6.5,12.2c5,7.8,11.3,14.8,18.8,20.5c-8.2-4.7-15.2-11.4-20.7-19.2
						c-2.8-3.9-5.1-8.1-7.1-12.4c-2-4.3-3.6-8.9-4.8-13.5c-1.2-4.6-2.1-9.3-2.6-14.1c-0.5-4.7-0.7-9.5-0.5-14.3
						C648.7,698,650.4,688.6,653.5,679.7z"/>
				</g>
				<g>
					<path class="st7" d="M989.9,707.7c1.2,4,1.6,8.3,1.3,12.6c-0.1,1.1-0.2,2.1-0.4,3.2c-0.2,1.1-0.5,2.1-0.7,3.2
						c-0.2,1-0.7,2-1,3.1c-0.3,1-0.8,2-1.2,3c-1.8,3.9-4.4,7.5-7.6,10.4c-3.2,2.9-7,5-11.1,6.1c3.5-2.2,6.7-4.8,9.4-7.8
						c2.7-3,4.9-6.4,6.5-10c0.4-0.9,0.8-1.8,1.2-2.8c0.3-1,0.7-1.9,1-2.8c0.3-1,0.6-1.9,0.8-2.9c0.2-1,0.5-2,0.7-3
						C989.6,716,989.9,711.9,989.9,707.7z"/>
				</g>
				<g>
					<path class="st7" d="M999.4,689.8c3.1,6.3,5.1,13.2,6.1,20.2c0.3,1.8,0.4,3.5,0.5,5.3c0.1,0.9,0.1,1.8,0.1,2.7l0,2.7
						c0,0.9,0,1.8-0.1,2.7l-0.2,2.7c0,0.9-0.2,1.8-0.3,2.7l-0.4,2.7c-0.1,0.9-0.3,1.8-0.6,2.6l-0.6,2.6c-0.2,0.9-0.5,1.7-0.8,2.6
						l-0.8,2.5c-0.6,1.7-1.4,3.3-2.1,4.9c-0.8,1.6-1.7,3.2-2.5,4.7c-3.7,6.1-8.5,11.5-14.4,15.4c5-4.9,9.2-10.5,12.3-16.6l1.1-2.3
						c0.3-0.8,0.8-1.5,1.1-2.3c0.6-1.6,1.3-3.2,1.8-4.8c0.5-1.6,1.1-3.2,1.5-4.9l0.6-2.5c0.2-0.8,0.4-1.7,0.5-2.5l0.4-2.5
						c0.1-0.8,0.3-1.7,0.3-2.5c0.1-1.7,0.3-3.4,0.4-5.1l0.1-2.6c0-0.9,0.1-1.7,0-2.6l-0.1-2.6c0-0.9,0-1.7-0.1-2.6
						C1002.7,703.4,1001.3,696.6,999.4,689.8z"/>
				</g>
				<g>
					<path class="st7" d="M661.9,600.7c0.8-2.8,2.1-5.4,3.7-7.8c0.8-1.2,1.7-2.4,2.6-3.5c0.9-1.1,2-2.2,3.1-3.1
						c2.2-1.9,4.8-3.5,7.8-4.2c1.5-0.4,3-0.5,4.4-0.4c1.5,0.2,2.9,0.5,4.2,1.1c-1.4-0.2-2.8-0.3-4.2-0.1s-2.7,0.4-4,0.9
						c-1.3,0.5-2.5,1.1-3.6,1.8c-1.2,0.7-2.2,1.5-3.3,2.5c-2.1,1.8-3.9,3.9-5.7,6.1C665.1,596,663.4,598.3,661.9,600.7z"/>
				</g>
				<g>
					<path class="st7" d="M651.3,586c1.6-3.8,3.9-7.2,6.7-10.2c1.4-1.5,2.9-2.9,4.6-4.2c1.7-1.2,3.5-2.3,5.3-3.2
						c1.9-0.9,3.9-1.5,6-1.9c2.1-0.3,4.2-0.5,6.3-0.2c4.2,0.4,8.1,1.9,11.5,4.1c-3.8-1.4-7.7-2.5-11.6-2.6
						c-3.9-0.1-7.8,0.7-11.3,2.4c-3.5,1.6-6.8,4-9.6,6.7C656.2,579.6,653.6,582.6,651.3,586z"/>
				</g>
				<g>
					<path class="st7" d="M1021.2,615.1c-0.7-2.8-1.5-5.6-2.5-8.3c-1-2.7-2-5.3-3.4-7.7c-0.7-1.2-1.4-2.4-2.3-3.5
						c-0.8-1.1-1.8-2.1-2.8-3c-1.1-0.9-2.2-1.7-3.5-2.3c-1.3-0.6-2.6-1-4-1.4c1.5-0.1,3,0.1,4.4,0.5c1.4,0.5,2.8,1.1,4.1,2
						c2.5,1.7,4.5,4.1,5.9,6.7c0.7,1.3,1.4,2.7,1.9,4c0.5,1.4,1,2.8,1.3,4.2C1020.9,609.3,1021.3,612.2,1021.2,615.1z"/>
				</g>
				<g>
					<path class="st7" d="M1033.5,608.4c-1.1-4-2.6-7.8-4.4-11.3c-1.8-3.6-4.1-6.9-6.9-9.7c-1.4-1.4-2.9-2.7-4.6-3.7
						c-1.7-1.1-3.4-2-5.3-2.7c-3.7-1.4-7.8-1.8-11.9-1.8c4-0.8,8.3-0.8,12.4,0.3c4.1,1.1,7.8,3.4,10.8,6.5c3,3,5.2,6.6,6.9,10.5
						C1032.1,600.3,1033.2,604.3,1033.5,608.4z"/>
				</g>
				<path class="st23" d="M738,552.6c0,0-6.3-32.2-14.7-25.9C715,533,738,552.6,738,552.6z"/>
				<path class="st23" d="M735.9,555.4c0,0-33.4-25.6-35.1-13.6C699.1,553.7,735.9,555.4,735.9,555.4z"/>
			</g>
		</g>
	</g>
	<g>
		
			<image style="overflow:visible;opacity:0.45;enable-background:new    ;" width="468" height="455" xlink:href="D4493BCAAAB2F2EF.png"  transform="matrix(1 0 0 1 55.4794 1064.8633)">
		</image>
		<g>
			<g>
				<g>
					<path class="st13" d="M109.5,1337.1c4.5,1.2,13.3,46.3,15.5,52c7.8,19.8,19.2,38.8,36.6,51.7c18.9,14,42.9,19.5,66.4,21.6
						c48,4.5,98.1,8.7,145.9-0.1c31.4-5.7,53.2-18.9,64.6-48.3c9.5-24.6,24.8-57.4,20.5-84.3C459,1329.7,330.6,1392.5,109.5,1337.1z
						"/>
					<path class="st24" d="M125.6,1278.1c-11.8,0.6-23.5,2.4-35.2,6.2c-10.2,3.2-24.9,9.7-26.2,22.3c-1.4,13.6,12.4,21,22.5,25.8
						c17.9,8.6,37.5,12.7,57,16.3c85.3,15.5,175.3,26.9,260.4,3.3c4.6-1.3,9.2-2.7,13.8-4.2c19.1-6.2,37.7-13.9,55.6-23.2
						c3.6-1.9,7.4-3.9,10-7.1c9.6-11.4-4.8-25.9-14.5-30.5c-7.5-3.6-15.9-4.7-24.2-5.2c-39.3-2.6-77,8.9-115.8,11.8
						c-28,2.1-56.1,3.3-84-0.2C205.7,1288.7,165.4,1276.2,125.6,1278.1z"/>
					<path class="st25" d="M95.4,1283.8c22.1-8.5,47.8-7.8,70.8-4.7c25.7,3.5,50.9,10.1,76.7,12.9c65.2,6.9,128.6-10,193.4-10.5
						c9.1-0.1,20.2,0.4,28.3,5c5.3,3.1,9.4,9.2,8.1,15.2c-0.8,4-3.8,7.2-6.9,9.9c-32.7,28.4-86.2,32-127.4,36.4
						c-51.6,5.5-104,3.9-155.3-4.7c-35.2-5.9-73.1-12.7-103.3-32.8c-2.6-1.7-5.2-3.7-6.2-6.6c-1.6-4.5,1.5-9.5,5.4-12.2
						C83.8,1288.3,89.9,1285.9,95.4,1283.8z"/>
					<path class="st26" d="M104.9,1278.2c0,0-6.2-71.5,64.1-50.6c-1.4-7.1,0.4-15.3,4.3-21.3c14.6-21.8,45.2-16.4,45-15.7
						c1.2-4.3,6.4-9.2,9.9-11.6c2.1-1.4,4.4-2.6,7-2.8c0.9-0.1,8,1.9,7.7,2.1c0,0,42.4-35.5,63.9,7.9c0,0,27.2,0.6,29,22
						c0,0,35.9-0.8,30.4,30.1c0,0,47.8,0.8,41.8,38.2c0,0,21.3-19.7,40.6-1.1l16,11c0,0,12,8.6,8.1,15.2s-5.8,20.7-67.3,36.9
						c0,0-51,9.7-88.4,10.9s-95.3,6.4-183-16.5c0,0-84.1-19.6-54.4-43L104.9,1278.2z"/>
					<g>
						<g>
							<path class="st27" d="M397.6,1250c21.1-24.9,66.8-20.3,81.5,8.6c0.7,1.3,1.3,2.8,1.9,4.2c5.1,13.6,2.7,29.4-5.3,41.4
								c-18.2,27.3-54.8,30-80.8,12.7c-16-10.6-16-29.3-9.7-45.7c0.1-0.4,0.3-0.8,0.5-1.2C388.6,1262.5,393,1255.5,397.6,1250z"/>
						</g>
						<g>
							<path class="st12" d="M481,1258c0,0,17.6,0.1,19.7,12.3s-9.9,23.9-17.8,18.4c-7.8-5.6-7.4-27.8-7.4-27.8L481,1258z"/>
						</g>
						<g>
							<path class="st12" d="M481.6,1263c-8.9-22.6-36.5-32.8-59.1-27.4c-0.8,0.2-1.7,0.4-2.5,0.7c-6.8,1.8-12.5,4.8-18,9.3
								c-0.9,0.7-1.9,1.6-2.9,2.5c-1,0.9-1.8,1.9-2.4,2.9c0.8-0.4,1.6-0.9,2.4-1.3c0.8-0.4,1.6-0.8,2.4-1.2
								c5.7-1.9,11.4-4.9,15.7-8.7c-1,13.6-1.4,28.6,6.2,40.8c0.5,0.7,1.1,1.4,1.7,2c1.8,1.7,4,2.6,6.7,2.2c0,0,20.6-0.7,14.4,12.9
								c-3.8,8.4-13.3,11.4-21.9,8.9c0.2,0.7,0.4,1.5,0.5,2.2c1.7,2.2,3.5,4.4,5.5,6.4c1.4,1.5,2.8,2.9,4.2,4.3
								c0.4,0.3,0.7,0.7,1.1,1c0.7,0.7,0.5,0.4-0.7-0.6c0.1,0.4,2,1.7,2.3,1.9c2.2,1.8,4.5,3.5,6.9,5.1c2.7-0.6,5.4-1.7,7.8-2.8
								C473.9,1313.8,491.2,1287.4,481.6,1263z"/>
						</g>
						<g>
							<path class="st12" d="M420.7,1272.3c0,0-2.2,9.2,9.4,17.3c0,0,5.2-8.3,12-4.8c6.8,3.4-10-11.6-10-11.6L420.7,1272.3z"/>
						</g>
						
							<ellipse transform="matrix(7.109781e-02 -0.9975 0.9975 7.109781e-02 -920.7618 1609.3804)" class="st28" cx="403.7" cy="1299.1" rx="7.4" ry="7.9"/>
						<g>
							<path class="st29" d="M410.4,1271.5c-1.2-0.4-2.5-0.8-3.7-1.2c-1.2-0.4-2.5-0.7-3.7-0.9c-1.2-0.2-2.5-0.4-3.7-0.3
								c-1.2,0.1-2.5,0.3-3.7,0.9c1-0.9,2.3-1.4,3.6-1.7c1.3-0.2,2.7-0.1,4,0.1c1.3,0.2,2.6,0.6,3.8,1.2
								C408.2,1270.1,409.3,1270.7,410.4,1271.5z"/>
						</g>
						<g>
							<path class="st29" d="M407.3,1281.4c-1.1,0.7-2.3,1.1-3.5,1.4c-1.3,0.3-2.6,0.3-3.9,0c-1.3-0.4-2.5-1.2-3.2-2.4
								c-0.4-0.6-0.6-1.2-0.8-1.8c-0.2-0.6-0.2-1.3-0.2-1.9c0.3,0.6,0.4,1.2,0.7,1.7c0.3,0.5,0.5,1.1,0.9,1.5
								c0.7,0.9,1.7,1.6,2.8,1.9c1.1,0.3,2.3,0.3,3.5,0.2C404.9,1282,406.1,1281.7,407.3,1281.4z"/>
						</g>
						<g>
							<path class="st29" d="M382,1295c1-0.1,1.6-0.1,2.3-0.1c0.6,0,1.2,0,1.9,0.1c0.6,0.1,1.2,0.2,1.9,0.3c0.7,0.2,1.4,0.4,2.2,0.8
								c-0.5,0.8-1.3,1.2-2,1.5s-1.6,0.4-2.4,0.3s-1.6-0.4-2.3-0.9S382.2,1296,382,1295z"/>
						</g>
						<g>
							<path class="st12" d="M406.6,1242.6c-0.7,0.4-1.4,0.8-2.1,1.1c0,0,0,0,0,0c-0.1,0-0.1,0.1-0.2,0.1c-0.6,0.6-1.3,1-2,1.4
								c-4.2,4-12,11.6-8.7,10.6c4.4-1.4,25.8-16,25.8-16L406.6,1242.6z"/>
						</g>
						<path class="st27" d="M386.2,1272.4c-1.7,2.3-3.3,4.8-5.3,6.8c-0.8,0.9-3.2,1.6-3.3,2.9c-0.2,1.9,5.3,5.2,6.3,3.3"/>
					</g>
					<g>
						<path class="st27" d="M404.5,1321.2c0,0,0.2,0.6,0.5,1.6c1,3.8,2,13.8-11.8,18.4c0,0,42.7-6.1,50.8-14.3
							C444,1326.9,416.6,1330.7,404.5,1321.2z"/>
					</g>
					<circle class="st30" cx="353.8" cy="1101.2" r="28.3"/>
					<circle class="st30" cx="281.1" cy="1189.3" r="35"/>
					
						<ellipse transform="matrix(3.327798e-02 -0.9994 0.9994 3.327798e-02 -1019.882 1458.1611)" class="st30" cx="243.8" cy="1256.3" rx="20.1" ry="20"/>
					<circle class="st30" cx="297.3" cy="1280.2" r="11.3"/>
					<circle class="st30" cx="223" cy="1129" r="13.9"/>
					<path class="st13" d="M186.9,1450.5c0,0-10.5,10.3-4.9,26c0,0,3.8,15.6-18,11.6c5.4,1,10.2,7.7,16.7,8.6
						c14.3,2.2,22.5-9.9,23.1-22.6c0.3-5.4,7.1-34,16.6-30.4c6,2.3-17.1-8.6-17.1-8.6L186.9,1450.5z"/>
					<path class="st13" d="M162.9,1430.6c0,0-8.8,8.5-4.1,21.6c0,0,3.1,12.9-14.9,9.6c4.5,0.8,8.5,6.4,13.9,7.2
						c11.9,1.8,18.7-8.2,19.2-18.8c0.2-4.5,5.9-28.3,13.8-25.3c5,1.9-14.3-7.1-14.3-7.1L162.9,1430.6z"/>
					<path class="st13" d="M405.4,1451.2c0,0,9,11.7,1.2,26.4c0,0-6,14.9,16.1,14c-5.5,0.2-11.2,6.1-17.8,6.2
						c-14.5,0.1-20.9-13-19.7-25.6c0.5-5.3-2.3-34.7-12.1-32.5c-6.2,1.4,18.2-6.1,18.2-6.1L405.4,1451.2z"/>
					<path class="st13" d="M430.4,1431.6c0,0,6.5,9.9-0.7,21.2c0,0-5.7,11.5,12,12.2c-4.4-0.2-9.3,4.2-14.6,3.8
						c-11.6-0.8-15.9-11.6-14.1-21.7c0.7-4.2,0.3-27.8-7.7-26.7c-5.1,0.7,14.9-3.7,14.9-3.7L430.4,1431.6z"/>
				</g>
				<g>
					<g>
						<path class="st13" d="M335.9,1096.8c-0.3-2.3,2.4-5.3,3.8-6.9c0.9-1.1,1.8-1.8,3.1-2.4c1-0.5,1.9-0.9,2.7-1.8
							c2.1-2.4-1.4-6-3.5-3.5c-0.9,1-2.5,1.3-3.6,2.1c-1.5,1.1-2.6,2.5-3.7,4c-1.8,2.5-4.3,5.3-3.8,8.6
							C331.3,1099.9,336.3,1100,335.9,1096.8L335.9,1096.8z"/>
					</g>
				</g>
				<g>
					<g>
						<path class="st13" d="M216.7,1128c-0.5-0.4,0.4-1.5,0.8-2.1c0.7-1,1.6-1.9,2.4-2.7c2.3-2.3-1.2-5.8-3.5-3.5
							c-2.9,2.9-7.3,8.2-3.2,11.9C215.6,1133.7,219.1,1130.2,216.7,1128L216.7,1128z"/>
					</g>
				</g>
				<g>
					<g>
						<path class="st13" d="M258.9,1182.2c-0.1-5.7,4.4-13.6,10.5-15.1c3.1-0.8,1.8-5.6-1.3-4.8c-8.2,2-14.2,11.9-14.1,19.9
							C253.9,1185.4,258.9,1185.4,258.9,1182.2L258.9,1182.2z"/>
					</g>
				</g>
				<g>
					<g>
						<path class="st13" d="M231.6,1254.8c-0.4-0.5,1.5-3.1,2.1-3.7c1.2-1.4,2.6-3.2,4.6-3.1c3.2,0.2,3.2-4.8,0-5
							c-3.9-0.3-6.9,2.8-9.1,5.7c-2.2,2.9-3.6,6.4-1.1,9.6C230.1,1260.9,233.6,1257.3,231.6,1254.8L231.6,1254.8z"/>
					</g>
				</g>
				<g>
					<g>
						<path class="st13" d="M290.9,1281.2c0-3,1.1-5,3.8-6.5c1.7-0.9,0.2-3.5-1.5-2.6c-3.5,2-5.3,5-5.3,9.1
							C287.9,1283.1,290.9,1283.1,290.9,1281.2L290.9,1281.2z"/>
					</g>
				</g>
			</g>
		</g>
	</g>
	<g>
		<text transform="matrix(1 0 0 1 191.3046 1602.9922)" class="st1 st3">Bathing</text>
	</g>
	<g>
		<g>
			<g>
				<path class="st13" d="M661.4,1108.9c-7,11.7-2.5,26.5,3.7,37.6c7.3,13.1,18.2,22.7,31,30.2c5.9,3.5,12.6,7,19.6,7.1
					c6.3,0.1,10.3-4.1,13.5-9.1c3.8-5.9,7.3-11.4,3.4-18.1c-3.1-5.2-8.8-9.7-14.4-11.8c-6.4-2.5-12.6-0.3-15.3,6.3
					c-2.3,5.7,4.8,10.8,8.7,13.8c1,0.8,3.5,2.2,4.3,0.5c0.7-1.7-2.6-4.4-3.6-5.2c-2.2-1.7-2.5-1.7-0.9-4.3c1.3-2.1,3.2-4.2,5.7-4.8
					c2.7-0.6,6.1,1,8,2.9c2.9,3,1.1,6.6-0.6,9.7c-2.4,4.3-5.5,10.2-10.4,12.2c-5.7,2.2-12.4-1.2-17.3-4
					c-10.5-5.9-19.5-13.3-25.2-24.1c-5.1-9.6-8.7-22.2-2.7-32.2C670.5,1112.8,662.7,1106.7,661.4,1108.9L661.4,1108.9z"/>
			</g>
		</g>
		<g>
			<g>
				<path class="st13" d="M640.2,1115.4c-3.1,7.8-1.5,15.8,1.1,23.6c2.8,8.5,6.6,16.1,11.3,23.7c8.5,13.8,17.4,25.8,31.2,34.8
					c15,9.7,72.6,30.9,72.7-2.9c0-6.1-1.3-14.1-8-16.2c-7.8-2.4-15.6,4.5-17,11.8c-0.9,4.7,8.9,3.1,9.7-1.1c0.2-1.2,0.7-2.2,1.5-3.1
					c0.5-1.2,1.1-1.1,1.8,0.3c0.9,0.9,1.3,2.5,1.5,3.7c0.6,2.6,0.9,5.4,0.6,8.1c-0.2,2.4-0.9,5.3-3.2,6.6c-3.2,1.7-8.1,1-11.5,0.7
					c-14-1.3-27.6-5.2-39.6-12.8c-12.1-7.6-20.8-17.7-28.2-29.8c-4.5-7.4-9-14.5-11.9-22.8c-2.6-7.5-5.9-15.9-2.7-23.8
					C651.5,1111,641.7,1111.5,640.2,1115.4L640.2,1115.4z"/>
			</g>
		</g>
		<g>
			<g>
				<path class="st13" d="M629.9,1161.5c7.2,1.9,12,9,16.3,14.4c4.3,5.4,8.4,11.1,11.4,17.4c3,6.4,4.8,13.3,6.1,20.2
					c1.2,6.3,2.6,12.9,2.2,19.4c-0.4,5.5-2.5,11.4-7.2,14.7c-5.3,3.7-11.9,4.2-15.7-1.5c-2.5-3.8-3.6-10.1-0.7-14
					c1.5-2,3.7-2.6,5.7-3.8c0.5-0.2,1-0.3,1.5-0.5c-3.9-1.5-4.8-1.4-2.8,0.3c0.1,1.4,1.1,2.7,1.1,4.3c0.1,2.1,9.9,2.7,9.9,1.7
					c-0.4-10.8-16.8-11-23.4-5.7c-4.2,3.4-4.4,9.4-2.3,14.2c2.3,5.4,7.2,8.2,12.6,9.5c10.9,2.7,24.7,1.7,29.5-10.2
					c3-7.4,1.2-15.6,0-23.2c-1.2-7.5-2.9-14.9-5.9-21.9c-3.7-8.9-9.7-16.6-15.8-23.9c-5.5-6.5-11.2-10.7-19.5-12.9
					c-0.9-0.2-5.7-1.3-6.2-0.3C626.1,1160.7,629.1,1161.3,629.9,1161.5L629.9,1161.5z"/>
			</g>
		</g>
	</g>
	<g>
		<g>
			<g>
				<path class="st13" d="M1061.3,1102c1,6.9-3.3,16.4-6.3,22.5c-3.6,7.3-7,14.7-11.8,21.2c-4.9,6.5-9.5,13.4-15.1,19.4
					c-5.4,5.8-12.5,9.8-19.3,13.4c-13.6,7.3-32,14.7-47.2,8.3c-2.6-1.1-7.1-3-7.9-6c-0.8-2.7,1.3-4.9,3.4-6.3
					c2.2-1.5,4.9-2.4,7.4-3.2c1.8-0.5,3.8-1.3,5.7-0.9c0.9,0.2,1.8,0.6,2.5,1.2c-1.6-1.1-2.8-0.8-3.4,0.9c-1.1,1.5,5.9,8.1,6,8
					c3.8-5.2-1.9-11.5-5.9-15c-4.9-4.4-9.7-3.1-15.4-0.6c-5.1,2.2-8,5.7-5.4,11.1c2.6,5.4,7,10.9,11.7,14.6
					c13.5,10.7,31,5.9,45.5,0.1c7.9-3.2,15.3-7.6,22.3-12.6c7-5,11.9-12.2,17-19.1c2.9-3.9,6.1-7.7,8.5-11.9
					c2.5-4.2,4.4-8.9,6.7-13.2c3.5-6.7,8.2-16.8,7.2-24.6c-0.3-1.8-2.2-3.8-3.3-5.2C1063.8,1103.9,1061.2,1101.3,1061.3,1102
					L1061.3,1102z"/>
			</g>
		</g>
		<g>
			<g>
				<path class="st13" d="M1063.4,1178.2c-17.6-0.1-34.7,10.8-45.9,23.6c-9,10.2-18.8,23.7-10.2,37.2c2.8,4.4,7.4,9.5,13.2,8.5
					c6.5-1.1,13.5-8.7,15.5-14.8c2.2-6.8-1.9-12.7-6.8-17c-2.2-1.9-4.3-2.9-7.2-1.8c-3.9,1.5-4.6,5.2-6.7,8.3
					c-1.6,2.2,4.2,10.2,6,7.7c1.6-2.2,2.3-5.4,4.8-6.8c1.1-0.6,2.3-1.1,3.5-0.5c0.7,0.3,1.8,2.5,2.4,2.5c-2.2,0.1-0.2-4.8-2.1,0.7
					c-0.4,1.1-0.9,2.1-1.5,3c-1.5,2.4-3.5,4.5-5.7,6.3c-2.8,2.3-9.2,6.6-12,1.8c-2.2-3.8,0.9-11.1,2.9-14.5c5.4-8.9,13.4-18,21.9-24
					c8.9-6.2,21.2-11.5,32.1-11.4C1070.3,1187,1066.3,1178.3,1063.4,1178.2L1063.4,1178.2z"/>
			</g>
		</g>
		<g>
			<g>
				<path class="st13" d="M1039,1107.8c1.7,3.7-3.2,10.2-5.2,13c-2.8,4-5.8,8-8.8,11.9c-3.3,4.3-6.8,8.4-11.1,11.8
					c-4,3.2-8.8,7.5-14,7.9c-4.4,0.3-8.1-1.2-10.4-5c-2.4-3.8-5.7-9.3-3.8-13.9c1.4-3.5,6.3-9.4,9.8-5.3c1.6,1.9,1.5,4.7,0.6,6.9
					c-0.4,1-1.3,1.8-1.6,2.8c-1.1,1-1.1,1.3,0.1,1c1.1,0.2,1.2-0.1,0.3-0.7c0.6-3.3-9.1-1.6-9.6,1.4c-0.8,4.8,6.2,4.6,9.3,4
					c5.6-1.1,10.5-6,11.6-11.7c1.1-5.7-2.9-9.9-8.4-10.5c-6.4-0.7-12.2,2.4-16.7,6.7c-4.7,4.5-7.2,9.6-4.5,15.9
					c2.2,5.1,4.8,10.4,10.3,12.3c13.4,4.7,26.7-3.8,36.5-12.2c6.5-5.5,11.2-12.6,16.2-19.4c2.5-3.3,4.8-6.6,6.7-10.2
					c1.4-2.8,3.6-6.2,2.2-9.3C1047.3,1102.1,1037.8,1105.1,1039,1107.8L1039,1107.8z"/>
			</g>
		</g>
	</g>
	<g>
		
			<image style="overflow:visible;opacity:0.45;enable-background:new    ;" width="291" height="360" xlink:href="D4493BCAAAB2F2EA.png"  transform="matrix(1 0 0 1 700.4794 1161.8633)">
		</image>
		<g>
			<g>
				<g>
					<g>
						<path class="st31" d="M716.2,1365c0.3,2.9-2.8,5.1-4.2,7.4c-1.2,2.1-2.1,4.5-2.5,6.9c-0.7,4.3,0.4,7.5,3.2,10.7
							c2.4,2.7,5.1,5.4,2.8,9.3c-1.2,2-2.9,3.2-3.3,5.6c-1,5.6,2.7,11.6,3.2,17.1c0.2,2.5,4.2,2.6,4,0c-0.3-3.1-0.9-5.8-1.9-8.7
							c-0.9-2.5-2.2-6.3-1-8.8c2-4.1,5.6-6,3.6-11c-0.8-2-2.2-3.6-3.6-5.2c-2.8-3.3-4-5.6-2.7-10.1c1.3-4.7,6.7-8.1,6.3-13.1
							C719.9,1362.4,715.9,1362.4,716.2,1365L716.2,1365z"/>
					</g>
				</g>
				<g>
					<polygon class="st4" points="847.9,1461.1 851.6,1486.3 925.1,1477.5 916.5,1458.9 					"/>
					<polygon class="st4" points="767.9,1462.5 769.4,1483.8 848.2,1477.2 844.1,1461 					"/>
					<g>
						<path class="st4" d="M930.2,1470.7c0-0.3,0.2-0.6,0.3-0.8l-2.5-50.7l-174,6.5l-3,46.5l178.6,2.5c0.1-0.2,0.2-0.4,0.2-0.6
							C929.9,1473,930,1471.9,930.2,1470.7z"/>
					</g>
					<path class="st4" d="M754.1,1437.8l-0.5,9.9l175,3.2c0,0,0-37.8-2.6-37.8"/>
					<path class="st4" d="M920.1,1394.1c-0.2-0.6-0.5-1.2-0.7-1.8l-165.3,45.4c0.9,2.5,1,5.1,0.9,7.7l0.3,1.8
						c0,0,165.3,10.6,168.8-4.6C927.4,1429,921.4,1399.9,920.1,1394.1z"/>
					<g id="face_26_">
						<path class="st5" d="M753.8,1281.6l2.7,12.7c0,0-18.7-0.9-11.8,18.5c0,0,1.9,16.1,17.8,15.2c0,0,6.2,40.6,69.9,41.6
							c0,0,66.7,7.1,80.6-39.7c0.1-0.4,3.3-1.4,3.8-1.6c1.1-0.6,2.3-1.1,3.4-1.8c1.1-0.6,2.2-1.3,3.2-2.1
							c7.9-6.2,10.8-19.2,2.6-26.1c-0.8-0.8-1.6-1.2-2.9-1.6c-1.6-0.4-3.7-0.8-5.3,0c0.8-3.7,0.4-7.3,0.8-11.2
							c0.1-1.2,0.1-2.5,0.2-3.8c0.2-2.5,0.3-5,0.5-7.4c0.1-1.3,0.2-2.6,0.2-3.8c0.2-3.8,0.5-7.7,0.8-11.5c0.5-6,1-12.1,1.5-18.1
							l-54.4-35.8l-80.3,39.3L753.8,1281.6z"/>
						<path class="st6" d="M753.8,1281.6l2.7,12.7c0,0-18.7-0.9-11.8,18.5c0,0,1.9,16.1,17.8,15.2c0,0,6.2,40.6,69.9,41.6
							c0,0,66.7,7.1,80.6-39.7c0.1-0.4,3.3-1.4,3.8-1.6c1.1-0.6,2.3-1.1,3.4-1.8c1.1-0.6,2.2-1.3,3.2-2.1
							c7.9-6.2,10.8-19.2,2.6-26.1c-0.8-0.8-1.6-1.2-2.9-1.6c-1.6-0.4-3.7-0.8-5.3,0c0.8-3.7,0.4-7.3,0.8-11.2
							c0.1-1.2,0.1-2.5,0.2-3.8c0.2-2.5,0.3-5,0.5-7.4c0.1-1.3,0.2-2.6,0.2-3.8c0.2-3.8,0.5-7.7,0.8-11.5c0.5-6,1-12.1,1.5-18.1
							l-54.4-35.8l-80.3,39.3L753.8,1281.6z"/>
					</g>
					<g>
						<path class="st5" d="M823.2,1371.7c0,0-4.6,23.8-17,27.7c-12.3,3.8,46.3,13.1,46.3,13.1l20.8-10l4.6-3.1
							c0,0-18.5-7.7-20.8-33.8l-30.8-3.1L823.2,1371.7z"/>
						<path class="st6" d="M823.2,1371.7c0,0-4.6,23.8-17,27.7c-12.3,3.8,46.3,13.1,46.3,13.1l20.8-10l4.6-3.1
							c0,0-18.5-7.7-20.8-33.8l-30.8-3.1L823.2,1371.7z"/>
					</g>
					<g>
						<path class="st7" d="M792.1,1277.9c1.2,0.1,2.4,0.2,3.6,0.2c1.2,0,2.4,0,3.6-0.1c2.4-0.2,4.8-0.5,7.1-1
							c2.3-0.5,4.5-1.3,6.7-2.3l1.6-0.8l1.5-1l0.8-0.5l0.7-0.6c0.5-0.4,1-0.7,1.5-1.1c-1.7,1.8-3.5,3.4-5.7,4.6
							c-2.1,1.2-4.4,2.1-6.8,2.6c-2.4,0.5-4.8,0.8-7.3,0.8C796.9,1278.7,794.5,1278.5,792.1,1277.9z"/>
					</g>
					<g>
						<path class="st7" d="M880.2,1277.9c-2.3,0.5-4.6,0.7-7,0.7c-2.3,0.1-4.7-0.1-7-0.5c-2.3-0.4-4.6-1.1-6.7-2.2
							c-1-0.6-2.1-1.2-3-1.9c-0.9-0.8-1.7-1.7-2.3-2.6c1.6,1.7,3.5,3,5.6,3.9c2.1,0.9,4.3,1.5,6.6,1.9c2.2,0.4,4.5,0.6,6.8,0.8
							c1.2,0.1,2.3,0.1,3.5,0.1C877.9,1278,879,1278,880.2,1277.9z"/>
					</g>
					<g>
						<path class="st7" d="M840.3,1308.1c0,2.2-0.2,4.4-0.6,6.6c-0.4,2.2-1.1,4.3-2.2,6.3l-0.9,1.4c-0.2,0.4-0.4,0.9-0.4,1.3
							c0,0.4,0.2,0.7,0.5,0.9c0.4,0.2,0.9,0.3,1.4,0.4c0.5,0.1,1,0.1,1.5,0c0.5-0.1,1.1-0.1,1.6-0.2c1.1-0.2,2.1-0.3,3.2-0.7
							c-0.9,0.6-2,0.9-3.1,1.2c-0.5,0.1-1.1,0.3-1.6,0.4c-0.3,0.1-0.5,0.1-0.8,0.2c-0.3,0-0.6,0-0.9,0c-0.6,0-1.2-0.1-1.8-0.4
							c-0.2-0.1-0.3-0.2-0.4-0.3c-0.1-0.1-0.3-0.2-0.3-0.4c-0.1-0.2-0.2-0.3-0.2-0.5c-0.1-0.2-0.1-0.3-0.1-0.5
							c0-1.4,0.9-2.3,1.4-3.2c0.5-0.9,1-1.8,1.4-2.9c0.4-1,0.7-2,1-3.1c0.3-1,0.5-2.1,0.7-3.2C840,1310.2,840.1,1309.2,840.3,1308.1
							z"/>
					</g>
					<ellipse class="st8" cx="789.4" cy="1327.2" rx="13.7" ry="12.4"/>
					<ellipse class="st8" cx="887.4" cy="1328" rx="13.7" ry="12.4"/>
					<g>
						<polygon class="st5" points="813.8,1395 873.8,1397 875.8,1421.7 824.5,1437.1 						"/>
						<polygon class="st6" points="813.8,1395 873.8,1397 875.8,1421.7 824.5,1437.1 						"/>
					</g>
					<g>
						<path class="st4" d="M919.9,1393.2c-0.2-3.2-6.8-4.5-9.2-5.2c-4.1-1.1-8.4-1.6-12.7-1.8c-6.7-0.4-13.3-0.4-20-0.8
							c-4.9-0.3-11-1.2-15.2,2c-2.2,1.7-3.6,4.8-4.8,7.2c-3.8,7.6-6.4,15.7-8.9,23.7c-1.7,5.6-3.4,11.2-4.8,16.8
							c-8.8-44.4-32.8-48.1-32.8-48.1l-34.1-0.4c-28.6-1.6-23.1,46.8-23.1,46.8l-0.1,5.8l58.2,2.2c0,0,108.4-4.9,109.3-7.7
							C922.7,1431,920,1393.4,919.9,1393.2z"/>
					</g>
					<g>
						<path class="st9" d="M875.3,1384.3c-3.8,0.1-11.3-5.8-11.3-5.8c-6.1,2.8-22.4,41.2-22.4,41.2c-4.6-12.4-22.1-39.5-22.1-39.5
							l-15.7,6.9c19.9,9.9,31.3,50.3,31.3,50.3l12-0.6c0.3-25.4,25.6-49.8,28.3-52.3C875.4,1384.4,875.3,1384.3,875.3,1384.3z"/>
					</g>
					<polyline class="st11" points="747.8,1289.3 760.9,1283.7 766.8,1295.5 752.5,1299.6 748,1289.8 					"/>
					<g>
						<path class="st12" d="M940.1,1189.5c-5.9-14.3-23.4-23.9-40.8-17.7c0,0-15.8,10.7-17.4,14.8c0,0-51.7-16.4-83.8,1.5
							c0,0-47.5,21.5-55.9,80.3c0,0,0.1,26.3,1.8,31.5c1.8-2.6,4.4-4.7,7.6-6v-2.5c0,0,34.8-26.6,53.8-29.7c0,0,51.2-14.8,57.5-36.3
							c0,0,9,30.2,53.2,65.5l0.5,5.1c0,0,0.6-0.1,1.5,0c3.1,0.1,6.2,1.2,8.2,3.4c1.8,1.9,3.2,3.9,4.2,6c3-7.9,9.3-32.3-3.4-79.4
							c0,0.1,10.5-10.8,11.2-12.1C943.1,1205.6,943.1,1196.9,940.1,1189.5z"/>
					</g>
					<g>
						<path class="st16" d="M927.3,1227.8c-2.6-4.8-5.2-9.3-8.2-13.3c-1.5-2-3.2-3.9-4.9-5.7c-1.8-1.8-3.6-3.5-5.5-5.1
							c-3.8-3.2-8.1-6-12.5-8.5c-4.5-2.5-9.2-4.7-14.2-6.8c5.5-0.4,10.9,0.7,16.1,2.5c5.2,1.8,10.1,4.6,14.4,8.2
							c2.1,1.8,4.1,3.8,5.9,6c1.8,2.2,3.3,4.5,4.6,7C925.6,1216.9,927.2,1222.3,927.3,1227.8z"/>
					</g>
					<g>
						<path class="st4" d="M919.9,1393.2c0,0,14,19.6,4.2,49.5"/>
					</g>
					<path class="st4" d="M753.9,1446.4c0,0.1,0,0.1,0,0.2c0,0.5-0.1,1-0.2,1.5v5.3l175.1,1.6v-7.1L753.9,1446.4z"/>
					<g>
						<path class="st4" d="M923.8,1486.4c3.4-4,4.5-8.9,6.3-13.6l-21.4-55l4.2,56.4c0,0-64,11.8-97.8-11.8l-2.7,18.6
							c0,0,84.1,33.5,110.9,6.3C923.4,1487,923.5,1486.7,923.8,1486.4z"/>
					</g>
					<g>
						<path class="st32" d="M902.7,1425.4c1.8,5.4,3.7,10.8,5.1,16.3c0.7,2.8,1.2,5.6,1.5,8.5c0.2,2.9,0.1,5.9-0.7,8.8
							c-0.8,2.9-2.5,5.7-4.8,7.7c-2.3,2-5.1,3.4-8,4.2c-5.8,1.7-11.7,1.8-17.4,1.5c-5.8-0.4-11.5-1.3-17.1-2.3
							c-2.8-0.5-5.6-1-8.4-1.5c-2.8-0.5-5.6-1-8.4-1.5c-11.2-2.2-22.2-5.3-32.9-9.3c11,2.8,22.1,5.2,33.3,7c2.8,0.4,5.6,0.8,8.4,1.2
							c2.8,0.4,5.6,0.9,8.5,1.3c5.6,0.9,11.2,1.8,16.8,2.1c5.6,0.4,11.2,0.2,16.4-1.2c2.6-0.7,5.1-1.8,7.1-3.5
							c1-0.8,1.9-1.8,2.6-2.9c0.4-0.5,0.7-1.1,1-1.7c0.2-0.6,0.5-1.2,0.7-1.8c0.4-1.2,0.7-2.6,0.8-3.9c0.1-1.4,0.2-2.7,0.2-4.1
							c0-2.8-0.4-5.6-0.9-8.3C905.4,1436.5,903.8,1431,902.7,1425.4z"/>
					</g>
					<g>
						<path class="st32" d="M930.3,1465.1c0.9,6.7-1,13.7-5,19.2c-2,2.8-4.6,5.1-7.5,7c-1.4,1-3,1.7-4.5,2.5l-2.4,1
							c-0.4,0.2-0.8,0.3-1.2,0.5l-1.2,0.4c-6.5,2.2-13.3,3-20.1,3.2c-0.8,0-1.7,0.1-2.5,0.1l-2.5-0.1c-1.7,0-3.4,0-5.1-0.2l-5.1-0.3
							l-5-0.6c-1.7-0.2-3.3-0.4-5-0.7l-5-0.8c-3.3-0.7-6.6-1.3-9.9-2l-4.9-1.2l-2.5-0.6l-2.5-0.7l-4.9-1.3l-2.4-0.7
							c-0.9-0.3-1.6-0.7-2.4-1c-6.2-2.9-11.8-6.7-17-11c-5.1-4.4-9.8-9.3-13.8-14.7c4.4,5.1,9.2,9.8,14.5,13.9
							c5.3,4.1,11,7.7,17,10.4c0.7,0.3,1.5,0.7,2.3,0.9l2.4,0.6l4.9,1.2l2.4,0.6l2.5,0.6l4.9,1.1c3.3,0.7,6.6,1.3,9.8,1.9l5,0.8
							c1.7,0.3,3.3,0.5,5,0.7l5,0.6l5,0.4c1.7,0.2,3.3,0.2,5,0.2l2.5,0.1c0.8,0,1.7,0,2.5-0.1c6.7-0.1,13.3-0.9,19.6-2.8l1.2-0.3
							c0.4-0.1,0.8-0.3,1.2-0.4l2.3-0.9c1.5-0.7,3-1.4,4.4-2.3c2.8-1.7,5.3-3.9,7.4-6.5C928.7,1478.6,930.7,1471.8,930.3,1465.1z"/>
					</g>
					<g>
						<path class="st33" d="M815.6,1452.5c0-0.2-0.1-0.4-0.1-0.6c-0.5-2.9-2-12.8-7-9.6c-1.4,0.9-2.5,2.5-3.4,3.9
							c1-1.5-10.4-7.8-11.6-8.3c-5.8-2.3-12.3-0.3-13.6,6.3c-1.3,6.1-2,14.2,2.7,19.1c4.2,4.3,10.1,7.1,15.6,9.3
							c4.7,1.9,10.5,1.6,14-2.4C816.5,1465.4,816.5,1458.5,815.6,1452.5z"/>
					</g>
					<g>
						<path class="st4" d="M772.9,1416.4l-4.2,56.4c0,0,64.2,11.8,98.2-11.8l2.7,18.6c0,0-107.2,42.5-118.6-7.1"/>
					</g>
					<g>
						<path class="st32" d="M751.3,1468.7c-0.2,4.3,1,8.6,3.2,12.2c2.2,3.6,5.4,6.6,9,8.7c3.7,2.1,7.7,3.5,11.8,4.4
							c2.1,0.5,4.2,0.8,6.3,1.1c2.1,0.2,4.2,0.4,6.4,0.5c8.5,0.3,17.1-0.4,25.6-1.6c8.5-1.2,16.9-3,25.3-4.9l-0.1,0
							c6.2-2.5,12.4-5.2,18.6-8c3.1-1.4,6.1-2.8,9.1-4.3c3-1.5,6-3.1,8.9-4.8c-2.8,2-5.7,3.7-8.6,5.4s-5.9,3.3-9,4.8
							c-6,3.1-12.2,5.9-18.4,8.6l0,0l-0.1,0c-8.4,2.1-16.8,4-25.4,5.2c-8.6,1.3-17.2,2-25.9,1.5c-2.2-0.1-4.3-0.3-6.5-0.6
							c-2.2-0.3-4.3-0.6-6.4-1.2c-4.2-1-8.4-2.6-12.1-4.9c-1.9-1.1-3.6-2.6-5.2-4.1c-1.5-1.6-2.8-3.4-3.9-5.3
							C751.8,1477.4,750.8,1473,751.3,1468.7z"/>
					</g>
					<g>
						<path class="st4" d="M794.7,1473.1c0,0,44-9.6,58.3-11.7c14.4-2.1,6.2,14.8,6.2,14.8l-69.9,7.2L794.7,1473.1z"/>
					</g>
					<g>
						<path class="st32" d="M776.6,1424.3c-1.1,5.5-2.5,10.9-3.5,16.4c-0.5,2.7-0.9,5.5-1,8.2c-0.1,2.7,0,5.4,0.8,8
							c0.3,1.3,0.9,2.4,1.5,3.6c0.7,1.1,1.4,2.1,2.4,3c1.8,1.8,4.2,2.9,6.7,3.7c5.1,1.6,10.6,1.8,16,1.4c5.5-0.3,11-1.2,16.4-2.1
							l8.3-1.3c2.8-0.4,5.5-0.8,8.3-1.2c11-1.8,21.8-4.2,32.7-7.1c-10.4,4.1-21.2,7.1-32.2,9.4c-2.7,0.6-5.5,1.1-8.3,1.5l-8.2,1.5
							c-5.5,1-11.1,1.9-16.8,2.3c-5.7,0.3-11.5,0.1-17.1-1.8c-2.8-1-5.5-2.3-7.7-4.5c-1.1-1.1-2-2.3-2.7-3.6
							c-0.7-1.3-1.2-2.8-1.5-4.2c-0.7-2.9-0.7-5.8-0.5-8.7c0.3-2.8,0.8-5.6,1.5-8.4C773,1434.9,774.9,1429.6,776.6,1424.3z"/>
					</g>
					<g>
						<path class="st33" d="M863.1,1449.9c0.1-0.2,0.1-0.4,0.2-0.5c1-2.8,4.3-12.2,8.6-8.2c1.2,1.2,2,2.9,2.6,4.4
							c-0.7-1.6,11.6-5.8,12.9-6c6.1-1.2,12.1,2,12.2,8.7c0.1,6.2-0.7,14.3-6.2,18.2c-4.9,3.5-11.3,5.1-17.1,6.3
							c-5,1-10.6-0.4-13.3-4.9C859.8,1462.3,861.1,1455.6,863.1,1449.9z"/>
					</g>
					<path class="st10" d="M829.7,1347.1c0,0,10.1-9,18.5,0H829.7z"/>
					<g>
						<g>
							<path class="st31" d="M938,1366.5c0.8,2.5,2.2,3.6,3.8,5.5c3.6,4.3,1.3,7.9,0.2,12.6c-1.5,6.1,2.8,8.9,5.7,13.8
								c3.9,6.6-2.6,13.8-1.7,20.8c0.2,1.9,0.9,3.1,2.5,4.3c2.2,1.7,5.1,1,3.3,6.3c-0.5,1.3-1.6,2.4-2.1,3.8
								c-0.8,2.5,3.1,3.5,3.9,1.1c1-3.1,3.4-4.6,3-8.2c-0.3-2.9-1.8-3.7-3.8-5.4c-2.1-1.7-3.1-2.6-2.6-5.7c0.3-2.1,1.1-4,1.7-6
								c0.8-2.8,1.5-5.8,1.1-8.8c-0.5-3.1-2.4-5.2-4.2-7.7c-1.6-2.2-3.1-4.2-2.9-7.3c0.1-1.4,1-2.9,1.3-4.3c0.7-2.8,1.1-5.7,0-8.4
								c-1.2-3-4.4-4.4-5.3-7.4C941.1,1363,937.2,1364.1,938,1366.5L938,1366.5z"/>
						</g>
					</g>
					<g>
						<g>
							<path class="st31" d="M955.5,1364.6c0,4.3,3.8,6.2,6.1,9.4c2.4,3.3,3.7,7.6,1.6,11.4c-1.2,2.1-2.9,3.7-3.8,6
								c-1.6,4-0.7,6.9,2.2,10c5.1,5.4,1.2,13,1.3,19.6c0,2.6,4,2.6,4,0c-0.1-5.5,2.3-11,1.4-16.5c-0.4-2.6-1.9-3.6-3.4-5.5
								c-3.2-4-1.9-6.4,0.6-10c2.7-3.8,3.5-7.3,2.1-11.8c-0.7-2.3-1.9-4.6-3.4-6.5c-1.4-1.8-4.7-3.8-4.7-6.2
								C959.5,1362,955.5,1362,955.5,1364.6L955.5,1364.6z"/>
						</g>
					</g>
					<g>
						<g>
							<path class="st31" d="M733.9,1363.8c-0.6,3.2-3.5,4.9-4.5,8c-0.8,2.8-0.2,5.7,0.9,8.4c0.7,1.7,2.2,3.8,2.3,5.6
								c0.2,2.2-1.3,4.3-2.3,6.1c-1.4,2.6-3.1,4.9-3.3,7.9c-0.3,3.2,0.9,6.3,2.2,9.2c0.9,2.2,2.1,4.4,2.5,6.8c0.6,3-0.7,3.2-2.5,4.9
								c-1.8,1.6-2.9,3-2.9,5.6c0.1,3.7,2.7,4.9,4.1,8c1.1,2.3,4.5,0.3,3.5-2c-0.7-1.6-3.2-3.6-3.4-5.1c-0.4-2.3,2-3.6,3.3-4.8
								c1.5-1.3,2.1-2.5,2.2-4.4c0.5-7.2-7.3-13.3-4.2-20.5c2.2-5.1,6.4-8.4,4.3-14.3c-1.4-4-4.4-7.7-1.9-12
								c1.3-2.3,3.1-3.6,3.6-6.4C738.2,1362.4,734.4,1361.3,733.9,1363.8L733.9,1363.8z"/>
						</g>
					</g>
					<g>
						<path class="st7" d="M802.7,1292.4c2.6,0.8,5.2,1.6,7.8,2.5c2.6,0.9,5.1,1.8,7.7,2.7l1.1,0.4l-1,0.5c-2.4,1.2-4.9,2.5-7.3,3.6
							l-3.7,1.7c-1.2,0.6-2.5,1.1-3.8,1.7c1.2-0.7,2.4-1.4,3.5-2.1l3.6-2c2.4-1.3,4.8-2.6,7.2-3.8l0,0.9c-2.5-1-5.1-1.9-7.6-3
							C807.7,1294.6,805.2,1293.5,802.7,1292.4z"/>
					</g>
					<g>
						<path class="st7" d="M801.6,1298.4c2.7-0.4,5.5-0.6,8.2-0.7c2.7-0.1,5.5,0,8.2,0.3c-2.7,0.4-5.5,0.6-8.2,0.7
							C807.1,1298.8,804.3,1298.8,801.6,1298.4z"/>
					</g>
					<g>
						<path class="st7" d="M869.2,1292.7c-2.5,1.1-5,2.2-7.5,3.2c-2.5,1-5.1,2-7.6,3l0-0.9c2.4,1.2,4.8,2.5,7.2,3.8l3.6,2
							c1.2,0.7,2.4,1.4,3.5,2.1c-1.3-0.5-2.5-1.1-3.8-1.7l-3.7-1.7c-2.5-1.2-4.9-2.4-7.3-3.6l-1-0.5l1.1-0.4
							c2.5-0.9,5.1-1.9,7.7-2.7C864,1294.3,866.6,1293.4,869.2,1292.7z"/>
					</g>
					<g>
						<path class="st7" d="M870.3,1298.7c-2.7,0.3-5.5,0.4-8.2,0.3c-2.7-0.1-5.5-0.2-8.2-0.7c2.7-0.3,5.5-0.4,8.2-0.3
							C864.9,1298.1,867.6,1298.3,870.3,1298.7z"/>
					</g>
				</g>
			</g>
		</g>
	</g>
	<text transform="matrix(1 0 0 1 785.619 1605.4463)" class="st1 st3">Wind</text>
	<g>
		<text transform="matrix(1 0 0 1 494.5116 2210.873)" class="st1 st3">Bed rest</text>
	</g>
	<g>
		<g>
			<g>
				
					<image style="overflow:visible;opacity:0.1;enable-background:new    ;" width="502" height="448" xlink:href="D4493BCAAAB2F2EB.png"  transform="matrix(1 0 0 1 327.4794 1694.8633)">
				</image>
				<g>
					<g>
						<g>
							<defs>
								<rect id="SVGID_1_" x="349.6" y="1718.5" width="441.1" height="387.4"/>
							</defs>
							<clipPath id="SVGID_2_">
								<use xlink:href="#SVGID_1_"  style="overflow:visible;"/>
							</clipPath>
							<path class="st34" d="M349.6,1775c0,0,11.5-56.5,60.8-56.5H749c0,0,37.8,16,40.5,43s0,335.9,0,335.9l-437.2,8.4L349.6,1775z"
								/>
						</g>
					</g>
				</g>
			</g>
			<g>
				<g>
					
						<image style="overflow:visible;opacity:0.12;enable-background:new    ;" width="315" height="231" xlink:href="D4493BCAAAB2F2E6.png"  transform="matrix(1 0 0 1 298.4794 1705.8633)">
					</image>
					<g>
						<path class="st35" d="M333.6,1877.7c0,0-10.9-51.5,0-137.3c0,0,164.1-29.1,243.4,2.6c0,0,15,101.7-2.7,138.7
							C574.2,1881.7,422.5,1921.3,333.6,1877.7z"/>
					</g>
				</g>
				<path class="st36" d="M569.4,1752.7c0,0,15.5,43.7,1.6,120.1C571,1872.8,549.2,1812.1,569.4,1752.7z"/>
			</g>
			<g>
				<g>
					
						<image style="overflow:visible;opacity:0.12;enable-background:new    ;" width="315" height="231" xlink:href="D4493BCAAAB2F2E7.png"  transform="matrix(1 0 0 1 523.4794 1705.8633)">
					</image>
					<g>
						<path class="st35" d="M558.8,1878.3c0,0-10.9-51.5,0-137.3c0,0,164.1-29.1,243.4,2.6c0,0,15,101.7-2.7,138.7
							C799.5,1882.2,647.7,1921.8,558.8,1878.3z"/>
					</g>
				</g>
				<path class="st36" d="M794.6,1753.3c0,0,15.5,43.7,1.6,120.1C796.2,1873.3,774.4,1812.6,794.6,1753.3z"/>
			</g>
			<g>
				
					<image style="overflow:visible;opacity:0.1;enable-background:new    ;" width="249" height="296" xlink:href="D4493BCAAAB2F2F8.png"  transform="matrix(1 0 0 1 362.4794 1718.8633)">
				</image>
				<g>
					<g>
						<g>
							<g id="face_19_">
								<path class="st5" d="M388.9,1850.6l3,13.2c0,0-19.4-0.6-12,19.4c0,0,2.3,16.7,18.8,15.4c0,0,7.2,42.2,73.5,42
									c0,0,7.7,0.7,18.5-0.2c6.5-0.2,12.6-1.2,18.4-2.9c29.5-9,49.2-34.3,64.2-59c0.6-5.1-0.9-10.3-5.2-13.8
									c-0.9-0.8-1.7-1.2-3-1.6c-1.7-0.4-3.8-0.8-5.5,0.1c0.8-3.8,0.3-7.6,0.6-11.7c0-1.3,0.1-2.6,0.2-3.9c0.1-2.6,0.2-5.2,0.4-7.7
									c0.1-1.3,0.1-2.7,0.2-4c0.2-4,0.4-8,0.6-12c0.4-6.3,0.8-12.6,1.2-18.8l-57.3-36.2l-82.8,42.4L388.9,1850.6z"/>
								<path class="st6" d="M388.9,1850.6l3,13.2c0,0-19.4-0.6-12,19.4c0,0,2.3,16.7,18.8,15.4c0,0,7.2,42.2,73.5,42
									c0,0,7.7,0.7,18.5-0.2c6.5-0.2,12.6-1.2,18.4-2.9c29.5-9,49.2-34.3,64.2-59c0.6-5.1-0.9-10.3-5.2-13.8
									c-0.9-0.8-1.7-1.2-3-1.6c-1.7-0.4-3.8-0.8-5.5,0.1c0.8-3.8,0.3-7.6,0.6-11.7c0-1.3,0.1-2.6,0.2-3.9c0.1-2.6,0.2-5.2,0.4-7.7
									c0.1-1.3,0.1-2.7,0.2-4c0.2-4,0.4-8,0.6-12c0.4-6.3,0.8-12.6,1.2-18.8l-57.3-36.2l-82.8,42.4L388.9,1850.6z"/>
							</g>
							<g>
								<path class="st5" d="M462.9,1943.1c0,0-4.4,24.9-17.1,29.1c-6.4,2.1,5.7,5.3,19.4,7.9c6.8,1.3,14.1,2.5,19.6,3.3
									c7.3,1,13.8-0.8,19.9-4.2c6.1-3.3,11.9-8.1,17.6-12.7c-7.9-0.4-13.8-4.4-17.7-10.3c-3.9-6-6-13.4-6.5-20.3
									c0,0-8-0.7-16.1-1.3c-8-0.7-16.1-1.3-16.1-1.3L462.9,1943.1z"/>
								<path class="st6" d="M462.9,1943.1c0,0-4.4,24.9-17.1,29.1c-6.4,2.1,5.7,5.3,19.4,7.9c6.8,1.3,14.1,2.5,19.6,3.3
									c7.3,1,13.8-0.8,19.9-4.2c6.1-3.3,11.9-8.1,17.6-12.7c-7.9-0.4-13.8-4.4-17.7-10.3c-3.9-6-6-13.4-6.5-20.3
									c0,0-8-0.7-16.1-1.3c-8-0.7-16.1-1.3-16.1-1.3L462.9,1943.1z"/>
							</g>
							<g>
								<path class="st7" d="M428.4,1848.2c2.2-1.2,4.6-2,7.1-2.6c2.5-0.6,5-0.9,7.5-0.9c2.5,0,5.1,0.3,7.5,1
									c2.5,0.6,4.8,1.8,6.8,3.2c-0.6-0.2-1.2-0.5-1.7-0.8l-0.9-0.4l-0.9-0.3l-1.8-0.6l-1.8-0.4c-2.4-0.5-4.9-0.8-7.4-0.8
									c-2.5,0-4.9,0.3-7.4,0.7c-1.2,0.2-2.4,0.5-3.6,0.8C430.8,1847.4,429.6,1847.8,428.4,1848.2z"/>
							</g>
							<g>
								<path class="st7" d="M524.1,1849.3c-1.3-0.3-2.6-0.6-4-0.8c-1.3-0.3-2.6-0.5-4-0.7c-2.6-0.4-5.3-0.7-8-0.8
									c-2.7-0.1-5.3,0-8,0.4c-1.3,0.2-2.6,0.5-3.9,1c-1.3,0.4-2.5,1-3.6,1.7c2-1.8,4.7-2.9,7.3-3.5c2.7-0.6,5.4-0.8,8.1-0.7
									c2.7,0.1,5.4,0.5,8.1,1.1C518.9,1847.6,521.5,1848.3,524.1,1849.3z"/>
							</g>
							<g>
								<path class="st7" d="M476.3,1877.4c0.1,2.3-0.1,4.6-0.5,6.8c-0.4,2.3-1,4.5-2.2,6.6l-0.9,1.4c-0.2,0.5-0.4,1-0.4,1.4
									c0,0.4,0.2,0.8,0.6,1c0.4,0.2,0.9,0.3,1.5,0.4c0.5,0.1,1,0,1.6-0.1c0.6-0.1,1.1-0.2,1.7-0.3c1.1-0.2,2.2-0.4,3.3-0.8
									c-1,0.6-2.1,0.9-3.2,1.3c-0.5,0.2-1.1,0.3-1.7,0.4c-0.3,0.1-0.5,0.1-0.9,0.2c-0.3,0-0.6,0-0.9,0c-0.6,0-1.2-0.1-1.8-0.4
									c-0.1-0.1-0.3-0.2-0.4-0.3c-0.1-0.1-0.3-0.2-0.4-0.4c-0.1-0.2-0.2-0.3-0.2-0.5c-0.1-0.2-0.1-0.4-0.1-0.5
									c0-1.4,0.9-2.4,1.4-3.3c0.6-0.9,1-1.9,1.4-3c0.4-1,0.7-2.1,1-3.2s0.5-2.2,0.7-3.3C476,1879.6,476.2,1878.5,476.3,1877.4z"/>
							</g>
							
								<ellipse transform="matrix(0.9998 -1.800068e-02 1.800068e-02 0.9998 -34.0855 7.9909)" class="st8" cx="426.8" cy="1897.4" rx="14.2" ry="12.9"/>
							<path class="st8" d="M543.1,1896.1c0.2,7-6,12.8-14,13.1c-7.9,0.2-14.4-5.4-14.6-12.5s6.1-13,14-13.2
								C536.4,1883.4,542.9,1889.1,543.1,1896.1z"/>
							<polyline class="st11" points="382.9,1858.7 396.4,1852.7 402.7,1864.9 387.9,1869.4 383.1,1859.3 							"/>
							<g>
								<path class="st12" d="M581.1,1751.4c-6.4-14.8-24.8-24.4-42.7-17.7c0,0-16.3,11.5-17.8,15.8c0,0-54.1-16.1-87.2,3.2
									c0,0-49,23.2-56.6,84.6c0,0,0.5,27.4,2.5,32.8c1.9-2.8,4.5-5,7.8-6.4l0-2.6c0,0,35.7-28.3,55.4-31.9
									c0,0,52.9-16.4,59.1-38.9c0,0,9.9,31.2,56.6,67.1l0.6,5.3c0,0,0.6-0.1,1.5,0c3.2,0,6.4,1.1,8.6,3.3c1.9,1.9,3.4,4,4.5,6.1
									c1-2.8,2.3-7.4,3.1-14.2c1.6-13.6,1.2-35.8-8.2-68.3c0,0.1,10.7-11.4,11.4-12.7C584.5,1768,584.4,1759,581.1,1751.4z"/>
							</g>
							<path class="st10" d="M468.4,1913.3c0.7-1.3,2.1-2.4,4-3.1c2.2-0.9,4.7-1.2,7.1-0.8c8.5,1.8,8.8,11.8-0.3,12.7
								c-2.4,0.2-5.2,0-7.4-1.1C467.9,1919.1,467,1915.9,468.4,1913.3z"/>
							<g>
								<path class="st7" d="M435,1862.7c1.2,1.3,2.6,2.4,4.1,3.3c1.5,0.9,3.1,1.5,4.8,1.6c1.7,0.1,3.3-0.4,4.8-1.2
									c1.5-0.8,2.9-1.9,4.2-3.2c-1,1.5-2.2,2.8-3.8,3.9c-1.5,1-3.4,1.6-5.3,1.5c-1.9-0.1-3.7-0.8-5.1-1.9
									C437.2,1865.6,435.9,1864.3,435,1862.7z"/>
							</g>
							<g>
								<path class="st7" d="M498.6,1859.7c1.2,1.3,2.6,2.4,4.1,3.3c1.5,0.9,3.1,1.5,4.8,1.6c1.7,0.1,3.3-0.4,4.8-1.2
									c1.5-0.8,2.9-1.9,4.1-3.2c-1,1.5-2.2,2.8-3.8,3.9c-1.5,1-3.4,1.6-5.3,1.5c-1.9-0.1-3.7-0.8-5.1-1.9
									C500.8,1862.5,499.5,1861.2,498.6,1859.7z"/>
							</g>
						</g>
						<g>
							<path class="st16" d="M567.6,1789.8c-2.7-4.9-5.5-9.6-8.8-13.7c-1.6-2.1-3.4-4-5.2-5.9c-1.8-1.8-3.8-3.6-5.8-5.2
								c-4.1-3.2-8.5-6.1-13.2-8.6c-4.7-2.5-9.7-4.7-14.9-6.7c5.7-0.5,11.4,0.6,16.8,2.4c5.4,1.8,10.6,4.6,15.1,8.2
								c2.2,1.8,4.4,3.8,6.3,6.1c1.9,2.2,3.5,4.6,4.9,7.2C565.6,1778.6,567.3,1784.2,567.6,1789.8z"/>
						</g>
					</g>
				</g>
			</g>
			<g>
				<path class="st37" d="M599,2073.5c0,0-25.8-133.6-16.9-179.9c8.9-46.3,130.9,195.3,130.9,195.3S655.5,2158.8,599,2073.5z"/>
				<path class="st37" d="M725.5,2061.6c9.1-37.3,12.9-77.1,11.3-115.4c-1.8-44.1-14.1-112.9-68.6-118.2
					c-37.5-3.6-69.7,20.1-83,54.2c-10.7,27.5-6.7,59.9,4.2,87c8.6,21.6,21.4,41,31.2,62c0,0,24.9,51.1,72.7,70.1
					C693.3,2101.2,716.5,2097.3,725.5,2061.6z M686.7,2095.1c-0.1,0-0.3,0-0.4,0c-0.2,0.1-0.4,0.2-0.6,0h0c-0.7,0-0.8-1.1-0.1-1.1
					c0.3,0,0.7,0,1-0.1C687.3,2093.9,687.4,2095,686.7,2095.1z"/>
				<g>
					<path class="st38" d="M704.3,1885c-5.8-36.1-47.2-36.4-47.2-36.4l2.4,100.5c0.5,0,0.9-0.1,1.2-0.1c0.2,0,0.4-0.1,0.6,0
						c47.6-10.3,44.1-44.7,44.1-44.7s4.3,6.3,6.8-5.9S704.3,1885,704.3,1885z"/>
					<path class="st38" d="M657.9,1949.3C657.9,1949.3,657.9,1949.3,657.9,1949.3c0.3,0,0.6,0.1,0.8-0.1c0.9-0.4,0.3-2,0.3-2.7
						c0-8.1,0-16.3-0.1-24.4c0-1,0-2,0-3c-0.1-11.1-0.2-23.6-0.3-35.1c0-1.2,0-2.4,0-3.6c-1.4-9.7,0.4-18.8-0.3-28.8
						c0-1.8,0-2.9,0-2.9c-7.5,0.1-15.7,1.9-21.8,5.1c-1.6,0.7-3.2,1.5-4.8,2.4c-9.6,5.5-18.6,14.7-20.7,30.3c0,0-10.7,1.6-7.7,13.7
						c2.9,12.2,7.2,5.7,7.2,5.7s-1.7,24,26.1,37c1.2,0.6,2.5,1.1,3.8,1.6c3.4,1.3,6.9,2.7,10.5,3.6
						C653.1,1948.8,655.4,1949.1,657.9,1949.3z"/>
				</g>
				<path class="st39" d="M652,1855.4c0,0-18.9,17.1,3.9,25.5c0,0,1.3,4.2-2.8,6.9c0,0,27.2-9.6,8.3-32.6
					C661.3,1855.1,653.7,1853.7,652,1855.4z"/>
				<g>
					<path class="st7" d="M630.3,1893.8c1.1,1.3,2.4,2.5,3.8,3.4c1.4,0.9,3,1.5,4.6,1.5c0.4,0.1,0.8,0,1.2,0c0.2,0,0.4,0,0.6-0.1
						l0.6-0.2c0.4-0.1,0.8-0.2,1.2-0.3c0.4-0.2,0.8-0.3,1.2-0.5c0.4-0.1,0.7-0.4,1.1-0.6l1.1-0.6c0.7-0.5,1.4-1,2.1-1.5
						c-0.6,0.7-1.2,1.3-1.8,1.9c-0.7,0.5-1.4,1.1-2.2,1.5c-1.5,0.9-3.3,1.4-5.2,1.4c-1.8-0.1-3.6-0.8-5-1.9
						C632.3,1896.8,631.1,1895.4,630.3,1893.8z"/>
				</g>
				<g>
					<path class="st7" d="M670,1894.8c0.7,1.3,1.5,2.6,2.7,3.4c1.1,0.8,2.5,1.1,3.9,0.8c0.7,0,1.3-0.4,2-0.6c0.6-0.3,1.3-0.6,1.9-1
						c0.6-0.4,1.3-0.7,1.9-1.2c0.6-0.4,1.2-0.9,1.8-1.3c-0.5,0.6-1,1.1-1.5,1.6c-0.5,0.5-1.2,1-1.8,1.4c-0.6,0.5-1.3,0.8-2,1.2
						c-0.7,0.2-1.5,0.6-2.2,0.7c-0.4,0.1-0.8,0.1-1.2,0.1c-0.4,0-0.8,0-1.2-0.2c-0.4-0.1-0.8-0.2-1.1-0.4c-0.2-0.1-0.4-0.2-0.5-0.3
						l-0.5-0.4C671,1897.7,670.3,1896.3,670,1894.8z"/>
				</g>
				
					<ellipse transform="matrix(0.9983 -5.800096e-02 5.800096e-02 0.9983 -109.8772 39.7728)" class="st40" cx="630.2" cy="1912.7" rx="6" ry="3.3"/>
				<ellipse class="st40" cx="682.5" cy="1913.3" rx="5.7" ry="3.1"/>
				<g>
					<path class="st41" d="M653.3,1858.2c-0.5,1-1,2-1.4,3.1c-0.4,1-0.8,2.1-1.1,3.2c-0.6,2.1-0.9,4.4-0.2,6.4
						c0.3,1,0.9,1.9,1.7,2.6c0.4,0.3,0.8,0.7,1.3,1c0.5,0.3,0.9,0.8,1.3,1.1c0.8,0.8,1.6,1.8,2,2.9c0.2,0.6,0.3,1.2,0.2,1.8
						c-0.1,0.6-0.3,1.2-0.7,1.6c0.3-0.5,0.5-1,0.5-1.6c0-0.6-0.2-1.1-0.4-1.6c-0.5-1-1.3-1.8-2.1-2.5c-0.5-0.3-0.9-0.7-1.3-1
						c-0.5-0.3-0.9-0.6-1.4-1c-0.9-0.8-1.6-1.8-2-3c-0.7-2.4-0.3-4.8,0.5-7C650.8,1862,651.9,1860,653.3,1858.2z"/>
				</g>
				<g>
					<path class="st41" d="M658.1,1858.2c-0.2,2.1-0.4,4.1-0.6,6.2c-0.1,2-0.2,4.1,0.1,6.1c0.1,1,0.4,2,1,2.5l0.6,0.5
						c0.2,0.2,0.4,0.5,0.6,0.7c0.3,0.6,0.4,1.1,0.4,1.7c-0.1,2.2-1.3,4.1-2.5,5.7c0.5-0.9,0.9-1.9,1.2-2.8c0.3-1,0.6-2,0.5-2.9
						c0-0.5-0.2-0.9-0.3-1.3c-0.2-0.2-0.2-0.4-0.4-0.5l-0.6-0.4c-0.5-0.4-0.8-1-1-1.5c-0.2-0.5-0.3-1.1-0.4-1.6
						c-0.3-2.1-0.1-4.2,0.2-6.3C657,1862.3,657.5,1860.2,658.1,1858.2z"/>
				</g>
				<g>
					<path class="st41" d="M661.4,1858c0.1,1.2,0.1,2.4,0.2,3.6c0.1,1.2,0.1,2.4,0.3,3.6c0.2,1.2,0.3,2.4,0.6,3.5
						c0.1,0.6,0.3,1.1,0.5,1.6c0.2,0.5,0.5,0.9,0.9,1.1c0.2,0.1,0.3,0.1,0.6,0c0.3-0.1,0.7-0.2,1.3,0.1c0.3,0.1,0.4,0.4,0.5,0.7
						c0,0.2,0,0.4,0,0.6c0,0.4-0.1,0.7-0.2,1c-0.5,1.2-1.1,2.2-1.8,3.2c-0.7,1-1.5,1.9-2.3,2.8c-0.4,0.4-0.9,0.8-1.4,1.2
						c-0.5,0.4-1,0.7-1.6,0.8c1.1-0.5,1.9-1.4,2.6-2.4c0.8-0.9,1.5-1.9,2.1-2.9c0.6-1,1.2-2,1.6-3.1c0.1-0.3,0.2-0.5,0.2-0.8
						c0-0.2,0-0.4,0-0.3c0,0-0.2,0-0.5,0c-0.3,0.1-0.8,0.1-1.2,0c-0.8-0.3-1.2-1-1.4-1.6c-0.3-0.6-0.4-1.2-0.6-1.8
						c-0.2-1.2-0.4-2.4-0.4-3.7C661,1862.8,661.1,1860.4,661.4,1858z"/>
				</g>
				<ellipse class="st10" cx="657.6" cy="1925.7" rx="6.5" ry="4.1"/>
			</g>
			<g>
				
					<image style="overflow:visible;opacity:0.2;enable-background:new    ;" width="531" height="210" xlink:href="D4493BCAAAB2F2FB.png"  transform="matrix(1 0 0 1 312.4794 1963.8633)">
				</image>
				<g>
					<rect x="334.5" y="1986.9" class="st42" width="471" height="150"/>
				</g>
			</g>
			<g>
				
					<image style="overflow:visible;opacity:0.1;enable-background:new    ;" width="563" height="164" xlink:href="AE95A44AABDD1BD7.png"  transform="matrix(1 0 0 1 299.4794 1918.8633)">
				</image>
				<g>
					<path class="st43" d="M334.6,2043.9c34.1,0,69-7,103.4-4.1c3.8,1,7.6,1.9,11.5,2.7c11.5,2.4,23,4.2,34.4,5.2
						c5.1,0.5,10.2,0.8,15.3,1.1c19.4,0.1,38.6,0.1,58.1-1.6c3.9-0.3,7.8-0.8,11.7-1.2c6.7-1.1,14.4-3.1,21.4-2.1
						c4.3,0.2,8.5,0.3,12.8,0.3c4.3,0,8.5,0,12.8-0.1c14.3-0.1,28.2-3,42.1-5.7c4.6-0.9,9.2-1.8,13.9-2.6c7.3-0.9,15-2.9,22-0.9
						c13,2.1,26.3,5.2,39.5,7.8c4.4,0.9,8.8,1.7,13.3,2.5c27,4.7,63.4,20.7,81.5-15.3c12.6-25,5.6-64-14-78
						c-23.1-17-50.3-6-75.3-13.2c-4.6-0.9-9.2-1.9-13.8-2.8c-13.8-2.8-27.7-5.3-41.7-3.7c-7.2,1-14.2,2.7-21.4,4.6
						s-14.4,4.2-21.8,6.2c-7.7,2-15.4,3-23.1,3.3c-4.6,0.1-9.2,0.1-13.8,0c-9.2-0.2-18.5-0.7-27.8-1.8c-5,0-9.9,0.3-14.8,0.6
						c-4.7,0.6-9.5,1.2-14.2,1.8c-18.9,3-38.5,2-57.2-0.7c-4.8-0.4-9.5-1-14.2-1.6c-14.2-1.9-28.5-4.6-42.9-8
						c-4.1-0.6-8.3-1.2-12.4-1.7c-3.1-0.4-6.2-0.8-9.3-1.1c-30.4-3.8-66.1-5.8-88.4,29.2c-9.1,16-9.1,38-4.9,56
						c1.4,3,2.8,7,4.2,10.1C324.2,2035,328.6,2040.2,334.6,2043.9z"/>
				</g>
			</g>
		</g>
		<text transform="matrix(0.9982 0 0 1 704.2762 1822.2314)" class="st1 st44">Z</text>
		<text transform="matrix(0.9982 0 0 1 722.2987 1809.1719)" class="st1 st45">Z</text>
		<text transform="matrix(0.9982 0 0 1 743.2987 1791.4678)" class="st1 st46">Z</text>
	</g>
</g>
</svg>
