<?xml version="1.0" encoding="utf-8"?>
<!-- Generator: Adobe Illustrator 23.0.3, SVG Export Plug-In . SVG Version: 6.00 Build 0)  -->
<svg version="1.1" id="aa6a79dc-91b4-4c18-945f-8bd34f390323"
	 xmlns="http://www.w3.org/2000/svg" xmlns:xlink="http://www.w3.org/1999/xlink" x="0px" y="0px" viewBox="0 0 300 300"
	 style="enable-background:new 0 0 300 300;" xml:space="preserve">
<style type="text/css">
	.st0{fill:#F1F1F1;}
	.st1{fill:#3F3D56;stroke:#3F3D56;stroke-width:2;stroke-miterlimit:10;}
	.st2{fill:none;stroke:#FFFFFF;stroke-width:2;stroke-miterlimit:10;}
	.st3{fill:#6C63FF;}
	.st4{opacity:0.2;enable-background:new    ;}
	.st5{fill:none;stroke:#3F3D56;stroke-width:2;stroke-miterlimit:10;}
	.st6{fill:#3F3D56;}
	.st7{fill:#2F2E41;}
	.st8{fill:#FFB9B9;}
	.st9{opacity:0.1;enable-background:new    ;}
</style>
<title>decide</title>
<circle class="st0" cx="56.1" cy="35.2" r="6.3"/>
<circle class="st0" cx="85.2" cy="48.9" r="4"/>
<circle class="st0" cx="112.1" cy="60.9" r="2.8"/>
<circle class="st0" cx="245.8" cy="35.2" r="6.3"/>
<circle class="st0" cx="216.7" cy="48.9" r="4"/>
<circle class="st0" cx="189.8" cy="60.9" r="2.8"/>
<ellipse class="st0" cx="153.8" cy="249.3" rx="33.8" ry="3.8"/>
<polygon class="st0" points="274,227.9 45.7,226.4 48,69.9 276.3,73.3 "/>
<polygon class="st1" points="299.7,26.6 187.6,71.9 187.6,226.3 299.7,273.7 "/>
<line class="st2" x1="196.9" y1="193.3" x2="277.4" y2="211.9"/>
<line class="st2" x1="196.9" y1="181.1" x2="277.4" y2="193.3"/>
<line class="st2" x1="196.9" y1="168.1" x2="277.4" y2="176.7"/>
<polygon class="st3" points="267.3,124.3 267.3,143 202.7,138.6 202.7,124.3 "/>
<polygon class="st4" points="267.3,124.3 267.3,143 202.7,138.6 202.7,137.9 265.9,141.5 265.9,124.3 "/>
<polygon class="st1" points="0.3,26.6 112.4,71.9 112.4,226.3 0.3,273.7 "/>
<line class="st2" x1="103.1" y1="193.3" x2="22.6" y2="211.9"/>
<line class="st2" x1="103.1" y1="181.1" x2="22.6" y2="193.3"/>
<line class="st2" x1="103.1" y1="168.1" x2="22.6" y2="176.7"/>
<polygon class="st3" points="32.7,124.3 32.7,143 97.3,138.6 97.3,124.3 "/>
<polygon class="st4" points="32.7,124.3 32.7,143 97.3,138.6 97.3,137.9 34.1,141.5 34.1,124.3 "/>
<line class="st5" x1="122.8" y1="84.4" x2="179" y2="85.1"/>
<polygon class="st6" points="125.1,87.2 125.6,86.7 123.1,84.4 125.7,82.1 125.2,81.6 122.1,84.4 "/>
<polygon class="st6" points="176.7,87.9 176.2,87.4 178.8,85.1 176.3,82.7 176.8,82.2 179.8,85.1 "/>
<circle class="st6" cx="150.9" cy="84.7" r="4.7"/>
<path class="st7" d="M144.7,234.1c0,0-1.3,5.6-0.9,7.7c0.4,2.1,0.4,6.8,0.4,6.8h1.3v-5.1c0,0,3.4,1.7,4.3,4.3
	c0.9,2.6,9.8,1.7,10.3,0.9c0.4-0.9-4.3-2.6-4.3-2.6l-3.8-11.5L144.7,234.1z"/>
<path class="st7" d="M141.7,183.6c0,0,2.1,7.7,2.1,10.7s-1.7,41.5,0,41.5s8.6,0.9,9-0.9c0.4-1.7-0.9-17.5,0-19.2
	c0.9-1.7,6.8-38,6.4-38.5C158.8,176.8,143.8,175.5,141.7,183.6z"/>
<path class="st6" d="M140.8,176.4c0,0-3.8,10.3-0.4,10.3c3.4,0,5.6-3,8.1-2.1c2.6,0.9,10.3-9.8,10.3-9.8L140.8,176.4z"/>
<circle class="st8" cx="156.8" cy="126.6" r="6.8"/>
<path class="st8" d="M160.3,128.7c0,0-3,9.8-2.1,11.1c0.9,1.3-8.1-0.4-8.1-0.4s3-8.1,2.6-9.8C152.1,127.9,160.3,128.7,160.3,128.7z"
	/>
<path class="st3" d="M155.3,135.3c0,0-3.8-1.3-5.1,0s-6,31.6-9,34.6c-3,3-5.1,7.3-2.6,7.7c2.6,0.4,23.5,3,24.4,1.7
	c0.9-1.3,0.6-13.9,0.2-16.9C162.8,159.5,159.6,135.8,155.3,135.3z"/>
<polygon class="st8" points="151.9,177.7 153.6,181.9 157.5,178.9 157.1,176 "/>
<path class="st9" d="M150,142.4c0,0-0.2-5.3-2.8,1.5c-2.6,6.8-8.1,15.8-3.4,22.7c4.7,6.8,4.8,9.8,7.1,9.6c2.2-0.2,9.2,2.4,9.2,1.5
	s-8.1-14.1-8.1-14.1c-0.4-2.5,0.4-5,2.1-6.8C157.1,153.7,155.6,143.7,150,142.4z"/>
<path class="st3" d="M152.8,137c0,0-4.7-0.9-7.3,6c-2.6,6.8-8.1,15.8-3.4,22.7s7.1,13.7,9.3,13.5c2.2-0.2,6.9-1.5,6.9-2.3
	s-8.1-14.1-8.1-14.1c-0.4-2.5,0.4-5,2.1-6.8C155.3,152.9,158.3,138.3,152.8,137z"/>
<path class="st7" d="M154.7,116.3c-3.5-0.5-7,1.7-8.9,4.7c-1.9,3-2.7,6.6-3.2,10.1c-0.1,1.1-0.3,2.1-0.7,3.1c-0.9,2-2.8,3.4-3.1,5.5
	c-0.2,1.3,0.3,2.7,0.6,4c0.7,3.5-0.3,7.2-2.2,10.3c-0.8,1.4-2.1,2.7-3.7,2.8l3.3,0.5c-0.6,1.2-1.5,2.2-2.8,2.8
	c8.2-1,14.5-7.9,14.8-16.1c0-1.2,0-2.5,0.6-3.5c0.6-0.9,1.6-1.4,2.5-1.9c3.1-1.8,5.7-4.9,6.1-8.5c0.2-1.6-0.1-3.1-0.1-4.7
	c-0.1-1.7,2.7-2.8,3.1-4.4C161.7,118.6,156.9,116.7,154.7,116.3z"/>
</svg>
