<svg xmlns="http://www.w3.org/2000/svg" xmlns:xlink="http://www.w3.org/1999/xlink" width="50" height="50" viewBox="0 0 191.027 164.847">
  <defs>
    <linearGradient id="linear-gradient" x1="0.685" y1="3.473" x2="-0.233" y2="10.928" gradientUnits="objectBoundingBox">
      <stop offset="0" stop-opacity="0"/>
      <stop offset="0.98"/>
    </linearGradient>
    <linearGradient id="linear-gradient-2" x1="0.853" y1="0.786" x2="1.035" y2="-1.839" xlink:href="#linear-gradient"/>
    <linearGradient id="linear-gradient-3" x1="0.522" y1="0.218" x2="-0.056" y2="-1.698" xlink:href="#linear-gradient"/>
    <linearGradient id="linear-gradient-4" x1="0.405" y1="1.229" x2="1.246" y2="-1.193" xlink:href="#linear-gradient"/>
    <linearGradient id="linear-gradient-5" x1="0.461" y1="56.595" x2="0.662" y2="-69.645" xlink:href="#linear-gradient"/>
    <linearGradient id="linear-gradient-6" x1="0.449" y1="49.064" x2="0.65" y2="-77.176" xlink:href="#linear-gradient"/>
    <linearGradient id="linear-gradient-7" x1="0.437" y1="41.528" x2="0.638" y2="-84.71" xlink:href="#linear-gradient"/>
    <linearGradient id="linear-gradient-8" x1="0.453" y1="43.232" x2="0.728" y2="-83.009" xlink:href="#linear-gradient"/>
    <linearGradient id="linear-gradient-9" x1="0.437" y1="35.695" x2="0.712" y2="-90.545" xlink:href="#linear-gradient"/>
    <linearGradient id="linear-gradient-10" x1="0.421" y1="28.161" x2="0.695" y2="-98.079" xlink:href="#linear-gradient"/>
    <linearGradient id="linear-gradient-11" x1="0.427" y1="39.584" x2="0.701" y2="-86.657" xlink:href="#linear-gradient"/>
    <linearGradient id="linear-gradient-12" x1="0.41" y1="32.047" x2="0.685" y2="-94.193" xlink:href="#linear-gradient"/>
    <linearGradient id="linear-gradient-13" x1="0.394" y1="24.516" x2="0.668" y2="-101.724" xlink:href="#linear-gradient"/>
    <linearGradient id="linear-gradient-14" x1="0.241" y1="1.949" x2="1.241" y2="1.305" xlink:href="#linear-gradient"/>
    <linearGradient id="linear-gradient-15" x1="2.915" y1="0.177" x2="3.916" y2="0.177" gradientUnits="objectBoundingBox">
      <stop offset="0" stop-color="#ecc4d7"/>
      <stop offset="0.42" stop-color="#efd4d1"/>
      <stop offset="1" stop-color="#f2eac9"/>
    </linearGradient>
    <linearGradient id="linear-gradient-16" x1="1.782" y1="-37.546" x2="1.776" y2="-46.591" xlink:href="#linear-gradient"/>
    <linearGradient id="linear-gradient-17" x1="324.235" y1="-2.609" x2="325.877" y2="-2.597" xlink:href="#linear-gradient-15"/>
    <linearGradient id="linear-gradient-18" x1="171.957" y1="-2.159" x2="171.778" y2="-2.222" xlink:href="#linear-gradient-15"/>
    <linearGradient id="linear-gradient-19" x1="6.834" y1="0.457" x2="7.84" y2="0.457" xlink:href="#linear-gradient-15"/>
    <linearGradient id="linear-gradient-20" x1="0.92" y1="-0.554" x2="2.67" y2="-1.251" xlink:href="#linear-gradient"/>
  </defs>
  <g id="notes" transform="translate(0 -0.003)">
    <path id="Path_116" data-name="Path 116" d="M76.032,6.424c7.051,1.8,13.61,5.765,20.923,5.74,7.079-.022,13.407-3.767,19.913-6.347C126.394,2.037,136.839.654,147.19.152c8.532-.415,17.46-.175,25.055,3.469s13.034,10.5,16.116,17.922,3.984,15.456,4.332,23.4c.278,6.72.209,13.518,1.823,20.077,2.227,9.056,7.564,17.143,11.84,25.547,3.421,6.72,6.227,13.844,6.915,21.255s-.9,15.189-5.59,21.23c-7.015,9.045-19.646,12.792-31.616,13.758-6.712.54-13.641.418-19.921,2.661-4.234,1.509-7.953,4.023-12,5.918-8.073,3.783-17.26,5.036-26.293,5.473a160.886,160.886,0,0,1-67.283-11.23,32.366,32.366,0,0,1-8.928-4.844,24.694,24.694,0,0,1-6.294-8.886,47.966,47.966,0,0,1-.735-38.033c3.714-9,10.3-17.658,9.226-27.237-1.612-14.27-15.868-26.895-9.874-42C40.3,12.685,57.5,1.695,76.032,6.424Z" transform="translate(-22.396)" fill="#fff" opacity="0.247"/>
    <path id="Path_117" data-name="Path 117" d="M157.088,557.317c-1.269.359-2.711.874-3.154,2.116a2.8,2.8,0,0,0,1.294,3.1,7.284,7.284,0,0,0,3.463.93,86.681,86.681,0,0,0,10.857-.025l22.385-.994c4.379-.192,9.022-.473,12.616-2.984.557-.387,1.113-.96.994-1.62a1.737,1.737,0,0,0-1-1.069c-3.9-2.171-8.666-1.762-13.129-2.088-5.888-.431-11.709-2.286-17.644-2.041C168.135,552.862,162.525,555.771,157.088,557.317Z" transform="translate(-110.996 -398.777)" opacity="0.52" fill="url(#linear-gradient)"/>
    <path id="Path_118" data-name="Path 118" d="M0,114.624l1.141-.5H53.478v37.331s0,5.971-4.332,8.391C47.375,160.836,0,114.624,0,114.624Z" transform="translate(0 -82.349)" fill="#f5ddd0"/>
    <path id="Path_119" data-name="Path 119" d="M52.69,115.93v38.776a7.642,7.642,0,0,1-7.642,7.639H0V115.93Z" transform="translate(0 -83.655)" fill="#f5ddd0"/>
    <path id="Path_120" data-name="Path 120" d="M52.69,115.93v38.776a7.642,7.642,0,0,1-7.642,7.639H0V115.93Z" transform="translate(0 -83.655)" fill="url(#linear-gradient-2)"/>
    <path id="Path_121" data-name="Path 121" d="M166.337,255.22a7.642,7.642,0,0,1-7.642,7.639H157.49c2.67-.86,2.325-5.6,2.325-5.6C164.809,258.124,166.337,255.22,166.337,255.22Z" transform="translate(-113.647 -184.169)" fill="#f5ddd0"/>
    <rect id="Rectangle_170" data-name="Rectangle 170" width="52.687" height="46.415" transform="translate(69.721 43.466)" fill="#f5ddd0"/>
    <rect id="Rectangle_171" data-name="Rectangle 171" width="52.687" height="46.415" transform="translate(69.721 43.466)" fill="url(#linear-gradient-3)"/>
    <rect id="Rectangle_172" data-name="Rectangle 172" width="52.687" height="46.415" transform="translate(129.407 24.7)" fill="#f5ddd0"/>
    <rect id="Rectangle_173" data-name="Rectangle 173" width="52.687" height="46.415" transform="translate(129.407 24.7)" fill="url(#linear-gradient-4)"/>
    <path id="Path_122" data-name="Path 122" d="M83.22,83.851l-7.463,17.115c0-.175,0-.351-.017-.523-.418.156-.7-.315-.835-.743-.228-.679-.515-1.509-1.172-1.462a1.952,1.952,0,0,0-.977.557,2.35,2.35,0,0,1-.966.637.534.534,0,0,1-.64-.4h0a.512.512,0,0,1,0-.206l-.7.459c-.671.437-.351-.576-.5-.913a3.062,3.062,0,0,0-1.1.69L76.714,81Z" transform="translate(-49.683 -58.449)" fill="#f5ddd0" opacity="0.34"/>
    <path id="Path_123" data-name="Path 123" d="M310.642,150.342c.159-.07.315-.148.47-.231-.315-.317,0-.766.331-1.075.526-.484,1.164-1.086.852-1.67a1.9,1.9,0,0,0-.921-.66,2.324,2.324,0,0,1-.974-.618.532.532,0,0,1,.278-.835c-.237-.148-.47-.3-.7-.448-.676-.432.381-.557.624-.835a3.034,3.034,0,0,0-1.077-.721l18.251-.209a1.478,1.478,0,0,0-.278.777c0,.3.47.515.61.746.017.031.031.061.045.092l.075.354a1.29,1.29,0,0,1-.234.668,3.391,3.391,0,0,0-.512.913,1.746,1.746,0,0,0,.225,1.166,2.235,2.235,0,0,0,1.3,1.239h.056l.234,1.114Z" transform="translate(-223.355 -103.218)" fill="#f5ddd0" opacity="0.34"/>
    <path id="Path_124" data-name="Path 124" d="M525.51,67.653c.175,0,.351.019.526.019-.125-.426.362-.674.8-.785.693-.175,1.542-.4,1.545-1.058a1.883,1.883,0,0,0-.5-1.019,2.351,2.351,0,0,1-.557-1.008.532.532,0,0,1,.44-.61.54.54,0,0,1,.212,0l-.406-.732c-.387-.7.6-.306.949-.434a3.062,3.062,0,0,0-.6-1.147l16.13,8.521a1.506,1.506,0,0,0-.61.557c-.145.278.173.676.181.947a.32.32,0,0,1,0,.1l-.095.342a1.392,1.392,0,0,1-.526.479,3.191,3.191,0,0,0-.885.557,1.746,1.746,0,0,0-.359,1.133,2.241,2.241,0,0,0,.557,1.712.181.181,0,0,0,.044.036l-.331,1.094Z" transform="translate(-379.216 -43.93)" fill="#f5ddd0" opacity="0.34"/>
    <path id="Path_125" data-name="Path 125" d="M83.22,83.851l-7.463,17.115c0-.175,0-.351-.017-.523-.418.156-.7-.315-.835-.743-.228-.679-.515-1.509-1.172-1.462a1.952,1.952,0,0,0-.977.557,2.35,2.35,0,0,1-.966.637.534.534,0,0,1-.64-.4h0a.512.512,0,0,1,0-.206l-.7.459c-.671.437-.351-.576-.5-.913a3.062,3.062,0,0,0-1.1.69L76.714,81Z" transform="translate(-49.683 -58.449)" fill="#fff" opacity="0.34"/>
    <path id="Path_126" data-name="Path 126" d="M310.642,150.342c.159-.07.315-.148.47-.231-.315-.317,0-.766.331-1.075.526-.484,1.164-1.086.852-1.67a1.9,1.9,0,0,0-.921-.66,2.324,2.324,0,0,1-.974-.618.532.532,0,0,1,.278-.835c-.237-.148-.47-.3-.7-.448-.676-.432.381-.557.624-.835a3.034,3.034,0,0,0-1.077-.721l18.251-.209a1.478,1.478,0,0,0-.278.777c0,.3.47.515.61.746.017.031.031.061.045.092l.075.354a1.29,1.29,0,0,1-.234.668,3.391,3.391,0,0,0-.512.913,1.746,1.746,0,0,0,.225,1.166,2.235,2.235,0,0,0,1.3,1.239h.056l.234,1.114Z" transform="translate(-223.355 -103.218)" fill="#fff" opacity="0.34"/>
    <path id="Path_127" data-name="Path 127" d="M525.51,67.653c.175,0,.351.019.526.019-.125-.426.362-.674.8-.785.693-.175,1.542-.4,1.545-1.058a1.883,1.883,0,0,0-.5-1.019,2.351,2.351,0,0,1-.557-1.008.532.532,0,0,1,.44-.61.54.54,0,0,1,.212,0l-.406-.732c-.387-.7.6-.306.949-.434a3.062,3.062,0,0,0-.6-1.147l16.13,8.521a1.506,1.506,0,0,0-.61.557c-.145.278.173.676.181.947a.32.32,0,0,1,0,.1l-.095.342a1.392,1.392,0,0,1-.526.479,3.191,3.191,0,0,0-.885.557,1.746,1.746,0,0,0-.359,1.133,2.241,2.241,0,0,0,.557,1.712.181.181,0,0,0,.044.036l-.331,1.094Z" transform="translate(-379.216 -43.93)" fill="#fff" opacity="0.34"/>
    <rect id="Rectangle_174" data-name="Rectangle 174" width="35.9" height="0.949" transform="translate(137.8 42.993)" fill="url(#linear-gradient-5)"/>
    <rect id="Rectangle_175" data-name="Rectangle 175" width="35.9" height="0.949" transform="translate(137.8 50.117)" fill="url(#linear-gradient-6)"/>
    <rect id="Rectangle_176" data-name="Rectangle 176" width="35.9" height="0.949" transform="translate(137.8 57.243)" fill="url(#linear-gradient-7)"/>
    <rect id="Rectangle_177" data-name="Rectangle 177" width="26.363" height="0.949" transform="translate(13.162 47.881)" fill="url(#linear-gradient-8)"/>
    <rect id="Rectangle_178" data-name="Rectangle 178" width="26.363" height="0.949" transform="translate(13.162 55.008)" fill="url(#linear-gradient-9)"/>
    <rect id="Rectangle_179" data-name="Rectangle 179" width="26.363" height="0.949" transform="translate(13.162 62.135)" fill="url(#linear-gradient-10)"/>
    <rect id="Rectangle_180" data-name="Rectangle 180" width="26.363" height="0.949" transform="translate(82.46 55.484)" fill="url(#linear-gradient-11)"/>
    <rect id="Rectangle_181" data-name="Rectangle 181" width="26.363" height="0.949" transform="translate(82.46 62.611)" fill="url(#linear-gradient-12)"/>
    <rect id="Rectangle_182" data-name="Rectangle 182" width="26.363" height="0.949" transform="translate(82.46 69.735)" fill="url(#linear-gradient-13)"/>
    <path id="Path_128" data-name="Path 128" d="M189.27,232.924s9.482-16.522,12.806-21.75l2.132-2.583,2.091,3.555.047,2.862L197.6,231.49S191.347,237.208,189.27,232.924Z" transform="translate(-136.58 -150.52)" fill="#f5ddd0"/>
    <path id="Path_129" data-name="Path 129" d="M223.925,210.16,213.5,231.342l7.458-9.479,2.881-5.712Z" transform="translate(-154.065 -151.653)" fill="url(#linear-gradient-14)"/>
    <path id="Path_130" data-name="Path 130" d="M292.343,200.111a2.847,2.847,0,0,1,.537,1.89c1.269-1.041,1.289-3.229,2.734-4.012a7.127,7.127,0,0,1-.437,2.459c.46-.947,1.025-1.991,2.035-2.292a6.681,6.681,0,0,1-1.15,3l1.317-1.331c.117-.12.278-.251.437-.17s.117.356.031.54l-1.453,3.107a7.928,7.928,0,0,1,1.489-.947l-1.6,2.628a4.5,4.5,0,0,1-.663.921c-.593.6-1.537.944-1.74,1.759.045-.175-2.294-.921-2.458-1.175-.278-.437.234-1.356.292-1.879C291.886,203.14,291.485,201.442,292.343,200.111Z" transform="translate(-210.239 -142.871)" fill="url(#linear-gradient-15)"/>
    <path id="Path_131" data-name="Path 131" d="M190.258,397.314l3.213,23.4a6.258,6.258,0,0,1-.3,2.926L189.6,440.115l-5.529-.585,2.531-16.834a2.38,2.38,0,0,0-.064-1.038l-4.359-15.033-.835,17.026L174.2,438.128l-5.011-2,6.364-13.017-1.022-16.079a19.906,19.906,0,0,1,.749-9.727Z" transform="translate(-122.09 -286.696)" fill="#3f3d56"/>
    <rect id="Rectangle_183" data-name="Rectangle 183" width="14.988" height="2.492" transform="translate(53.18 108.127)" fill="#f5ddd0"/>
    <rect id="Rectangle_184" data-name="Rectangle 184" width="14.988" height="2.492" transform="translate(53.18 108.127)" fill="url(#linear-gradient-16)"/>
    <path id="Path_132" data-name="Path 132" d="M218.428,228.834l-14.1,23.29-.735,17.48c0,1.67-.067,3.062-1.308,3.444a2.586,2.586,0,0,1-.743.1H189.067a3.569,3.569,0,0,1-3.569-3.555h0V253.521s-.919-9.106,3.4-9.106h8.649a6.82,6.82,0,0,0,5.364-2.6l11.542-15.208Z" transform="translate(-133.799 -163.523)" fill="#f5ddd0"/>
    <rect id="Rectangle_185" data-name="Rectangle 185" width="4.326" height="10.999" transform="translate(58.733 69.98)" fill="url(#linear-gradient-17)"/>
    <path id="Path_133" data-name="Path 133" d="M211,247.05v12.2h2.283v-.743a1.648,1.648,0,0,1,1.648-1.648h.131a4.1,4.1,0,0,0,4.1-4.1h0V247.05Z" transform="translate(-152.261 -178.273)" fill="url(#linear-gradient-18)"/>
    <path id="Path_134" data-name="Path 134" d="M245.333,202.161c.086-.181.15-.37.245-.557a3.923,3.923,0,0,1,.724-.894l.9-.919a.437.437,0,0,1,.245-.156c.187-.022.317.206.278.39a1.178,1.178,0,0,1-.278.468,4.176,4.176,0,0,0-.835,2.063,17.793,17.793,0,0,0-.1,2.247,1.375,1.375,0,0,1-.145.713,20.412,20.412,0,0,0-.941-1.818c-.12-.2-.484-.593-.5-.818S245.255,202.359,245.333,202.161Z" transform="translate(-176.745 -144.057)" fill="url(#linear-gradient-19)"/>
    <path id="Path_135" data-name="Path 135" d="M215.868,234.81a3.062,3.062,0,0,0-1.411-2.06v.626c-1.617-.782-3.552-.167-5.325-.459a2.505,2.505,0,0,1,.49.735,7.479,7.479,0,0,0-3.34.787l.278.407a.309.309,0,0,1,.064.145c0,.109-.1.181-.189.248a2.019,2.019,0,0,0-.529,1.743,27.038,27.038,0,0,0,1.075,5.6c.187.7.37,1.392.557,2.1l.39-.537.37.259c.507-.785,2.717-.949,2.917-1.862a1.661,1.661,0,0,1-1.161-1.453c.061-.571.245-.7.788-.515.379.125-.242-.649-.309-.963s-.209-.635-.053-.9c.214-.376.774-.278,1.175-.122a2.441,2.441,0,0,1,2.433-1.631c.557.042,1.094.379,1.462-.15A2.894,2.894,0,0,0,215.868,234.81Z" transform="translate(-148.58 -167.954)" fill="#3f3d56"/>
    <path id="Path_136" data-name="Path 136" d="M255,233.251l-14.1,23.29-.735,17.48c0,1.67.031,3.291-1.72,3.541H236.1s1.982-19.988,1.617-21.926,16.313-22.905,16.313-22.905Z" transform="translate(-170.374 -167.94)" fill="url(#linear-gradient-20)"/>
    <path id="Path_137" data-name="Path 137" d="M223.5,549.32l-.966,4.176h12.527s.131-2.066-2.453-2.784a10.083,10.083,0,0,0-4.777-.131l-.331-.835Z" transform="translate(-160.581 -396.396)" fill="#3f3d56"/>
    <path id="Path_138" data-name="Path 138" d="M167.155,538.21l-2.2,3.341,2.583,1.506.816-.429,1.851,1.893,6.5.214s-.429-3.252-3.444-3.26-2.748-1.921-2.748-1.921Z" transform="translate(-119.031 -388.379)" fill="#3f3d56"/>
  </g>
</svg>
