<svg xmlns="http://www.w3.org/2000/svg" viewBox="0 0 133.11 129.41"><defs><style>.cls-1{fill:#f5f3b5;}.cls-2{fill:#eae8a3;}.cls-3{fill:#e5e29f;}.cls-4{fill:#edeaa4;}.cls-5{fill:#cce4e2;}.cls-6{fill:#f5f2a9;}.cls-7{fill:#fff;}</style></defs><title>moon</title><g id="Layer_2" data-name="Layer 2"><g id="Layer_1-2" data-name="Layer 1"><path class="cls-1" d="M64.52,4.71c.33,4.25,5,9.57,6.9,13.5A48.15,48.15,0,0,1,75.7,32.89c1.46,10.7-1.33,21.44-8.7,29.49C56.39,74,38.32,77.2,23.46,73.82c-2.43-.55-14.58-6-15.91-2.64a2.28,2.28,0,0,0,.06,1.41c7.27,27.86,40,43.68,66.92,35.5C105.24,98.75,121.2,61.31,106,32.85A57.31,57.31,0,0,0,88.66,13.62C82.26,9.07,73,2.76,64.52,4.71Z"/><ellipse class="cls-2" cx="55.83" cy="85.64" rx="10.62" ry="9.47"/><path class="cls-2" d="M109.82,45.63s3.37,4.5,1.87,18.39S88.43,52.76,109.82,45.63Z"/><path class="cls-3" d="M67.65,12.12s7.9,12.06,7.48,17.46S87.3,10.39,67.65,12.12Z"/><path class="cls-3" d="M13.3,85.7s9.82,15.43,16.37,15.9C29.67,101.6,34.11,81.49,13.3,85.7Z"/><path class="cls-4" d="M82.79,85.38c-.18-3.24,2.5-5.33,5.67-4.84A5.67,5.67,0,0,1,93.07,85a2.84,2.84,0,0,1-.86,2.72,3.82,3.82,0,0,1-1.51.63c-2.29.53-6.61,1.21-7.64-1.62A4.7,4.7,0,0,1,82.79,85.38Z"/><path class="cls-4" d="M82.54,46.21s4.08-5.78,8.16-.68S83.56,53,82.54,46.21Z"/><path class="cls-5" d="M57.23,38.29a7.65,7.65,0,0,0-5,3c-1.46,1.87-2.78,4.63-2.6,7a9.11,9.11,0,0,0-3-6.3,12.2,12.2,0,0,0-3-2c-.65-.3-2.86-1.46-3.54-1.17,2-.87,4-1.4,5.69-3s2.13-3.48,2.88-5.4c.87,1.21,1.41,2.63,2.25,3.86C52.47,36.71,54.76,37.54,57.23,38.29Z"/><path class="cls-5" d="M33.51,26.3a3.9,3.9,0,0,0-2.63,1.48,5.88,5.88,0,0,0-1.44,3.59A4.66,4.66,0,0,0,28,28.09,6.12,6.12,0,0,0,26.48,27c-.33-.16-1.45-.79-1.81-.65a9,9,0,0,0,3-1.45A6.81,6.81,0,0,0,29.2,22.2c.43.64.69,1.38,1.1,2A5.5,5.5,0,0,0,33.51,26.3Z"/><ellipse class="cls-6" cx="20.7" cy="46.97" rx="1.43" ry="1.31"/><ellipse class="cls-6" cx="59.14" cy="27.33" rx="1.17" ry="1.06"/><path class="cls-7" d="M53.59,36.63a6.42,6.42,0,0,0-1.43.42,6.69,6.69,0,0,0-1.28.72,8.32,8.32,0,0,0-2,2.14,11.71,11.71,0,0,0-1.32,2.62,7.4,7.4,0,0,0-.49,2.86l-.27,0a8.54,8.54,0,0,0-.7-3,7.65,7.65,0,0,0-1.86-2.51,10.61,10.61,0,0,0-2.66-1.66c-.48-.22-1-.44-1.45-.63a6.39,6.39,0,0,0-.74-.24,1.31,1.31,0,0,0-.7,0l-.1-.22c.85-.37,1.71-.68,2.53-1.07a8.75,8.75,0,0,0,2.27-1.44,6.85,6.85,0,0,0,1.54-2.18c.39-.82.68-1.69,1-2.54l.12-.3.18.26a18,18,0,0,1,1.31,2.29,11.11,11.11,0,0,0,.65,1.11,7.07,7.07,0,0,0,.82,1,7.75,7.75,0,0,0,2.12,1.45,12.78,12.78,0,0,0,1.2.52C52.75,36.33,53.16,36.46,53.59,36.63Zm0,0a11.67,11.67,0,0,1-1.25-.35,12.93,12.93,0,0,1-1.23-.46,7.86,7.86,0,0,1-2.23-1.43,6.93,6.93,0,0,1-.87-1,13.23,13.23,0,0,1-.7-1.13A23.46,23.46,0,0,0,46,30l.3,0c-.33.85-.62,1.73-1,2.58a6.77,6.77,0,0,1-1.64,2.27,8.7,8.7,0,0,1-2.37,1.47c-.85.37-1.71.67-2.56,1l-.09-.21a1.51,1.51,0,0,1,.85,0c.26.08.51.17.76.27.49.21,1,.44,1.43.68a10.85,10.85,0,0,1,2.67,1.71,7.81,7.81,0,0,1,1.94,2.51,8.65,8.65,0,0,1,.83,3.08l-.27,0a7.18,7.18,0,0,1,.47-3,12.07,12.07,0,0,1,1.4-2.66,7.92,7.92,0,0,1,2.1-2.14,6.79,6.79,0,0,1,1.34-.69A4.55,4.55,0,0,1,53.56,36.62Z"/><path class="cls-7" d="M31.57,25.41a3.14,3.14,0,0,0-1.33.52,4.13,4.13,0,0,0-1,1,5.74,5.74,0,0,0-.68,1.24,3.85,3.85,0,0,0-.27,1.38h-.13a4.15,4.15,0,0,0-.3-1.47A3.55,3.55,0,0,0,27,26.86,5.09,5.09,0,0,0,25.74,26c-.23-.11-.46-.23-.69-.32a3,3,0,0,0-.35-.13.59.59,0,0,0-.34,0l-.05-.11c.42-.17.84-.31,1.24-.48a4.69,4.69,0,0,0,1.12-.67,3.27,3.27,0,0,0,.77-1c.2-.39.35-.81.52-1.22l.06-.15.09.13a8.76,8.76,0,0,1,.6,1.13,3.62,3.62,0,0,0,.68,1,3.35,3.35,0,0,0,1,.73A9.4,9.4,0,0,0,31.57,25.41Zm0,0A7.61,7.61,0,0,1,30.37,25a3.82,3.82,0,0,1-1.06-.72,4.07,4.07,0,0,1-.74-1.05,10.59,10.59,0,0,0-.6-1.1l.15,0c-.17.41-.32.83-.53,1.23a3.23,3.23,0,0,1-.82,1.08,4.42,4.42,0,0,1-1.17.68c-.41.17-.84.29-1.25.45l0-.1a.7.7,0,0,1,.41,0,1.92,1.92,0,0,1,.36.14,7.37,7.37,0,0,1,.69.34,5,5,0,0,1,1.27.87,3.7,3.7,0,0,1,.9,1.24,4.08,4.08,0,0,1,.36,1.5h-.13a3.49,3.49,0,0,1,.26-1.43,6.56,6.56,0,0,1,.71-1.27,3.85,3.85,0,0,1,1.05-1A2.85,2.85,0,0,1,31.55,25.41Z"/><path class="cls-7" d="M44.05,65.58a3.18,3.18,0,0,1-2.18-1.45,3.76,3.76,0,0,1-.57-2.6,3.88,3.88,0,0,1,1.26-2.37,3.17,3.17,0,0,1,4.85.7A3.82,3.82,0,0,1,48,62.54a4.2,4.2,0,0,1-.46,1.3,3.76,3.76,0,0,1-.9,1A3.18,3.18,0,0,1,44.05,65.58Zm0,0a3.06,3.06,0,0,0,1.31-.12,3.23,3.23,0,0,0,1.11-.68A3.84,3.84,0,0,0,47.13,60a2.89,2.89,0,0,0-4.42-.71,3.69,3.69,0,0,0-1.25,2.23,3.77,3.77,0,0,0,.47,2.54,3.06,3.06,0,0,0,.9,1A3,3,0,0,0,44.05,65.55Z"/><ellipse class="cls-6" cx="6.01" cy="104.73" rx="1.39" ry="1.27" transform="translate(-64.29 26.87) rotate(-38.79)"/><ellipse class="cls-6" cx="23.21" cy="111.18" rx="0.92" ry="0.84" transform="translate(-64.54 39.07) rotate(-38.79)"/><ellipse class="cls-6" cx="1.37" cy="90.56" rx="1.42" ry="1.3" transform="translate(-56.43 20.84) rotate(-38.79)"/><path class="cls-7" d="M105.21,5.76a3.58,3.58,0,0,1-2.34.81,3,3,0,0,1-2.25-1.15A3.21,3.21,0,0,1,100,3a3.56,3.56,0,0,1,1.2-2.18,3.28,3.28,0,0,1,2.39-.8,3.15,3.15,0,0,1,2.27,1.17,3,3,0,0,1,.61,2.47A3.56,3.56,0,0,1,105.21,5.76Zm0,0a3,3,0,0,0,1.1-2.12,3,3,0,0,0-.67-2.2,2.92,2.92,0,0,0-2-1.09,3.34,3.34,0,0,0-2.26.63A3.08,3.08,0,0,0,100.15,3a2.94,2.94,0,0,0,.7,2.25,3.29,3.29,0,0,0,2,1.11A3,3,0,0,0,105.19,5.73Z"/><ellipse class="cls-6" cx="109.81" cy="18.17" rx="1.39" ry="1.27"/><ellipse class="cls-6" cx="120.11" cy="66.13" rx="0.92" ry="0.84"/><ellipse class="cls-6" cx="89.64" cy="3.78" rx="1.42" ry="1.3"/><path class="cls-7" d="M133.11,63.79a2,2,0,0,1-.67,1.46,2.43,2.43,0,0,1-3.14.09,2,2,0,0,1-.76-1.56,2.06,2.06,0,0,1,.76-1.56,2.45,2.45,0,0,1,3.14.1A2,2,0,0,1,133.11,63.79Zm0,0a1.84,1.84,0,0,0-.7-1.43,2.22,2.22,0,0,0-1.5-.49,2.26,2.26,0,0,0-1.43.58,1.78,1.78,0,0,0,0,2.68,2.32,2.32,0,0,0,1.43.58,2.28,2.28,0,0,0,1.5-.49A1.86,1.86,0,0,0,133.11,63.79Z"/><ellipse class="cls-6" cx="123.36" cy="25.9" rx="1.4" ry="1.27"/><ellipse class="cls-6" cx="63.95" cy="117.48" rx="1.18" ry="1.07"/><ellipse class="cls-6" cx="66.22" cy="128.14" rx="1.4" ry="1.27"/><ellipse class="cls-6" cx="48.13" cy="126.74" rx="2.19" ry="1.99" transform="translate(-9.76 4.15) rotate(-4.49)"/><path class="cls-6" d="M45.07,119.89a5.33,5.33,0,0,0-3.48,2.33,9.3,9.3,0,0,0-1.83,5.42,7.2,7.2,0,0,0-2-4.82,8.14,8.14,0,0,0-2.08-1.48c-.45-.23-2-1.11-2.45-.88a12.24,12.24,0,0,0,3.95-2.3,10.66,10.66,0,0,0,2-4.14c.61.92,1,2,1.55,3A7.21,7.21,0,0,0,45.07,119.89Z"/><path class="cls-7" d="M127.07,38a5.34,5.34,0,0,0-2.33,1A7,7,0,0,0,123,40.82a9.82,9.82,0,0,0-1.13,2.27,6.32,6.32,0,0,0-.41,2.47h-.2a7.64,7.64,0,0,0-.6-2.61,6.63,6.63,0,0,0-1.58-2.17,9.05,9.05,0,0,0-2.28-1.44c-.41-.2-.82-.39-1.24-.56-.21-.08-.42-.15-.64-.21a1.07,1.07,0,0,0-.61,0l-.07-.16c.73-.32,1.47-.6,2.17-.93a7.28,7.28,0,0,0,2-1.27,5.78,5.78,0,0,0,1.31-1.89c.33-.71.58-1.46.86-2.2l.08-.22.14.2a14.78,14.78,0,0,1,1.11,2,7,7,0,0,0,1.25,1.82A6.67,6.67,0,0,0,125,37.14C125.65,37.47,126.34,37.7,127.07,38Zm0,0a12.92,12.92,0,0,1-2.12-.72A6.8,6.8,0,0,1,123,36a6.89,6.89,0,0,1-.75-.87c-.21-.31-.4-.64-.59-1a18.41,18.41,0,0,0-1.11-1.94l.22,0c-.28.74-.52,1.5-.86,2.22a5.86,5.86,0,0,1-1.38,2,7.42,7.42,0,0,1-2,1.28c-.73.33-1.48.59-2.2.89l-.07-.15a1.24,1.24,0,0,1,.72,0c.22.06.44.15.65.23.42.18.83.39,1.23.59a9.3,9.3,0,0,1,2.28,1.48,6.74,6.74,0,0,1,1.64,2.18,7.81,7.81,0,0,1,.69,2.65h-.2a6.17,6.17,0,0,1,.4-2.56,10.2,10.2,0,0,1,1.18-2.3,6.89,6.89,0,0,1,1.79-1.86A5.06,5.06,0,0,1,127,38Z"/><path class="cls-7" d="M42.39,119a5.65,5.65,0,0,0-1.14.38,4.94,4.94,0,0,0-1,.61,6.47,6.47,0,0,0-1.54,1.75,9.17,9.17,0,0,0-1,2.12,5.93,5.93,0,0,0-.33,2.28l-.27,0a7,7,0,0,0-.61-2.41,5.86,5.86,0,0,0-1.53-2,8.58,8.58,0,0,0-2.17-1.27,11.9,11.9,0,0,0-1.17-.47,3.32,3.32,0,0,0-.59-.18,1.2,1.2,0,0,0-.56,0l-.09-.21c.66-.32,1.35-.59,2-.91a7,7,0,0,0,1.78-1.2,5.33,5.33,0,0,0,1.18-1.77c.29-.66.51-1.36.76-2.05l.11-.3.19.25a14.13,14.13,0,0,1,1.09,1.82,6.17,6.17,0,0,0,1.21,1.64,6,6,0,0,0,1.72,1.13c.32.15.64.28,1,.4Zm0,0a9.74,9.74,0,0,1-1-.25c-.34-.1-.67-.21-1-.34a6.3,6.3,0,0,1-1.83-1.09,6.67,6.67,0,0,1-1.31-1.69,17.38,17.38,0,0,0-1.1-1.76l.3-.05c-.24.69-.46,1.4-.76,2.09a5.36,5.36,0,0,1-1.27,1.86A7.17,7.17,0,0,1,32.5,119c-.68.31-1.37.57-2,.86l-.1-.21a1.26,1.26,0,0,1,.7,0,5.46,5.46,0,0,1,.61.21c.4.16.79.34,1.17.52A9.26,9.26,0,0,1,35,121.72a6.44,6.44,0,0,1,1.61,2,7,7,0,0,1,.74,2.45l-.27,0a5.79,5.79,0,0,1,.31-2.41,9.49,9.49,0,0,1,1.08-2.16,6.44,6.44,0,0,1,1.65-1.76,5.22,5.22,0,0,1,1.07-.57A3.46,3.46,0,0,1,42.35,119Z"/></g></g></svg>