<svg xmlns="http://www.w3.org/2000/svg" viewBox="0 0 389.78 381.3"><defs><style>.cls-1{fill:#f5f3b5;}.cls-2{fill:#cce4e2;}.cls-3{fill:#f5f2a9;}.cls-4{fill:#fff;}.cls-5{fill:#e6e4a0;}.cls-6{fill:#eae8a3;}.cls-7{fill:#e5e29f;}.cls-8{fill:#edeaa4;}.cls-9{fill:#a2a087;}</style></defs><title>Asset 1</title><g id="Layer_2" data-name="Layer 2"><g id="Layer_1-2" data-name="Layer 1"><path class="cls-1" d="M204.38,16.16c-1,12.61-14.66,28.38-20.45,40C177.32,69.51,173.24,85,171.24,99.71c-4.32,31.75,3.94,63.59,25.81,87.45,31.46,34.32,85,43.94,129.08,33.92,7.21-1.64,43.24-17.88,47.18-7.83a6.85,6.85,0,0,1-.19,4.19C351.58,300.05,254.44,347,174.7,322.69,83.67,295,36.33,184,81.27,99.61c12.1-22.71,30.69-42.14,51.56-57C151.78,29.09,179.2,10.39,204.38,16.16Z"/><path class="cls-2" d="M274.81,79.41c-6,.7-11.22,4.26-14.87,8.94-4.32,5.54-8.23,13.75-7.71,20.92a26.93,26.93,0,0,0-8.77-18.68,36.19,36.19,0,0,0-9-5.8c-1.91-.89-8.47-4.32-10.5-3.45,6-2.58,11.87-4.15,16.88-8.79,4.62-4.28,6.33-10.32,8.53-16,2.6,3.58,4.18,7.81,6.69,11.46C260.72,74.72,267.49,77.18,274.81,79.41Z"/><path class="cls-2" d="M305.09,121.22a11.66,11.66,0,0,0-7.78,4.39c-2.3,2.79-4.43,7-4.27,10.65a13.89,13.89,0,0,0-4.25-9.74,18.39,18.39,0,0,0-4.54-3.11c-1-.48-4.29-2.34-5.35-1.93,3.14-1.24,6.16-2,8.81-4.28,2.44-2.13,3.4-5.22,4.61-8.12,1.29,1.88,2,4.08,3.28,6C297.91,118.6,301.36,120,305.09,121.22Z"/><ellipse class="cls-3" cx="337.56" cy="353.34" rx="6.19" ry="5.63"/><path class="cls-4" d="M25.08,182.77A4.38,4.38,0,0,1,24,185.72a3.88,3.88,0,0,1-3.05,1.22,4.9,4.9,0,0,1-3-1.33,4.34,4.34,0,0,1-1.45-2.84,3.71,3.71,0,0,1,1.25-3.07,4.67,4.67,0,0,1,3.16-1.22A4.18,4.18,0,0,1,24,179.8,4.44,4.44,0,0,1,25.08,182.77Zm-.1,0a3,3,0,0,0-1.45-2.47,4.92,4.92,0,0,0-2.63-.76,4.21,4.21,0,0,0-2.54.86A3.55,3.55,0,0,0,17,182.76a3,3,0,0,0,1.11,2.59,3.9,3.9,0,0,0,2.74.75,5.69,5.69,0,0,0,2.64-.86A3,3,0,0,0,25,182.77Z"/><ellipse class="cls-3" cx="96.7" cy="320.57" rx="6.53" ry="5.93"/><ellipse class="cls-3" cx="254.86" cy="358.83" rx="5.61" ry="5.76" transform="matrix(0.09, -1, 1, 0.09, -125.43, 580.41)"/><ellipse class="cls-3" cx="211.71" cy="2.09" rx="2.3" ry="2.09"/><path class="cls-4" d="M71,279.26a4.43,4.43,0,0,1-1.13,3,3.9,3.9,0,0,1-3.07,1.23,4.92,4.92,0,0,1-3-1.34,4.4,4.4,0,0,1-1.46-2.86,3.75,3.75,0,0,1,1.26-3.09A4.6,4.6,0,0,1,66.78,275a4.21,4.21,0,0,1,3.08,1.33A4.39,4.39,0,0,1,71,279.26Zm-.1,0a3,3,0,0,0-1.46-2.48,4.82,4.82,0,0,0-2.65-.76,4.21,4.21,0,0,0-2.56.87,3.56,3.56,0,0,0-1.33,2.38A3,3,0,0,0,64,281.88a3.91,3.91,0,0,0,2.76.75,5.66,5.66,0,0,0,2.66-.87A3,3,0,0,0,70.87,279.26Z"/><path class="cls-3" d="M389.78,306.58a18.87,18.87,0,0,0-12.4,7.57c-3.6,4.69-6.86,11.64-6.44,17.7a22.84,22.84,0,0,0-7.3-15.79,29.65,29.65,0,0,0-7.48-4.9c-1.59-.75-7.05-3.65-8.75-2.91,5-2.18,9.89-3.51,14.07-7.44,3.85-3.62,5.28-8.74,7.12-13.54,2.17,3,3.48,6.6,5.57,9.68C378,302.62,383.68,304.7,389.78,306.58Z"/><path class="cls-4" d="M122,17.43a4.29,4.29,0,0,1-1.09,2.88,3.73,3.73,0,0,1-3,1.19,4.71,4.71,0,0,1-2.87-1.3,4.21,4.21,0,0,1-1.41-2.76,3.62,3.62,0,0,1,1.21-3A4.49,4.49,0,0,1,118,13.26a4,4,0,0,1,3,1.3A4.27,4.27,0,0,1,122,17.43Zm-.1,0A2.88,2.88,0,0,0,120.5,15a4.8,4.8,0,0,0-2.55-.73,4.1,4.1,0,0,0-2.46.83,3.38,3.38,0,0,0-1.28,2.28,2.91,2.91,0,0,0,1.08,2.52,3.78,3.78,0,0,0,2.66.72,5.61,5.61,0,0,0,2.56-.83A2.9,2.9,0,0,0,121.91,17.43Z"/><ellipse class="cls-3" cx="316.95" cy="183.74" rx="4.25" ry="3.87"/><path class="cls-4" d="M340.28,143.65a6.6,6.6,0,0,0-2.58-5.13,9.16,9.16,0,0,0-5.33-1.93,7.77,7.77,0,0,0-5.43,1.82,6.6,6.6,0,0,0-2.26,5.25,7.15,7.15,0,0,0,2.47,5,8.05,8.05,0,0,0,5.22,1.93,8.59,8.59,0,0,0,5.32-1.82A6.66,6.66,0,0,0,340.28,143.65Zm.1,0a7.94,7.94,0,0,1-8,8,8.46,8.46,0,0,1-5.85-2.3,7.35,7.35,0,0,1-2.38-5.71,8,8,0,0,1,2.59-5.49,8.75,8.75,0,0,1,5.65-2.41,7.67,7.67,0,0,1,5.75,2.3A8.1,8.1,0,0,1,340.38,143.65Z"/><ellipse class="cls-3" cx="336.73" cy="84.7" rx="3.46" ry="3.15"/><ellipse class="cls-3" cx="222.4" cy="157.32" rx="9.64" ry="10.22" transform="translate(-8.14 12.19) rotate(-3.08)"/><path class="cls-2" d="M43.66,247.17a15.8,15.8,0,0,0-10.38,6.24c-3,3.87-5.74,9.6-5.38,14.61a18.81,18.81,0,0,0-6.13-13,25.13,25.13,0,0,0-6.27-4c-1.33-.62-5.91-3-7.33-2.41,4.21-1.8,8.28-2.9,11.78-6.14,3.22-3,4.42-7.21,5.95-11.18,1.82,2.5,2.92,5.45,4.67,8C33.82,243.89,38.55,245.61,43.66,247.17Z"/><ellipse class="cls-3" cx="70.94" cy="41.97" rx="4.22" ry="3.84"/><path class="cls-5" d="M155.25,312.16l-2.42,2.25c1.34.67,2.68,1.3,4,1.92l.38.12a4.48,4.48,0,0,1,1.41.67c46.3,20.29,95.68,8.13,95.68,8.13C216.94,252.34,155.25,312.16,155.25,312.16Z"/><ellipse class="cls-6" cx="179.9" cy="237.37" rx="31.49" ry="28.09"/><path class="cls-7" d="M334.47,218c-15.23,11.84-64.32,5.5-64.32,5.5-.72,17.61,30.78,38.38,47.66,29.79,15.16-7.72,17.61-30.88,18-35.52Z"/><path class="cls-5" d="M104.31,67.41s19.36-18.25,31.93-25.72c0,0,5.24,12.37-7.13,23A21.22,21.22,0,0,1,104.31,67.41Z"/><path class="cls-8" d="M137.46,92.73s7.92-11.23,15.85-1.32S139.45,105.94,137.46,92.73Z"/><path class="cls-8" d="M89.17,140.33c-.53-9.61,7.4-15.83,16.8-14.35a16.8,16.8,0,0,1,13.69,13.19c.53,2.91-.24,6.22-2.56,8.06a11.2,11.2,0,0,1-4.47,1.86c-6.8,1.58-19.6,3.6-22.66-4.81A13.67,13.67,0,0,1,89.17,140.33Z"/><path class="cls-8" d="M65.68,194.62S90.2,184.92,99.9,206s-14.26,44.49-14.26,44.49S65.11,208.31,65.68,194.62Z"/><path class="cls-8" d="M260.68,273.75a8.57,8.57,0,0,1,0-1.51c1.95-18.69,31.82-4.22,19.39,8.62C276.2,284.88,261.23,283,260.68,273.75Z"/><path class="cls-9" d="M205.44,15.33c-.07.72-.14,1.46-.23,2.2s-.3,1.37-.45,2.07a17.18,17.18,0,0,1-.59,2c-.22.66-.41,1.33-.69,2a62.6,62.6,0,0,1-3.57,7.54c-2.68,4.87-5.73,9.52-8.72,14.19a98.14,98.14,0,0,0-8,14.49,126.52,126.52,0,0,0-5.68,15.57,156.82,156.82,0,0,0-3.83,16.13c-.5,2.72-.92,5.45-1.29,8.19s-.67,5.48-.77,8.25a114,114,0,0,0,2.62,32.89,113.83,113.83,0,0,0,5,15.74c.5,1.28,1.11,2.52,1.66,3.78l.85,1.88c.3.62.63,1.22.94,1.84l1.91,3.66,2.12,3.55c.68,1.2,1.47,2.33,2.24,3.47s1.51,2.3,2.36,3.39c1.68,2.18,3.32,4.39,5.18,6.43a97.2,97.2,0,0,0,11.79,11.52A113,113,0,0,0,236.48,213a139.24,139.24,0,0,0,31.71,9,155.91,155.91,0,0,0,49.36.11c1.36-.19,2.71-.45,4.07-.7s2.7-.52,4.05-.82l2-.44c.62-.15,1.27-.35,1.91-.56,1.29-.42,2.6-.88,3.9-1.35,5.21-1.87,10.44-3.8,15.76-5.47a82.77,82.77,0,0,1,16.45-3.75,24.75,24.75,0,0,1,4.39,0,9.18,9.18,0,0,1,4.49,1.59,4.63,4.63,0,0,1,1,.92,4.49,4.49,0,0,1,.72,1.14,5.06,5.06,0,0,1,.5,2.61,20,20,0,0,1-1,4.32,135,135,0,0,1-5.42,15.88,146.37,146.37,0,0,1-39.05,53.92A172.64,172.64,0,0,1,207.2,331.22a148.88,148.88,0,0,1-63.91-19.48,159.48,159.48,0,0,1-49.54-44.95,169.59,169.59,0,0,1-27.54-61A158.58,158.58,0,0,1,65.33,139,147.35,147.35,0,0,1,75.77,107.1c1.21-2.53,2.5-5,3.74-7.53.6-1.27,1.35-2.46,2-3.69s1.4-2.43,2.14-3.62a152.57,152.57,0,0,1,9.54-13.81,175.78,175.78,0,0,1,23-24.29q6.3-5.5,13-10.46c4.51-3.29,9.07-6.42,13.72-9.5,9.3-6.08,19-11.73,29.48-15.63S194.28,12.53,205.44,15.33Zm-.32.23c-.66-.1-1.3-.19-1.94-.3s-1.36-.18-2-.27-1.37-.13-2.06-.18-1.37-.09-2.06-.09a49.26,49.26,0,0,0-8.23.52,70.65,70.65,0,0,0-15.89,4.37c-10.26,4.06-19.76,9.84-28.87,16.07-4.55,3.13-9.09,6.33-13.5,9.64s-8.65,6.84-12.75,10.53A172.76,172.76,0,0,0,95.45,80.11a149.23,149.23,0,0,0-16.76,28.27,143.85,143.85,0,0,0-10,31.28,155,155,0,0,0,1.39,65.24,165.29,165.29,0,0,0,27,59.44,156,156,0,0,0,48.14,44,145.13,145.13,0,0,0,62.21,19.34,169,169,0,0,0,121.94-40.41A143.66,143.66,0,0,0,368,234.49a133,133,0,0,0,5.39-15.56,18.47,18.47,0,0,0,.89-3.77,2.54,2.54,0,0,0-.26-1.43c-.13-.2-.19-.46-.38-.61a2,2,0,0,0-.54-.51,7,7,0,0,0-3.26-1.11,22.3,22.3,0,0,0-3.92,0A80.85,80.85,0,0,0,350,215.06c-5.27,1.63-10.46,3.51-15.7,5.37-1.31.46-2.62.92-4,1.35-.67.22-1.35.42-2.08.6l-2.06.44c-1.37.29-2.73.58-4.11.81s-2.75.5-4.13.69A157.93,157.93,0,0,1,301.25,226a156.69,156.69,0,0,1-33.37-2,141.38,141.38,0,0,1-32.09-9.34,114.61,114.61,0,0,1-28.54-17.35,97.29,97.29,0,0,1-11.9-11.77c-1.87-2.07-3.53-4.33-5.22-6.55-.85-1.11-1.58-2.3-2.37-3.45s-1.57-2.31-2.25-3.53l-2.12-3.61-1.92-3.72c-.31-.62-.65-1.24-.94-1.87l-.85-1.91c-.55-1.28-1.16-2.54-1.66-3.84a109.63,109.63,0,0,1-7.43-49.18c.12-2.78.54-5.54.83-8.31s.83-5.5,1.35-8.23a158,158,0,0,1,3.95-16.2,126.43,126.43,0,0,1,5.81-15.63A97.57,97.57,0,0,1,190.7,45c3-4.66,6.09-9.27,8.78-14.1a63.11,63.11,0,0,0,3.59-7.46c.28-.63.47-1.29.7-2a16.71,16.71,0,0,0,.59-2c.15-.66.36-1.35.45-2S205,16.22,205.12,15.56Z"/><path class="cls-4" d="M264,74.48a21.17,21.17,0,0,0-4.25,1.25A20.23,20.23,0,0,0,256,77.88a24,24,0,0,0-5.91,6.34A34.56,34.56,0,0,0,246.14,92a21.82,21.82,0,0,0-1.43,8.48l-.8.06a25.34,25.34,0,0,0-2.1-9,22,22,0,0,0-5.5-7.43,30.88,30.88,0,0,0-7.9-4.92c-1.42-.66-2.83-1.32-4.28-1.88a17.6,17.6,0,0,0-2.2-.71,4,4,0,0,0-2.09-.12l-.27-.64c2.5-1.12,5.06-2,7.5-3.18a25.69,25.69,0,0,0,6.73-4.29,19.77,19.77,0,0,0,4.55-6.45c1.15-2.42,2-5,3-7.54l.34-.87.55.75a54.89,54.89,0,0,1,3.87,6.8,34.81,34.81,0,0,0,1.94,3.3,21.27,21.27,0,0,0,2.43,2.92,22.75,22.75,0,0,0,6.28,4.32c1.16.55,2.34,1.07,3.55,1.52S262.77,74,264,74.48Zm-.1,0c-1.22-.26-2.45-.67-3.69-1a36.4,36.4,0,0,1-3.65-1.37,23.12,23.12,0,0,1-6.6-4.22,21.69,21.69,0,0,1-2.6-3,36.24,36.24,0,0,1-2.07-3.34,65.63,65.63,0,0,0-3.89-6.64l.89-.12c-1,2.52-1.82,5.12-3,7.63a20,20,0,0,1-4.85,6.74,26.31,26.31,0,0,1-7,4.36c-2.52,1.1-5.09,2-7.59,3l-.27-.64a4.42,4.42,0,0,1,2.52.16,21.26,21.26,0,0,1,2.24.8c1.46.61,2.86,1.31,4.26,2a33.75,33.75,0,0,1,7.92,5.06,23.63,23.63,0,0,1,5.74,7.45,25.81,25.81,0,0,1,2.46,9.13l-.8.06a21.55,21.55,0,0,1,1.39-8.83,35.76,35.76,0,0,1,4.14-7.89,23.67,23.67,0,0,1,6.24-6.34,18.56,18.56,0,0,1,4-2A13.51,13.51,0,0,1,263.93,74.47Z"/><path class="cls-4" d="M299.35,118.58a9.19,9.19,0,0,0-3.93,1.54,11.57,11.57,0,0,0-2.94,3,17,17,0,0,0-2,3.7,10.62,10.62,0,0,0-.8,4.07l-.4,0a12.39,12.39,0,0,0-.89-4.37,10.5,10.5,0,0,0-2.56-3.66,15.19,15.19,0,0,0-3.76-2.47c-.68-.34-1.35-.68-2-1a11.06,11.06,0,0,0-1-.38,1.91,1.91,0,0,0-1-.09l-.12-.31c1.22-.5,2.47-.92,3.67-1.44a12.59,12.59,0,0,0,3.31-2,9.36,9.36,0,0,0,2.28-3.06c.59-1.15,1-2.39,1.55-3.61l.18-.43.26.38a24.93,24.93,0,0,1,1.77,3.34,11.59,11.59,0,0,0,2,3.07,10.68,10.68,0,0,0,3,2.16A30,30,0,0,0,299.35,118.58Zm-.05,0a22.51,22.51,0,0,1-3.52-1.27,11.3,11.3,0,0,1-3.13-2.14,12,12,0,0,1-2.18-3.11,34,34,0,0,0-1.8-3.26l.44,0c-.5,1.21-.95,2.45-1.55,3.65a9.61,9.61,0,0,1-2.44,3.19,12.52,12.52,0,0,1-3.46,2c-1.23.5-2.49.88-3.71,1.35l-.12-.31a2.16,2.16,0,0,1,1.22.11,9.15,9.15,0,0,1,1.07.42c.7.31,1.37.67,2,1a16,16,0,0,1,3.76,2.56,11.3,11.3,0,0,1,2.67,3.68,12.41,12.41,0,0,1,1.07,4.45l-.4,0a10.43,10.43,0,0,1,.79-4.25,17.36,17.36,0,0,1,2.11-3.76,11.32,11.32,0,0,1,3.11-3A8.18,8.18,0,0,1,299.3,118.58Z"/><path class="cls-4" d="M39.16,245.41a17.73,17.73,0,0,0-3.4,1,15.9,15.9,0,0,0-3,1.74,19.45,19.45,0,0,0-4.7,5.08,28.24,28.24,0,0,0-3.14,6.2,17.66,17.66,0,0,0-1.15,6.76l-.8.06a20,20,0,0,0-1.65-7.18,17.36,17.36,0,0,0-4.38-6,24.76,24.76,0,0,0-6.33-3.93c-1.14-.53-2.27-1.05-3.43-1.49a14.36,14.36,0,0,0-1.76-.56,3.24,3.24,0,0,0-1.64-.09l-.27-.64c2-.91,4.06-1.65,6-2.56a20.48,20.48,0,0,0,5.37-3.43,15.71,15.71,0,0,0,3.62-5.14c.92-1.93,1.61-4,2.4-6l.34-.87.55.75a42.68,42.68,0,0,1,3.1,5.47,19.13,19.13,0,0,0,3.48,5,18.14,18.14,0,0,0,5,3.48c.93.45,1.87.87,2.84,1.24S38.15,245,39.16,245.41Zm-.1,0c-1-.19-2-.52-3-.82a28.81,28.81,0,0,1-2.94-1.08,18.64,18.64,0,0,1-5.33-3.37,19.86,19.86,0,0,1-3.77-5.08,52.11,52.11,0,0,0-3.12-5.31l.89-.12c-.77,2-1.46,4.11-2.4,6.12a16,16,0,0,1-3.92,5.43,21.29,21.29,0,0,1-5.66,3.5c-2,.88-4.09,1.59-6.1,2.4l-.27-.64a3.65,3.65,0,0,1,2.07.13,17.45,17.45,0,0,1,1.8.65c1.17.49,2.29,1.06,3.41,1.62a27.15,27.15,0,0,1,6.35,4.07,19.1,19.1,0,0,1,4.62,6,20.72,20.72,0,0,1,2,7.33l-.8.06A17.4,17.4,0,0,1,24,259.14a28.45,28.45,0,0,1,3.34-6.34,18.74,18.74,0,0,1,5-5.08,13.89,13.89,0,0,1,3.19-1.62A11.64,11.64,0,0,1,39.06,245.4Z"/><path class="cls-4" d="M170.9,372.43a6.75,6.75,0,0,0-2.82,1.14,8.38,8.38,0,0,0-2.09,2.15,12.11,12.11,0,0,0-1.43,2.65,7.52,7.52,0,0,0-.58,2.91l-.4,0a8.6,8.6,0,0,0-.62-3.13,7.62,7.62,0,0,0-1.82-2.64,10.8,10.8,0,0,0-2.7-1.78c-.49-.24-1-.48-1.47-.69a2.94,2.94,0,0,0-1.45-.33l-.12-.31c1.76-.73,3.61-1.25,5-2.48s2-3,2.74-4.77l.18-.43.26.38a16.47,16.47,0,0,1,1.27,2.42,8.18,8.18,0,0,0,1.44,2.21,7.8,7.8,0,0,0,2.13,1.56A23.34,23.34,0,0,0,170.9,372.43Zm-.05,0a15.62,15.62,0,0,1-2.54-.88A8.1,8.1,0,0,1,166,370a8.59,8.59,0,0,1-1.59-2.25,26,26,0,0,0-1.3-2.33l.44-.05c-.36.87-.68,1.77-1.12,2.63a6.93,6.93,0,0,1-1.78,2.32,9,9,0,0,1-2.51,1.45c-.89.35-1.8.63-2.68,1l-.12-.31a1.61,1.61,0,0,1,.91.08,6.67,6.67,0,0,1,.78.31c.5.23,1,.49,1.46.75a11.93,11.93,0,0,1,2.71,1.85,8.33,8.33,0,0,1,1.94,2.65,8.91,8.91,0,0,1,.79,3.21l-.4,0a7.54,7.54,0,0,1,.57-3.09,12.76,12.76,0,0,1,1.53-2.72,8.09,8.09,0,0,1,2.26-2.14A6,6,0,0,1,170.85,372.42Z"/><path class="cls-4" d="M383.24,304a16,16,0,0,0-6.92,3,21.1,21.1,0,0,0-5.06,5.51,30.39,30.39,0,0,0-3.36,6.72,19.21,19.21,0,0,0-1.21,7.33l-.6,0a22.23,22.23,0,0,0-1.78-7.74,18.93,18.93,0,0,0-4.68-6.43,26.09,26.09,0,0,0-6.76-4.29c-1.22-.58-2.43-1.15-3.67-1.64a18.2,18.2,0,0,0-1.89-.63,3.39,3.39,0,0,0-1.82-.11l-.2-.46c2.15-1,4.35-1.78,6.44-2.77a22,22,0,0,0,5.78-3.75,17.15,17.15,0,0,0,3.88-5.61c1-2.1,1.71-4.32,2.55-6.51l.25-.66.41.58a46.42,46.42,0,0,1,3.28,5.86,20.7,20.7,0,0,0,3.72,5.4,19.48,19.48,0,0,0,5.4,3.74A59.07,59.07,0,0,0,383.24,304Zm-.08,0a40.34,40.34,0,0,1-6.3-2.14,19.84,19.84,0,0,1-5.61-3.69,19.26,19.26,0,0,1-2.2-2.57c-.64-.93-1.21-1.9-1.75-2.88A56.28,56.28,0,0,0,364,287l.67-.09c-.83,2.18-1.55,4.41-2.55,6.57a17.44,17.44,0,0,1-4.1,5.82,22.49,22.49,0,0,1-6,3.8c-2.16,1-4.37,1.73-6.52,2.63l-.2-.46a3.75,3.75,0,0,1,2.14.13,17.49,17.49,0,0,1,1.92.69c1.25.53,2.46,1.14,3.65,1.74a28.23,28.23,0,0,1,6.77,4.4,20.23,20.23,0,0,1,4.85,6.45,22.68,22.68,0,0,1,2.05,7.85l-.6,0a19.06,19.06,0,0,1,1.18-7.6,31,31,0,0,1,3.51-6.82,20.33,20.33,0,0,1,5.31-5.51A14.8,14.8,0,0,1,383.16,304Z"/><ellipse class="cls-3" cx="5.66" cy="146.92" rx="5.51" ry="5.66" transform="translate(-140.77 133.65) rotate(-82.62)"/><path class="cls-4" d="M63.73,105.67a12.2,12.2,0,0,0-5.26,2,15.25,15.25,0,0,0-4,4,22.59,22.59,0,0,0-2.68,5,14.14,14.14,0,0,0-1.07,5.47l-.4,0a16,16,0,0,0-1.23-5.83,14.61,14.61,0,0,0-3.42-4.89,20.49,20.49,0,0,0-5-3.32c-.9-.46-1.8-.92-2.72-1.31a11.86,11.86,0,0,0-1.41-.51,2.68,2.68,0,0,0-1.38-.12l-.12-.31c1.63-.66,3.3-1.22,4.9-1.91a16.76,16.76,0,0,0,4.44-2.65,12.8,12.8,0,0,0,3.07-4.1c.78-1.55,1.39-3.19,2.07-4.82l.18-.43.26.38a35.26,35.26,0,0,1,2.37,4.45,15.18,15.18,0,0,0,2.73,4.11,14.88,14.88,0,0,0,4,2.88A40.65,40.65,0,0,0,63.73,105.67Zm0,0A30.83,30.83,0,0,1,59,103.94a14.79,14.79,0,0,1-4.15-2.86A15.67,15.67,0,0,1,52,96.93a43.39,43.39,0,0,0-2.39-4.36l.44,0c-.67,1.61-1.27,3.27-2.07,4.86a12.87,12.87,0,0,1-3.23,4.24,16.94,16.94,0,0,1-4.59,2.68c-1.64.67-3.32,1.19-4.95,1.81l-.12-.31a2.82,2.82,0,0,1,1.59.14,12.4,12.4,0,0,1,1.43.55c.93.41,1.83.88,2.72,1.35a20.83,20.83,0,0,1,5,3.41,14.89,14.89,0,0,1,3.56,4.9,17,17,0,0,1,1.39,5.92l-.4,0a13.85,13.85,0,0,1,1.06-5.65,23,23,0,0,1,2.81-5,15.52,15.52,0,0,1,4.1-4A11.22,11.22,0,0,1,63.68,105.67Z"/></g></g></svg>