<svg xmlns="http://www.w3.org/2000/svg" viewBox="0 0 394.67 383.72"><defs><style>.cls-1{fill:#f5f3b5;}.cls-2{fill:#eae8a3;}.cls-3{fill:#e5e29f;}.cls-4{fill:#a2a087;}.cls-5{fill:#edeaa4;}.cls-6{fill:#cce4e2;}.cls-7{fill:#f5f2a9;}.cls-8{fill:#fff;}</style></defs><title>Asset 3</title><g id="Layer_2" data-name="Layer 2"><g id="Layer_1-2" data-name="Layer 1"><path class="cls-1" d="M191.31,14c1,12.61,14.66,28.38,20.45,40,6.61,13.31,10.69,28.82,12.69,43.51,4.32,31.75-3.94,63.59-25.81,87.45-31.46,34.32-85,43.94-129.08,33.92-7.21-1.64-43.24-17.88-47.18-7.83a6.85,6.85,0,0,0,.19,4.19C44.11,297.85,141.25,344.75,221,320.49c91-27.7,138.37-138.71,93.43-223.08-12.1-22.71-30.69-42.14-51.56-57C243.91,26.9,216.48,8.2,191.31,14Z"/><ellipse class="cls-2" cx="165.54" cy="253.93" rx="31.49" ry="28.09"/><path class="cls-2" d="M325.6,135.3s10,13.35,5.56,54.52S262.18,156.45,325.6,135.3Z"/><path class="cls-3" d="M200.57,35.94S224,71.69,222.76,87.71,258.85,30.8,200.57,35.94Z"/><path class="cls-3" d="M39.44,254.1S68.56,299.85,88,301.24C88,301.24,101.14,241.62,39.44,254.1Z"/><path class="cls-4" d="M190.57,13.37c.12.66.23,1.29.32,1.93s.31,1.33.45,2a17.29,17.29,0,0,0,.59,2c.22.65.42,1.31.7,1.95a63.11,63.11,0,0,0,3.59,7.46c2.7,4.83,5.77,9.45,8.78,14.1a98.08,98.08,0,0,1,8.17,14.52A126.43,126.43,0,0,1,219,72.93a158,158,0,0,1,4,16.2c.52,2.73,1,5.48,1.35,8.23s.71,5.52.83,8.31a114.85,114.85,0,0,1-2.45,33.22,113,113,0,0,1-5,16c-.5,1.3-1.11,2.56-1.66,3.84l-.85,1.91c-.3.63-.63,1.24-.94,1.87l-1.92,3.72-2.12,3.61c-.68,1.22-1.47,2.37-2.25,3.53s-1.52,2.35-2.37,3.45c-1.69,2.22-3.34,4.48-5.22,6.55a98,98,0,0,1-11.9,11.77,114.61,114.61,0,0,1-28.54,17.35,141.23,141.23,0,0,1-32.09,9.34,156.69,156.69,0,0,1-33.37,2,157.67,157.67,0,0,1-16.66-1.66c-1.38-.19-2.76-.45-4.13-.69s-2.75-.52-4.11-.81l-2.06-.44c-.73-.18-1.41-.39-2.08-.6-1.34-.43-2.66-.89-4-1.35-5.24-1.86-10.43-3.74-15.7-5.37a80.15,80.15,0,0,0-15.94-3.57,22.3,22.3,0,0,0-3.92,0,6.93,6.93,0,0,0-3.26,1.11,2.19,2.19,0,0,0-.54.51c-.2.16-.25.41-.38.61a2.54,2.54,0,0,0-.26,1.43,19.16,19.16,0,0,0,.89,3.77,131.23,131.23,0,0,0,5.39,15.56A143.66,143.66,0,0,0,66.27,285a169,169,0,0,0,121.94,40.41,145.4,145.4,0,0,0,62.21-19.34,155.86,155.86,0,0,0,48.14-43.95,165.29,165.29,0,0,0,27-59.44A154.82,154.82,0,0,0,327,137.46,143.85,143.85,0,0,0,317,106.18a150.07,150.07,0,0,0-16.76-28.27,173.37,173.37,0,0,0-22.34-24.26q-6.15-5.53-12.75-10.53c-4.4-3.31-9-6.52-13.5-9.64-9.12-6.23-18.61-12-28.87-16.07A70.94,70.94,0,0,0,206.9,13a49.26,49.26,0,0,0-8.23-.52c-.69,0-1.38,0-2.06.09s-1.38.08-2.06.18-1.39.16-2,.27S191.23,13.27,190.57,13.37Zm-.32-.24c11.16-2.79,22.52-.67,32.95,3.2S243.38,25.88,252.68,32c4.65,3.08,9.2,6.21,13.72,9.5s8.85,6.79,13.05,10.46a175.78,175.78,0,0,1,23,24.29A154,154,0,0,1,312,90c.74,1.19,1.47,2.39,2.14,3.62s1.42,2.42,2,3.69c1.25,2.51,2.53,5,3.74,7.53a147.35,147.35,0,0,1,10.44,31.91,158.58,158.58,0,0,1-.88,66.81,169.25,169.25,0,0,1-27.54,61,159.48,159.48,0,0,1-49.54,44.95A149,149,0,0,1,188.48,329,172.64,172.64,0,0,1,64.36,287.19a146.45,146.45,0,0,1-39-53.92,135,135,0,0,1-5.42-15.88,20,20,0,0,1-1-4.32,5.06,5.06,0,0,1,.5-2.61,5.52,5.52,0,0,1,1.68-2.06,9.35,9.35,0,0,1,4.49-1.59,24.75,24.75,0,0,1,4.39,0,82.77,82.77,0,0,1,16.45,3.75C51.76,212.23,57,214.15,62.2,216c1.3.47,2.6.93,3.9,1.35.65.21,1.3.41,1.91.56l2,.44c1.34.29,2.69.58,4,.82s2.7.51,4.07.7a155.91,155.91,0,0,0,16.42,1.71,153.93,153.93,0,0,0,32.94-1.82,139.75,139.75,0,0,0,31.71-9,113.25,113.25,0,0,0,28.22-16.92,96.48,96.48,0,0,0,11.79-11.52c1.86-2,3.5-4.25,5.18-6.43.85-1.08,1.57-2.26,2.36-3.39s1.57-2.27,2.24-3.47l2.12-3.55,1.91-3.66c.31-.61.65-1.22.94-1.84l.85-1.88c.55-1.26,1.16-2.5,1.66-3.78a112.5,112.5,0,0,0,5-15.74,113.92,113.92,0,0,0,2.62-32.89c-.1-2.76-.5-5.5-.77-8.25S222.54,92,222,89.26a156.2,156.2,0,0,0-3.83-16.13,126.52,126.52,0,0,0-5.68-15.57,97.23,97.23,0,0,0-8-14.49c-3-4.67-6-9.31-8.72-14.19a63.33,63.33,0,0,1-3.57-7.54c-.28-.64-.47-1.31-.69-2a17.18,17.18,0,0,1-.59-2c-.15-.69-.36-1.33-.45-2.07S190.31,13.85,190.25,13.13Z"/><path class="cls-5" d="M245.47,253.17c-.53-9.61,7.4-15.83,16.8-14.35A16.8,16.8,0,0,1,276,252c.53,2.91-.24,6.22-2.56,8.06a11.2,11.2,0,0,1-4.47,1.86c-6.8,1.58-19.6,3.6-22.66-4.81A14,14,0,0,1,245.47,253.17Z"/><path class="cls-5" d="M244.72,137s12.11-17.15,24.21-2S247.75,157.2,244.72,137Z"/><path class="cls-6" d="M169.67,113.54c-6,.7-11.22,4.26-14.87,8.94-4.32,5.54-8.23,13.75-7.71,20.92a26.93,26.93,0,0,0-8.77-18.68,36.19,36.19,0,0,0-9-5.8c-1.91-.89-8.47-4.32-10.5-3.45,6-2.58,11.87-4.15,16.88-8.79,4.62-4.28,6.33-10.32,8.53-16,2.6,3.58,4.18,7.81,6.69,11.46C155.58,108.84,162.36,111.3,169.67,113.54Z"/><path class="cls-6" d="M99.34,78a11.66,11.66,0,0,0-7.78,4.39c-2.3,2.79-4.43,7-4.27,10.65A13.89,13.89,0,0,0,83,83.28a18.39,18.39,0,0,0-4.54-3.11c-1-.48-4.29-2.34-5.35-1.93C76.29,77,79.31,76.28,82,74c2.44-2.13,3.4-5.22,4.61-8.12,1.29,1.88,2,4.08,3.28,6C92.16,75.36,95.61,76.73,99.34,78Z"/><ellipse class="cls-7" cx="61.37" cy="139.28" rx="4.25" ry="3.87"/><ellipse class="cls-7" cx="175.36" cy="81.05" rx="3.46" ry="3.15"/><path class="cls-8" d="M158.89,108.6a21.17,21.17,0,0,0-4.25,1.25,20.23,20.23,0,0,0-3.79,2.15,24,24,0,0,0-5.91,6.34A34.56,34.56,0,0,0,141,126.1a21.82,21.82,0,0,0-1.43,8.48l-.8.06a25.34,25.34,0,0,0-2.1-9,22,22,0,0,0-5.5-7.43,30.88,30.88,0,0,0-7.9-4.92c-1.42-.66-2.83-1.32-4.28-1.88a17.6,17.6,0,0,0-2.2-.71,4,4,0,0,0-2.09-.12l-.27-.64c2.5-1.12,5.06-2,7.5-3.18a25.69,25.69,0,0,0,6.73-4.29A19.77,19.77,0,0,0,133.21,96c1.15-2.42,2-5,3-7.54l.34-.87.55.75a54.89,54.89,0,0,1,3.87,6.8,34.81,34.81,0,0,0,1.94,3.3,21.27,21.27,0,0,0,2.43,2.92,22.75,22.75,0,0,0,6.28,4.32c1.16.55,2.34,1.07,3.55,1.52S157.63,108.1,158.89,108.6Zm-.1,0c-1.22-.26-2.45-.67-3.69-1a36.4,36.4,0,0,1-3.65-1.37,23.12,23.12,0,0,1-6.6-4.22,21.69,21.69,0,0,1-2.6-3,36.24,36.24,0,0,1-2.07-3.34A65.63,65.63,0,0,0,136.29,89l.89-.12c-1,2.52-1.82,5.12-3,7.63a20,20,0,0,1-4.85,6.74,26.31,26.31,0,0,1-7,4.36c-2.52,1.1-5.09,2-7.59,3l-.27-.64a4.42,4.42,0,0,1,2.52.16,21.26,21.26,0,0,1,2.24.8c1.46.61,2.86,1.31,4.26,2a33.75,33.75,0,0,1,7.92,5.06,23.63,23.63,0,0,1,5.74,7.45,25.81,25.81,0,0,1,2.46,9.13l-.8.06a21.55,21.55,0,0,1,1.39-8.83,35.76,35.76,0,0,1,4.14-7.89,23.67,23.67,0,0,1,6.24-6.34,18.56,18.56,0,0,1,4-2A13.51,13.51,0,0,1,158.79,108.59Z"/><path class="cls-8" d="M93.6,75.35a9.19,9.19,0,0,0-3.93,1.54,11.57,11.57,0,0,0-2.94,3,17,17,0,0,0-2,3.7,10.62,10.62,0,0,0-.8,4.07l-.4,0a12.39,12.39,0,0,0-.89-4.37,10.5,10.5,0,0,0-2.56-3.66,15.19,15.19,0,0,0-3.76-2.47c-.68-.34-1.35-.68-2-1a11.06,11.06,0,0,0-1-.38,1.91,1.91,0,0,0-1-.09l-.12-.31c1.22-.5,2.47-.92,3.67-1.44a12.59,12.59,0,0,0,3.31-2,9.36,9.36,0,0,0,2.28-3.06c.59-1.15,1-2.39,1.55-3.61l.18-.43.26.38a24.93,24.93,0,0,1,1.77,3.34,11.59,11.59,0,0,0,2,3.07,10.68,10.68,0,0,0,3,2.16A33.82,33.82,0,0,0,93.6,75.35Zm0,0A22.51,22.51,0,0,1,90,74.07a11.3,11.3,0,0,1-3.13-2.14,12,12,0,0,1-2.18-3.11,34,34,0,0,0-1.8-3.26l.44,0c-.5,1.21-1,2.45-1.55,3.65a9.61,9.61,0,0,1-2.44,3.19,12.52,12.52,0,0,1-3.46,2c-1.23.5-2.49.88-3.71,1.35l-.12-.31a2.16,2.16,0,0,1,1.22.11,9.15,9.15,0,0,1,1.07.42c.7.31,1.37.67,2,1a16,16,0,0,1,3.76,2.56,11.3,11.3,0,0,1,2.67,3.68,12.41,12.41,0,0,1,1.07,4.45l-.4,0a10.43,10.43,0,0,1,.79-4.25,17.36,17.36,0,0,1,2.11-3.76,11.32,11.32,0,0,1,3.11-3A8.28,8.28,0,0,1,93.55,75.34Z"/><path class="cls-8" d="M130.59,194.45a9.5,9.5,0,0,1-6.46-4.29,11.39,11.39,0,0,1-1.69-7.71,11.54,11.54,0,0,1,3.75-7,9.4,9.4,0,0,1,14.37,2.06,11.45,11.45,0,0,1,1.61,8,12.11,12.11,0,0,1-1.38,3.87,11,11,0,0,1-2.66,3.08A9.58,9.58,0,0,1,130.59,194.45Zm0-.09a8.79,8.79,0,0,0,3.88-.37,9.29,9.29,0,0,0,3.3-2,11.28,11.28,0,0,0,3.4-6.69,11.08,11.08,0,0,0-1.46-7.28,8.76,8.76,0,0,0-6-4.16,8.85,8.85,0,0,0-7.09,2.07,11.25,11.25,0,0,0-2.3,14.13,9.43,9.43,0,0,0,2.66,2.86A8.72,8.72,0,0,0,130.61,194.36Z"/><ellipse class="cls-7" cx="17.81" cy="310.54" rx="4.13" ry="3.76" transform="translate(-190.63 79.66) rotate(-38.79)"/><ellipse class="cls-7" cx="68.83" cy="329.66" rx="2.72" ry="2.48" transform="translate(-191.35 115.84) rotate(-38.79)"/><ellipse class="cls-7" cx="4.08" cy="268.51" rx="4.22" ry="3.84" transform="translate(-167.32 61.78) rotate(-38.79)"/><path class="cls-8" d="M312,17.08a10.65,10.65,0,0,1-6.95,2.4,8.71,8.71,0,0,1-6.66-3.4,9.5,9.5,0,0,1-1.74-7.21,10.58,10.58,0,0,1,3.55-6.46A9.78,9.78,0,0,1,307.26,0,9.41,9.41,0,0,1,314,3.51a9,9,0,0,1,1.81,7.31A10.64,10.64,0,0,1,312,17.08ZM311.9,17a9,9,0,0,0,3.26-6.28,9.17,9.17,0,0,0-2-6.55,8.75,8.75,0,0,0-6-3.21,9.72,9.72,0,0,0-6.68,1.87,9,9,0,0,0-3.57,6.08A8.66,8.66,0,0,0,299,15.56a9.69,9.69,0,0,0,6.06,3.3A9,9,0,0,0,311.9,17Z"/><ellipse class="cls-7" cx="325.59" cy="53.89" rx="4.13" ry="3.76"/><ellipse class="cls-7" cx="356.12" cy="196.08" rx="2.72" ry="2.48"/><ellipse class="cls-7" cx="265.78" cy="11.22" rx="4.22" ry="3.84"/><path class="cls-8" d="M394.67,189.13a5.86,5.86,0,0,1-2,4.34,7.23,7.23,0,0,1-9.33.27,5.88,5.88,0,0,1,0-9.24,7.23,7.23,0,0,1,9.33.27A5.94,5.94,0,0,1,394.67,189.13Zm0,0a5.53,5.53,0,0,0-2.07-4.24,6.78,6.78,0,0,0-4.46-1.45,6.6,6.6,0,0,0-4.22,1.72,5.26,5.26,0,0,0,0,7.94,6.6,6.6,0,0,0,4.22,1.72,6.69,6.69,0,0,0,4.46-1.45A5.5,5.5,0,0,0,394.67,189.13Z"/><ellipse class="cls-7" cx="365.75" cy="76.79" rx="4.16" ry="3.78"/><ellipse class="cls-7" cx="189.6" cy="348.34" rx="3.5" ry="3.18"/><ellipse class="cls-7" cx="196.33" cy="379.94" rx="4.16" ry="3.78"/><ellipse class="cls-7" cx="142.71" cy="375.79" rx="6.48" ry="5.89" transform="translate(-28.95 12.31) rotate(-4.49)"/><path class="cls-7" d="M133.64,355.49c-4.14.56-7.79,3.3-10.33,6.91-3,4.26-5.75,10.57-5.42,16.06a21.38,21.38,0,0,0-6-14.28,24.4,24.4,0,0,0-6.19-4.41c-1.32-.67-5.85-3.28-7.26-2.61,4.19-2,8.23-3.22,11.72-6.8,3.22-3.29,4.42-7.94,6-12.3,1.79,2.73,2.87,6,4.59,8.75C123.9,351.94,128.58,353.81,133.64,355.49Z"/><path class="cls-8" d="M376.76,112.57a16,16,0,0,0-6.92,3,21.1,21.1,0,0,0-5.06,5.51,30.39,30.39,0,0,0-3.36,6.72,19.21,19.21,0,0,0-1.21,7.33l-.6,0a22.23,22.23,0,0,0-1.78-7.74,18.93,18.93,0,0,0-4.68-6.43,26.09,26.09,0,0,0-6.76-4.29c-1.22-.58-2.43-1.15-3.67-1.64a18.2,18.2,0,0,0-1.89-.63,3.39,3.39,0,0,0-1.82-.11l-.2-.46c2.15-1,4.35-1.78,6.44-2.77a22,22,0,0,0,5.78-3.75,17.15,17.15,0,0,0,3.88-5.61c1-2.1,1.71-4.32,2.55-6.51l.25-.66.41.58A46.42,46.42,0,0,1,361.4,101a20.7,20.7,0,0,0,3.72,5.4,19.48,19.48,0,0,0,5.4,3.74A63.21,63.21,0,0,0,376.76,112.57Zm-.08,0a40.34,40.34,0,0,1-6.3-2.14,19.84,19.84,0,0,1-5.61-3.69,19.26,19.26,0,0,1-2.2-2.57c-.64-.93-1.21-1.9-1.75-2.88a56.28,56.28,0,0,0-3.31-5.73l.67-.09c-.83,2.18-1.55,4.42-2.55,6.57a17.44,17.44,0,0,1-4.1,5.82,22.49,22.49,0,0,1-6,3.8c-2.16,1-4.37,1.73-6.52,2.63l-.2-.46A3.75,3.75,0,0,1,341,114a17.49,17.49,0,0,1,1.92.69c1.25.53,2.46,1.14,3.65,1.74a28.23,28.23,0,0,1,6.77,4.4,20.23,20.23,0,0,1,4.85,6.45,22.68,22.68,0,0,1,2.05,7.85l-.6,0a19.06,19.06,0,0,1,1.18-7.6,31,31,0,0,1,3.51-6.82,20.33,20.33,0,0,1,5.31-5.51A14.87,14.87,0,0,1,376.68,112.56Z"/><path class="cls-8" d="M125.67,352.84a17.64,17.64,0,0,0-3.38,1.12,16,16,0,0,0-3,1.81,19.27,19.27,0,0,0-4.58,5.19,28.48,28.48,0,0,0-3,6.28,17.48,17.48,0,0,0-1,6.78l-.8.08a20.12,20.12,0,0,0-1.82-7.14,17.41,17.41,0,0,0-4.53-5.84,24.8,24.8,0,0,0-6.42-3.77c-1.15-.5-2.3-1-3.47-1.41a14.79,14.79,0,0,0-1.77-.52,3.18,3.18,0,0,0-1.64-.05l-.29-.63c2-1,4-1.75,5.94-2.71a20.59,20.59,0,0,0,5.28-3.56,15.69,15.69,0,0,0,3.49-5.23c.87-1.95,1.51-4,2.26-6.1l.32-.88.57.74a41.53,41.53,0,0,1,3.23,5.39,19.22,19.22,0,0,0,3.6,4.89,18,18,0,0,0,5.09,3.35c.94.42,1.89.82,2.87,1.17S124.65,352.45,125.67,352.84Zm-.1,0c-1-.16-2-.47-3-.74a29.68,29.68,0,0,1-3-1,18.8,18.8,0,0,1-5.41-3.24,19.76,19.76,0,0,1-3.89-5,52.38,52.38,0,0,0-3.25-5.23l.88-.14c-.72,2-1.36,4.14-2.25,6.18a16,16,0,0,1-3.78,5.53,21.4,21.4,0,0,1-5.57,3.64c-2,.93-4,1.69-6,2.55l-.29-.63a3.59,3.59,0,0,1,2.07.08,17.66,17.66,0,0,1,1.82.61c1.18.46,2.32,1,3.45,1.54a27.27,27.27,0,0,1,6.45,3.92,19.08,19.08,0,0,1,4.77,5.86,20.6,20.6,0,0,1,2.18,7.28l-.8.08a17.27,17.27,0,0,1,.94-7.14,28.67,28.67,0,0,1,3.18-6.42,18.71,18.71,0,0,1,4.91-5.2,14.1,14.1,0,0,1,3.15-1.7A10.36,10.36,0,0,1,125.57,352.84Z"/></g></g></svg>