<svg xmlns="http://www.w3.org/2000/svg" viewBox="0 0 431.43 361.36"><defs><style>.cls-1{fill:#f5f3b5;}.cls-2{fill:#e6e4a0;}.cls-3{fill:#a2a087;}.cls-4{fill:#f5f2a9;}.cls-5{fill:#cce4e2;}.cls-6{fill:none;stroke:#fff;stroke-miterlimit:10;}.cls-7{fill:#fff;}</style></defs><title>Asset 2</title><g id="Layer_2" data-name="Layer 2"><g id="Layer_1-2" data-name="Layer 1"><path class="cls-1" d="M241.88,348.74c-113.66,16.52-216.56-77.52-183-193.34,30-103.48,143.66-170.81,242-108.66C420.76,122.48,394.68,310.52,255.85,346A130.75,130.75,0,0,1,241.88,348.74Z"/><ellipse class="cls-2" cx="122.02" cy="122.72" rx="25.4" ry="24.42"/><path class="cls-2" d="M268.68,32.93S316.85,54,321.36,66.05,262.66,70.56,268.68,32.93Z"/><path class="cls-2" d="M320.84,121.05c-20.19,3.56-31.2,28.71-26.13,42.81,7.71,21.45,47.06,26.17,56.41,2,5-12.87.15-41.72-20.89-44.89A28.9,28.9,0,0,0,320.84,121.05Z"/><path class="cls-2" d="M271.42,341.19S247.09,269.7,283.66,245s77.88,8.24,77.88,8.24S346.87,315.09,271.42,341.19Z"/><path class="cls-2" d="M207,223.56l-.12,0c-8.46-1.79-15.7-8.68-19.44-16.67-6.13-13.12-3.51-28.36,3.43-39.92,4-6.67,9.57-12.59,16.86-15.44,17.81-7,49.38,15,48.76,35.44-.21,6.8-4.54,12.39-9.17,17C237.72,213.52,222.37,226.72,207,223.56Z"/><path class="cls-2" d="M77.61,284.55s29.28,39.8,55.57,47.31,4.51-38.3-6-44.3S94.13,274.79,77.61,284.55Z"/><path class="cls-2" d="M116.66,62.29S158,32.25,164,34.51,173,74.3,116.66,62.29Z"/><path class="cls-3" d="M240.78,350.36a208.44,208.44,0,0,1-32.17,1.86,201.84,201.84,0,0,1-32-3.68l-7.88-1.77c-2.61-.66-5.19-1.45-7.79-2.17s-5.14-1.63-7.69-2.5l-3.82-1.33c-1.27-.45-2.5-1-3.75-1.51l-3.74-1.54c-1.25-.51-2.5-1-3.71-1.62l-7.3-3.51-7.1-3.91-1.77-1-1.71-1.08-3.43-2.17a162.24,162.24,0,0,1-25.45-20.12c-1.91-1.92-3.76-3.91-5.65-5.86-.47-.49-1-1-1.4-1.48l-1.31-1.55-2.63-3.11c-.86-1.05-1.78-2.05-2.58-3.15l-2.42-3.28L73,282.62c-.82-1.09-1.49-2.27-2.24-3.4l-2.2-3.43-1.1-1.72c-.35-.58-.67-1.18-1-1.78-1.31-2.38-2.65-4.74-3.92-7.15l-3.44-7.4c-.61-1.22-1-2.51-1.54-3.77l-1.47-3.81a145.25,145.25,0,0,1-7.64-31.63A154.09,154.09,0,0,1,48.37,186l1-8.06c.46-2.67,1-5.32,1.53-8,.28-1.32.47-2.67.83-4l1-3.92,1.05-3.92c.34-1.31.68-2.61,1.14-3.89l2.55-7.69c.94-2.53,2-5,2.92-7.55s2.13-5,3.21-7.42L65.33,128c.59-1.21,1.23-2.4,1.84-3.6l1.84-3.6.92-1.8c.32-.59.67-1.17,1-1.76l4-7,4.37-6.8c.37-.56.72-1.14,1.1-1.69l1.18-1.64L84,96.78A203.71,203.71,0,0,1,105,72.3a191.46,191.46,0,0,1,24.87-20.59,167.36,167.36,0,0,1,58.84-26.09,143,143,0,0,1,32.22-3.53,148.07,148.07,0,0,1,32.28,3.59,164.16,164.16,0,0,1,30.71,10.65l7.3,3.61c2.4,1.27,4.71,2.69,7.07,4,1.17.69,2.36,1.34,3.51,2.06l3.41,2.21c2.3,1.44,4.47,3.08,6.7,4.62a170.35,170.35,0,0,1,24.35,21.58c3.64,4,7.21,8.14,10.45,12.52,1.68,2.14,3.19,4.4,4.76,6.62.77,1.12,1.49,2.28,2.23,3.41s1.49,2.28,2.17,3.46L358,104c.68,1.18,1.31,2.38,2,3.57,1.35,2.37,2.49,4.84,3.71,7.27l1.68,3.72.84,1.86.77,1.89,1.54,3.78,1.4,3.83c.48,1.27.91,2.56,1.33,3.86s.86,2.58,1.25,3.88c.74,2.62,1.55,5.21,2.17,7.86,1.36,5.27,2.39,10.61,3.22,16s1.31,10.79,1.65,16.22.34,10.87.09,16.3-.66,10.85-1.42,16.23c-.31,2.7-.83,5.37-1.28,8.05-.25,1.33-.54,2.66-.81,4s-.55,2.66-.89,4a164.75,164.75,0,0,1-26.63,58.9,160.76,160.76,0,0,1-21.47,24.25,157.13,157.13,0,0,1-12.47,10.31c-2.13,1.66-4.39,3.13-6.6,4.68-1.12.75-2.27,1.45-3.4,2.18s-2.27,1.46-3.44,2.12A165.19,165.19,0,0,1,272,342.41l-3.81,1.34c-1.27.43-2.56.81-3.85,1.22-2.55.84-5.16,1.51-7.75,2.21A133.27,133.27,0,0,1,240.78,350.36Zm-.06-.4a130.05,130.05,0,0,0,15.74-3.26c2.58-.71,5.18-1.4,7.72-2.25,1.28-.41,2.56-.8,3.83-1.23l3.78-1.38a156,156,0,0,0,28.79-14.14c1.15-.68,2.26-1.44,3.37-2.18s2.23-1.47,3.33-2.24c2.15-1.59,4.36-3.09,6.43-4.79a152.76,152.76,0,0,0,32.69-34.9c24.11-35.2,33.68-79.59,27.22-121.5a163.57,163.57,0,0,0-21.31-59.49c-.65-1.15-1.38-2.26-2.09-3.38s-1.41-2.24-2.15-3.34c-1.52-2.17-3-4.39-4.6-6.48-3.12-4.29-6.58-8.31-10.11-12.27A166.74,166.74,0,0,0,309.7,55.9c-2.18-1.52-4.28-3.14-6.53-4.56l-3.33-2.19c-1.12-.71-2.28-1.36-3.42-2-2.3-1.33-4.56-2.73-6.89-4l-7.11-3.6a161.38,161.38,0,0,0-29.93-10.75,147,147,0,0,0-63.31-1,160.77,160.77,0,0,0-30.47,9.63L155.05,39c-1.21.56-2.46,1-3.63,1.69l-7.12,3.68-6.9,4.08c-1.16.66-2.27,1.41-3.38,2.16l-3.33,2.23a190.72,190.72,0,0,0-24.8,20.31l-5.6,5.75c-1.84,1.94-3.54,4-5.31,6s-3.41,4.12-5.07,6.22l-2.48,3.16c-.81,1.06-1.55,2.18-2.34,3.26l-2.31,3.28-1.16,1.64c-.38.55-.72,1.13-1.08,1.69L76.25,111l-3.94,7c-.33.58-.66,1.16-1,1.75l-.89,1.79-1.78,3.6c-.58,1.2-1.19,2.39-1.76,3.6l-1.58,3.68c-1,2.47-2.18,4.88-3,7.41s-1.87,5-2.76,7.52L57.13,155c-.43,1.27-.74,2.56-1.05,3.86l-1,3.88-1,3.88c-.33,1.29-.49,2.62-.75,3.92-.45,2.62-1,5.24-1.37,7.87l-.86,7.94a153.73,153.73,0,0,0,.63,31.81,143.4,143.4,0,0,0,21.94,59.16c.73,1.11,1.38,2.27,2.17,3.33l2.34,3.22,2.34,3.22c.78,1.07,1.67,2.06,2.51,3.09l2.53,3.08,1.26,1.54c.44.5.9,1,1.35,1.46,1.82,1.94,3.6,3.91,5.44,5.82a169.15,169.15,0,0,0,24.6,20.28l3.33,2.21,1.66,1.11,1.73,1,6.92,4,7.13,3.64c1.18.64,2.41,1.15,3.63,1.69l3.67,1.61c1.23.52,2.43,1.11,3.68,1.58l3.76,1.4c2.51.92,5,1.93,7.57,2.65s5.1,1.62,7.68,2.33l7.79,1.93a187.31,187.31,0,0,0,31.83,4.15A201.15,201.15,0,0,0,240.72,350Z"/><path class="cls-2" d="M180.41,269.42c.66-4.85,3.93-8.79,7.79-11.59,7.06-5.12,15-3.37,21.79,1.62C224.35,270,206.85,287.78,196.7,288c-6,.13-12.09-3.82-15-10.53A14.94,14.94,0,0,1,180.41,269.42Z"/><path class="cls-2" d="M62.71,191.63c-.41.25-.82.51-1.23.8C49.41,201,66.6,236.55,79,229.11,99,217.14,82.08,180,62.71,191.63Z"/><path class="cls-2" d="M206.17,59.6a3.21,3.21,0,0,1,.74-.81,3.85,3.85,0,0,1,2-.63c5-.54,10.93.15,15.25,3.43,2.87,2.18,6.84,9.19,2,12.43a25.34,25.34,0,0,1-9.54,3.69c-3.73.59-6.84-1.53-8.71-5.64-1.12-2.46-2.49-5.81-2.6-8.83A6.68,6.68,0,0,1,206.17,59.6Z"/><ellipse class="cls-4" cx="78.3" cy="39.39" rx="9.54" ry="9.23"/><ellipse class="cls-4" cx="3.68" cy="251.77" rx="3.68" ry="3.35"/><ellipse class="cls-4" cx="23.82" cy="281.55" rx="2.43" ry="2.21"/><path class="cls-5" d="M78.13,323.78c-5.53.65-10.38,3.94-13.75,8.27-4,5.13-7.61,12.72-7.13,19.35a24.85,24.85,0,0,0-8.11-17.27,33.23,33.23,0,0,0-8.3-5.36c-1.77-.82-7.83-4-9.71-3.19,5.58-2.38,11-3.83,15.61-8.13,4.27-3.95,5.85-9.55,7.88-14.81,2.41,3.31,3.87,7.22,6.19,10.59C65.09,319.44,71.36,321.72,78.13,323.78Z"/><ellipse class="cls-6" cx="21.67" cy="191.9" rx="7" ry="7.18"/><path class="cls-7" d="M72.15,319.58a20.31,20.31,0,0,0-8.54,3.6,25.69,25.69,0,0,0-6.29,6.73,36.75,36.75,0,0,0-4.19,8.24,23.26,23.26,0,0,0-1.52,9l-.8.06a26.67,26.67,0,0,0-2.24-9.54,23.36,23.36,0,0,0-5.84-7.88,32.82,32.82,0,0,0-8.39-5.23c-1.51-.71-3-1.41-4.55-2a20.41,20.41,0,0,0-2.33-.76,4.36,4.36,0,0,0-2.24-.13L25,321c2.65-1.19,5.37-2.16,8-3.37a27.39,27.39,0,0,0,7.16-4.55,20.84,20.84,0,0,0,4.84-6.86c1.22-2.57,2.13-5.31,3.18-8l.34-.87.55.75a57.66,57.66,0,0,1,4.11,7.22,37.15,37.15,0,0,0,2.07,3.51,21.29,21.29,0,0,0,2.59,3.1,24.15,24.15,0,0,0,6.68,4.59c1.23.59,2.49,1.13,3.78,1.61S70.82,319.06,72.15,319.58Zm-.1,0c-1.29-.28-2.6-.72-3.92-1.13s-2.61-.9-3.88-1.46a24.72,24.72,0,0,1-7-4.48,23.08,23.08,0,0,1-2.75-3.17,37.23,37.23,0,0,1-2.19-3.55,69,69,0,0,0-4.13-7.06l.89-.12c-1,2.68-1.94,5.44-3.18,8.1a21.23,21.23,0,0,1-5.14,7.15,28,28,0,0,1-7.45,4.62c-2.67,1.17-5.4,2.11-8.06,3.2L25,321a4.68,4.68,0,0,1,2.67.17,21,21,0,0,1,2.38.85c1.55.64,3,1.39,4.52,2.13A35.47,35.47,0,0,1,43,329.55,25.15,25.15,0,0,1,49,337.46a27.4,27.4,0,0,1,2.6,9.69l-.8.06a23,23,0,0,1,1.48-9.37,37.61,37.61,0,0,1,4.39-8.38,24.94,24.94,0,0,1,6.62-6.73,19,19,0,0,1,4.2-2.17A15.88,15.88,0,0,1,72.05,319.57Z"/><path class="cls-7" d="M35.8,349.54A8.88,8.88,0,0,0,32,351a11.27,11.27,0,0,0-2.82,2.86,16,16,0,0,0-1.92,3.55,10.17,10.17,0,0,0-.77,3.91l-.4,0a11.82,11.82,0,0,0-.85-4.19,10.22,10.22,0,0,0-2.45-3.51,14.67,14.67,0,0,0-3.6-2.37c-.65-.33-1.29-.65-2-.93a9.35,9.35,0,0,0-1-.36,1.81,1.81,0,0,0-1-.08l-.12-.31c2.34-.95,4.82-1.65,6.69-3.29a9.2,9.2,0,0,0,2.19-2.93c.56-1.11,1-2.29,1.49-3.46l.18-.43.26.38a24.14,24.14,0,0,1,1.7,3.21,10.85,10.85,0,0,0,1.94,3,10.71,10.71,0,0,0,2.86,2.08A33.13,33.13,0,0,0,35.8,349.54Zm0,0a22.06,22.06,0,0,1-3.38-1.21,10.59,10.59,0,0,1-3-2.05,11.26,11.26,0,0,1-2.09-3,30.1,30.1,0,0,0-1.72-3.12l.44-.05c-.48,1.16-.91,2.35-1.49,3.5a9.23,9.23,0,0,1-2.34,3.07,12.42,12.42,0,0,1-3.32,1.93c-1.18.48-2.39.85-3.56,1.29l-.12-.31a2.16,2.16,0,0,1,1.17.1,8.46,8.46,0,0,1,1,.4c.67.3,1.31.64,1.95,1a15,15,0,0,1,3.6,2.46,11.22,11.22,0,0,1,2.57,3.53,12.1,12.1,0,0,1,1,4.27l-.4,0a10,10,0,0,1,.76-4.09,16.61,16.61,0,0,1,2-3.61,11,11,0,0,1,3-2.86A8,8,0,0,1,35.75,349.54Z"/><ellipse class="cls-4" cx="364.49" cy="322" rx="9.54" ry="9.23"/><path class="cls-7" d="M406.13,83.87a4.81,4.81,0,0,1-2.89-.32,3.16,3.16,0,0,1-1.81-2.34,3.49,3.49,0,0,1,.91-2.79,4.87,4.87,0,0,1,2.51-1.49,4.21,4.21,0,0,1,2.95.36,3.41,3.41,0,0,1,1.82,2.4,3.27,3.27,0,0,1-.9,2.85A4.8,4.8,0,0,1,406.13,83.87Zm0-.05a3.65,3.65,0,0,0,3-4,3.14,3.14,0,0,0-1.54-2.09,4.31,4.31,0,0,0-2.67-.5,3.77,3.77,0,0,0-2.43,1.33,3,3,0,0,0-.63,2.6A3.72,3.72,0,0,0,406.13,83.82Z"/><ellipse class="cls-4" cx="429" cy="139.44" rx="2.43" ry="2.21"/><ellipse class="cls-4" cx="400.13" cy="109.59" rx="3.76" ry="3.42"/><path class="cls-7" d="M403.31,65.12a16.25,16.25,0,0,0-3,.94,14.31,14.31,0,0,0-2.68,1.56,17.36,17.36,0,0,0-4.18,4.53,24.68,24.68,0,0,0-2.79,5.52,15.76,15.76,0,0,0-1,6l-.8.06a17.82,17.82,0,0,0-1.45-6.39,15.4,15.4,0,0,0-3.89-5.3,22,22,0,0,0-5.64-3.5c-1-.47-2-.93-3.06-1.32a15.67,15.67,0,0,0-1.56-.5,2.76,2.76,0,0,0-1.43-.08L371.5,66c1.78-.81,3.61-1.47,5.35-2.29a18.65,18.65,0,0,0,4.77-3,14.05,14.05,0,0,0,3.21-4.57c.82-1.72,1.43-3.55,2.14-5.38l.34-.87.55.75a36.06,36.06,0,0,1,2.76,4.89,17,17,0,0,0,3.09,4.43,16,16,0,0,0,4.45,3.1c.82.4,1.66.78,2.52,1.11S402.4,64.73,403.31,65.12Zm-.1,0a26,26,0,0,1-2.64-.71,27.5,27.5,0,0,1-2.63-1,16.71,16.71,0,0,1-4.76-3,17.69,17.69,0,0,1-3.37-4.54A50.47,50.47,0,0,0,387,51.19l.89-.12c-.69,1.8-1.3,3.66-2.14,5.46a14.34,14.34,0,0,1-3.51,4.86,19,19,0,0,1-5.06,3.12c-1.81.78-3.65,1.41-5.44,2.13L371.5,66a3.18,3.18,0,0,1,1.86.12,14,14,0,0,1,1.61.59c1,.44,2,1,3,1.46a24.09,24.09,0,0,1,5.66,3.64,17.23,17.23,0,0,1,4.13,5.33,18.6,18.6,0,0,1,1.81,6.54l-.8.06a15.42,15.42,0,0,1,1-6.36,25.53,25.53,0,0,1,3-5.66,16.62,16.62,0,0,1,4.51-4.53,12.79,12.79,0,0,1,2.86-1.44A9,9,0,0,1,403.21,65.11Z"/><path class="cls-7" d="M369.45,324.63a9.59,9.59,0,0,1-6.19-2.19,7.73,7.73,0,0,1-2.75-6.1,8.5,8.5,0,0,1,2.85-6,9.57,9.57,0,0,1,6.09-2.53,8.8,8.8,0,0,1,6.3,2.3,8.44,8.44,0,0,1,2.76,6.22,8.06,8.06,0,0,1-2.85,6.12A9.66,9.66,0,0,1,369.45,324.63Zm0-.1A7.88,7.88,0,0,0,375.2,322a8.23,8.23,0,0,0,2.24-5.64,7.81,7.81,0,0,0-2.34-5.54,8.66,8.66,0,0,0-5.65-2.44,8,8,0,0,0-5.86,2.21,7.68,7.68,0,0,0-2.24,5.76A8.7,8.7,0,0,0,363.7,322,7.83,7.83,0,0,0,369.45,324.53Z"/><path class="cls-4" d="M137.28,16.9A14.08,14.08,0,0,0,128,22.55c-2.69,3.5-5.13,8.69-4.81,13.22A17.1,17.1,0,0,0,117.76,24a22.42,22.42,0,0,0-5.58-3.66c-1.19-.56-5.27-2.73-6.53-2.18,3.76-1.63,7.39-2.63,10.51-5.56C119,9.87,120.1,6,121.48,2.45c1.62,2.26,2.6,4.93,4.16,7.23C128.51,13.94,132.73,15.49,137.28,16.9Z"/><path class="cls-7" d="M128.84,12.93A11.46,11.46,0,0,0,124,15.06a14.65,14.65,0,0,0-3.52,3.88,21.33,21.33,0,0,0-2.34,4.71,13.46,13.46,0,0,0-.86,5.12l-.6,0a15.64,15.64,0,0,0-1.21-5.43,13.25,13.25,0,0,0-3.26-4.52,18.09,18.09,0,0,0-4.75-3c-.86-.4-1.71-.8-2.58-1.14a13.61,13.61,0,0,0-1.32-.44,2.45,2.45,0,0,0-1.24-.08l-.2-.46c1.51-.69,3-1.27,4.52-2a15.31,15.31,0,0,0,4-2.63,12,12,0,0,0,2.7-3.91c.68-1.47,1.2-3,1.79-4.57l.25-.66.41.58a31.93,31.93,0,0,1,2.31,4.14,14.58,14.58,0,0,0,2.59,3.78,13.63,13.63,0,0,0,3.75,2.65A45.29,45.29,0,0,0,128.84,12.93Zm-.08,0a26.75,26.75,0,0,1-4.44-1.45,13.87,13.87,0,0,1-4-2.58A14.89,14.89,0,0,1,117.53,5a41.32,41.32,0,0,0-2.32-4l.67-.09c-.58,1.53-1.09,3.11-1.79,4.63a12.29,12.29,0,0,1-2.92,4.13,15.79,15.79,0,0,1-4.25,2.68c-1.53.67-3.09,1.2-4.6,1.83l-.2-.46a2.66,2.66,0,0,1,1.55.1,12.23,12.23,0,0,1,1.36.5c.88.38,1.73.81,2.57,1.24a20.29,20.29,0,0,1,4.77,3.11,14.45,14.45,0,0,1,3.44,4.54,15.87,15.87,0,0,1,1.48,5.54l-.6,0a13.29,13.29,0,0,1,.83-5.38A21.94,21.94,0,0,1,120,18.61a14.35,14.35,0,0,1,3.77-3.88A10,10,0,0,1,128.76,12.92Z"/><ellipse class="cls-4" cx="101.54" cy="49.42" rx="3.68" ry="3.35"/><ellipse class="cls-4" cx="352" cy="51.07" rx="3.68" ry="3.35"/><ellipse class="cls-4" cx="373.09" cy="30.1" rx="3.68" ry="3.35"/><ellipse class="cls-4" cx="385.88" cy="331.84" rx="2.43" ry="2.21"/></g></g></svg>