<svg xmlns="http://www.w3.org/2000/svg" viewBox="0 0 436.12 533.21"><defs><style>.cls-1{fill:#a2cecc;}.cls-2{fill:#fff;}.cls-3{fill:#aededb;}.cls-4{fill:#a19f87;}.cls-5{fill:#fff7eb;}.cls-6{fill:#fff6d5;}</style></defs><title>tilted-bottle</title><g id="Layer_2" data-name="Layer 2"><g id="Layer_1-2" data-name="Layer 1"><polygon class="cls-1" points="418.38 203.09 432.35 204.2 435.69 211.27 432.2 216.69 419.43 214.86 418.38 203.09"/><path class="cls-1" d="M190.42,67.34s-20.41.78-20.56,1.3,22.71,20.88,22.71,20.88Z"/><path class="cls-2" d="M287.86,472.29c5.34-23.82,5.86-48.85,19.94-70,22.14-33.63,58.48-55.83,71.54-94a47.36,47.36,0,0,0,2.43-17.11,44.36,44.36,0,0,0-5.29-18.38c-17.48-33.31-55.85-55.22-87.31-73.44l-.06.08c-20.86,28.8-40.14,59.1-58.78,89.91q-5.6,9.24-11.11,18.53c-36.41,63-78.46,121.83-109.92,187.72-1,1.85,13,7.13,20.16,10.66,4.72,2.08,9.62,4.21,14.16,6.15,9.08,3.89,16.68,7,18.34,7.6,26.58,9,55.6,16.33,83.54,9.44a65.84,65.84,0,0,0,16.4-6.32,39.38,39.38,0,0,0,13-11.26c3.89-5.46,6.36-12,8.24-18.89S286.25,478.88,287.86,472.29Z"/><path class="cls-2" d="M213,137l138,73.7-78.21,92.47-26.69,31.56c-36.57,42.36-72.4,85.52-109.11,129-8.09,9.41-16.14,19.65-25.12,29.38,18.13-59.2,33.52-117.81,50.7-178.06,2.52-8.91,5-17.81,7.54-26.62Z"/><path class="cls-2" d="M30.92,331.73c17.27-17.25,38.15-31.07,48.53-54.3,16.59-36.69,15.92-79.27,41.2-110.72a47.46,47.46,0,0,1,13.16-11.2,44.26,44.26,0,0,1,18.36-5.35c37.5-3,76.53,17.68,108.74,34.52a.36.36,0,0,1,0,.09C229.22,264,185.41,340.22,148,416.9q-19.42,39.81-38.86,79.61l-10.26-4.94c-14-9-38.19-25.77-40.91-28C36.16,445.92,14.42,425.34,5.3,398A65.52,65.52,0,0,1,1.88,380.8a39.45,39.45,0,0,1,2.56-17C7,357.57,11.21,352,16,346.71S26.21,336.61,30.92,331.73Z"/><polygon class="cls-3" points="169.06 76.15 170.41 73.02 172.75 76.15 171.27 80.51 169.06 76.15"/><path class="cls-1" d="M391.76,144.31a251.17,251.17,0,0,0-63.18-47.89,268.26,268.26,0,0,0-75-26.84c-5.41-1.07-10.87-1.89-16.34-2.59q-4-.51-8-1a42.06,42.06,0,0,0-6.26-.12c-2.16.08-4.33.21-6.46.14-4.53-.13-9.17-.92-13.7-.78-4,.12-8.15.83-12.15,1.25s-7.83.83-11.75,1.09a33.57,33.57,0,0,1-4.22.34l-.2,0c-.07,0-.74.29-.23,0a3.7,3.7,0,0,1-.52.2C221.55,142.94,280.37,179,330.14,196.11q6.81,2.34,13.38,4.23,5.6,1.47,11.23,2.79c25.64,6.27,53.44,9.7,80.59,7.41A219.28,219.28,0,0,0,391.76,144.31Z"/><path class="cls-4" d="M170.37,67.78A203.35,203.35,0,0,1,210.92,64c6.8,0,13.61.29,20.39.84s13.55,1.39,20.25,2.56,13.35,2.68,19.92,4.41,13.07,3.73,19.5,5.9a280.23,280.23,0,0,1,37.61,15.58,198.87,198.87,0,0,1,17.77,10c2.9,1.78,5.7,3.73,8.53,5.63s5.54,4,8.22,6.08,5.32,4.26,8,6.42,5.17,4.45,7.64,6.8c5,4.6,9.75,9.55,14.32,14.6a252.38,252.38,0,0,1,43.09,68.92l-.27.13c-12.34-24.11-27.08-47-45.2-66.91-1.11-1.27-2.27-2.48-3.42-3.71s-2.27-2.48-3.47-3.66c-2.37-2.39-4.73-4.78-7.19-7.09s-4.95-4.56-7.44-6.82-5.1-4.39-7.77-6.45q-7.89-6.32-16.3-11.94c-2.78-1.9-5.66-3.66-8.5-5.48l-4.34-2.6c-1.45-.87-2.94-1.66-4.4-2.5-5.92-3.24-11.95-6.31-18.16-9s-12.55-5-19-7.11-13-3.76-19.59-5.2-13.25-2.62-19.93-3.57a339.46,339.46,0,0,0-40.28-3.55c-3.37-.06-6.75-.12-10.12-.1s-6.75.1-10.13.23c-6.75.27-13.5.72-20.21,1.59Z"/><path class="cls-5" d="M256.31,78.8a26.52,26.52,0,0,0-4,11.78c-1.72,25.47,41.43,51.16,61.57,60.85,21.9,10.53,51.39,25.14,67.15,1.23,17-25.76,5.81-61.86-.46-90.5-.77-2.3-1.61-4.55-2.54-6.77.18.42,11.45-6.71,12.11-7.24,5.52-4.44,10.56-10.91,10-18.46C398.48,7.92,368.05-5.74,350,4.43c-10.27,5.79-9.58,18.84-7,29.11l.12.47c-.66-2.53-31.12,6.46-32.86,7.12C290.58,48.53,267.11,60.7,256.31,78.8Z"/><path class="cls-4" d="M256.34,79.5a29.37,29.37,0,0,0-3.27,7.7,21.16,21.16,0,0,0-.47,8.31,34,34,0,0,0,6.64,15.18A77.73,77.73,0,0,0,270.62,123a140.09,140.09,0,0,0,13.27,10.26,236.14,236.14,0,0,0,29,16.87c5.05,2.45,10.11,4.91,15.22,7.15a119.1,119.1,0,0,0,15.64,5.8,46.67,46.67,0,0,0,16.31,2,27.41,27.41,0,0,0,7.94-1.84,24.85,24.85,0,0,0,6.94-4.27,32.18,32.18,0,0,0,5.43-6.2,52.87,52.87,0,0,0,4-7.31,56.24,56.24,0,0,0,2.75-7.89,69.31,69.31,0,0,0,1.58-8.22A90.33,90.33,0,0,0,389,112.5a144.39,144.39,0,0,0-2.16-16.68c-2-11-4.92-21.91-7.49-32.9l0,.11-2.57-6.61-.2-.51.26-.42a3.42,3.42,0,0,1,.9-1,7,7,0,0,1,.85-.6c.56-.35,1.12-.65,1.68-.94l3.25-1.6c.42-.22,1-.6,1.5-.9l1.55-.94a21.78,21.78,0,0,0,2.83-2,26.41,26.41,0,0,0,8.23-11,14.91,14.91,0,0,0,.81-6.58,22.8,22.8,0,0,0-1.66-6.64,29.53,29.53,0,0,0-8.24-11A39.25,39.25,0,0,0,362.78,3.2a25.91,25.91,0,0,0-13,3.74,16,16,0,0,0-6.67,11,30,30,0,0,0-.26,6.91,20.34,20.34,0,0,0,.47,3.39c.24,1.16.55,2.38.71,3.71a6.87,6.87,0,0,1,0,1.16,3.08,3.08,0,0,1,0,.38,1.94,1.94,0,0,1-.11.45,2.27,2.27,0,0,1-.63,1,3.07,3.07,0,0,1-1.55.71c-.38.07-.7.11-1,.15-1.18.14-2.37.32-3.56.51q-3.56.57-7.08,1.33c-2.36.49-4.69,1-7,1.64L316,41.05a65.51,65.51,0,0,0-6.85,2.15c-2.27.82-4.53,1.69-6.77,2.59A143.08,143.08,0,0,0,276.7,59.12a85.14,85.14,0,0,0-11.28,9.11A58.74,58.74,0,0,0,256.34,79.5Zm-.26-.16a58.39,58.39,0,0,1,9.06-11.41,90.34,90.34,0,0,1,11.15-9.42,147,147,0,0,1,25.44-14.35c2.23-1,4.47-2,6.73-2.87a68.3,68.3,0,0,1,7-2.47c2.35-.72,4.71-1.32,7-2s4.71-1.3,7.09-1.86,4.79-1,7.21-1.48c1.21-.21,2.42-.41,3.64-.58.3,0,.58-.08.8-.13s.33-.14.11,0a1.49,1.49,0,0,0-.12.14l-.05.1s0,0,0,0a.14.14,0,0,0,0-.07,4.53,4.53,0,0,0-.05-.65c-.14-1.08-.43-2.22-.7-3.43-.13-.61-.26-1.24-.36-1.89s-.15-1.3-.2-1.92a33.61,33.61,0,0,1,.23-7.62,21.11,21.11,0,0,1,2.55-7.39A17.38,17.38,0,0,1,348,4.28,28.9,28.9,0,0,1,362.65,0a40,40,0,0,1,14.87,2.49,42.49,42.49,0,0,1,13,7.57,32.3,32.3,0,0,1,8.93,12.19,25.52,25.52,0,0,1,1.79,7.45,17.62,17.62,0,0,1-1,7.75,24.21,24.21,0,0,1-3.86,6.63A35.33,35.33,0,0,1,391,49.41a24,24,0,0,1-3.14,2.16l-1.58.93c-.53.3-1,.61-1.63.94-1.16.58-2.25,1-3.31,1.56-.53.26-1.05.53-1.52.81a7.33,7.33,0,0,0-.65.43,1.67,1.67,0,0,0-.35.32l.06-.94,2.44,6.77,0,0v.06c2.26,11,4.93,22,6.72,33.12s2.95,22.49,1.53,33.77a71.77,71.77,0,0,1-1.56,8.35,64.32,64.32,0,0,1-2.72,8.07,54.79,54.79,0,0,1-4,7.54,33.33,33.33,0,0,1-5.49,6.61,26.24,26.24,0,0,1-7.24,4.73,28.79,28.79,0,0,1-8.39,2.19,48.65,48.65,0,0,1-17.09-1.59c-11.11-2.83-21.32-7.91-31.46-12.78a195.91,195.91,0,0,1-29-17.64A142.65,142.65,0,0,1,269.62,124a79,79,0,0,1-11.12-12.83c-3.16-4.68-5.69-10-6.37-15.61a22.64,22.64,0,0,1,.56-8.44A31.62,31.62,0,0,1,256.08,79.34Z"/><path class="cls-6" d="M79.45,277.43s58.15-26.05,110-3.6,107.1,8.64,107.1,8.64,87.68-8.45,85.25,8.66-36,76.77-69.07,103c0,0-23.39,42.21-30.8,107.23,0,0-3.42,29.09-63.31,30.8S-46.29,433.47,12.17,348.66c0,0,41.17-41.17,47.76-42s18.94-32.11,18.94-32.11"/><path class="cls-4" d="M154.86,150a49.64,49.64,0,0,0-11.42,2,44.77,44.77,0,0,0-10.57,4.53,37.72,37.72,0,0,0-8.82,7.3,85.42,85.42,0,0,0-7.17,9,86.88,86.88,0,0,0-5.92,9.9c-1.75,3.41-3.22,7-4.7,10.56s-2.89,7.18-4.19,10.81c-.66,1.81-1.27,3.64-1.83,5.47-.26.92-.53,1.83-.73,2.75a9.84,9.84,0,0,0-.32,2.54v.25l0,.12-4.92,18.94-4.79,19c-1.82,6.35-3.92,12.53-6.35,18.65-1.21,3-2.52,6.08-4,9a49.51,49.51,0,0,1-5.22,8.56l.07-.09a134.75,134.75,0,0,1-10.73,13.44q-5.74,6.38-12.07,12.17c-2.1,1.94-4.27,3.81-6.45,5.63-1.08.89-2.23,1.8-3.26,2.68l-3.11,2.87q-6.21,5.79-12.27,11.74c-4,4-8,8-11.68,12.25a65.67,65.67,0,0,0-5.14,6.55c-.19.28-.39.56-.57.85l-.45.86-.45.85-.43,1c-.57,1.33-1.16,2.62-1.73,3.9A35.11,35.11,0,0,0,3,371.87,31.26,31.26,0,0,0,2.64,380,79,79,0,0,0,6,396.39,105.16,105.16,0,0,0,12.36,412a85.91,85.91,0,0,0,8.92,14.24,247.34,247.34,0,0,0,23,24.92c8.2,7.79,17.47,14.34,26.73,20.9s18.68,12.88,28.14,19.14l0,0c8.55,4.19,17.09,8.46,25.67,12.58s17.34,7.87,26.17,11.41,17.79,6.79,26.9,9.52,18.39,5,27.81,5.69h.09a94.72,94.72,0,0,0,15,1.25,101.68,101.68,0,0,0,15-1,79.29,79.29,0,0,0,14.6-3.45l3.53-1.25,3.43-1.51,1.71-.76,1.64-.9,3.28-1.8.09,0,.13-.05a14.9,14.9,0,0,0,3.15-1.8,24.25,24.25,0,0,0,2.87-2.5,34.85,34.85,0,0,0,2.54-2.88c.74-1,1.54-2.06,2.19-3.18a58.49,58.49,0,0,0,6.22-14.23l.57-1.87.47-1.9c.29-1.28.66-2.51.9-3.82l1.53-7.78,3.06-15.57,3.07-15.57,1.54-7.78c.49-2.62,1-5.22,1.62-7.82A159.87,159.87,0,0,1,298,418.65a55.92,55.92,0,0,1,3.08-7.55c.34-.61.71-1.22,1.07-1.83l1.05-1.64c.67-1.1,1.32-2.21,1.95-3.37a67.16,67.16,0,0,1,4.28-6.87q2.34-3.28,4.85-6.39c3.33-4.16,6.76-8.2,10.23-12.21,1.75-2,3.48-4,5.28-6l5.53-5.7q5.49-5.71,10.89-11.51c3.59-3.87,7.16-7.76,10.6-11.73,1.71-2,3.41-4,5-6.06l1.16-1.55,1-1.59c.75-1.14,1.43-2.21,2.13-3.33,2.76-4.46,5.37-9,7.68-13.71a62.36,62.36,0,0,0,5.42-14.42v0l0-.07a42.9,42.9,0,0,0,1-7.26,43.41,43.41,0,0,0-.19-7.39,34.17,34.17,0,0,0-1.53-7.17c-.33-1.18-.86-2.27-1.3-3.41l-.84-1.62-.42-.81-.49-.8a80.9,80.9,0,0,0-9-12A113.81,113.81,0,0,0,355.78,252l.23.15q-49.51-27.31-99.48-53.83c-16.65-8.84-33.35-17.59-50.16-26.11C198,168,189.54,163.76,181,159.72c-4.26-2-8.54-4-12.87-5.83-2.17-.92-4.35-1.81-6.56-2.6-1.11-.39-2.22-.77-3.35-1.07a16.8,16.8,0,0,0-1.71-.37A2.7,2.7,0,0,0,154.86,150Zm-.1-.29a3,3,0,0,1,1.8-.16,16.93,16.93,0,0,1,1.75.35c1.15.29,2.28.65,3.4,1,2.24.76,4.44,1.61,6.63,2.5,4.38,1.77,8.7,3.67,13,5.61,8.6,3.89,17.11,8,25.59,12.08,16.94,8.29,33.75,16.85,50.52,25.49s33.45,17.43,50.11,26.28,33.28,17.76,49.86,26.74l.12.07.1.09a110.59,110.59,0,0,1,11.13,10.83A84.53,84.53,0,0,1,378.11,273l.51.84.47.89.92,1.78a38.46,38.46,0,0,1,1.44,3.74,37.28,37.28,0,0,1,1.67,7.77,46.37,46.37,0,0,1,.22,7.9,45.85,45.85,0,0,1-1.11,7.88l0-.11A64.59,64.59,0,0,1,376.6,319c-2.37,4.81-5,9.44-7.81,14-.7,1.12-1.43,2.29-2.14,3.36L365.51,338l-1.22,1.63c-1.64,2.16-3.36,4.19-5.09,6.22-3.48,4-7.05,8-10.67,11.83s-7.29,7.7-11,11.51L332,374.9l-5.2,5.89c-3.47,4-6.9,8-10.21,12.08a84.4,84.4,0,0,0-8.91,12.81c-.64,1.16-1.33,2.33-2,3.49l-1.09,1.7-.93,1.59a54.78,54.78,0,0,0-2.93,7.12c-1.67,4.94-3,10-4.17,15.16-.58,2.56-1.13,5.14-1.63,7.72l-1.57,7.79-3.2,15.56-3.21,15.56-1.6,7.78c-.25,1.29-.64,2.6-.95,3.9l-.5,1.95-.61,1.92a60.43,60.43,0,0,1-6.6,14.7c-.69,1.17-1.54,2.23-2.34,3.33a39.36,39.36,0,0,1-2.73,3,26.1,26.1,0,0,1-3.14,2.68,15.91,15.91,0,0,1-3.76,2.06l.22-.1-3.4,1.82-1.7.91-1.77.77-3.54,1.52-3.63,1.25a82.53,82.53,0,0,1-15,3.39,102.63,102.63,0,0,1-15.27.9,96.42,96.42,0,0,1-15.24-1.42h.09c-9.6-.85-18.91-3.24-28-6s-18.1-6.09-26.95-9.66-17.58-7.43-26.19-11.53L98.6,492.07h0l0,0q-14.25-9.33-28.26-19c-4.66-3.25-9.3-6.52-13.88-9.89a154.12,154.12,0,0,1-13.21-10.85,249.2,249.2,0,0,1-23.46-24.83A88,88,0,0,1,10.43,413a107.12,107.12,0,0,1-6.67-15.85A78.13,78.13,0,0,1,.12,380.25a33.8,33.8,0,0,1,.38-8.8,37.47,37.47,0,0,1,2.73-8.35c.57-1.31,1.16-2.6,1.71-3.89l.41-1,.53-1,.54-1c.2-.32.41-.62.61-.93a68.53,68.53,0,0,1,5.33-6.86C16.12,344.07,20.1,340,24.13,336s8.16-7.94,12.34-11.79l3.16-2.89c1.13-1,2.22-1.81,3.33-2.71,2.18-1.81,4.32-3.63,6.4-5.53q6.26-5.69,12-11.94A133.88,133.88,0,0,0,71.87,288l0-.06,0,0a47.1,47.1,0,0,0,5-8.11c1.46-2.86,2.76-5.83,4-8.83,2.41-6,4.55-12.18,6.35-18.37l5-18.92,5.14-18.89,0,.36a7.73,7.73,0,0,1,.08-1.7,13.29,13.29,0,0,1,.29-1.5c.22-1,.51-1.92.79-2.86.6-1.87,1.23-3.71,1.92-5.53,1.36-3.65,2.82-7.25,4.34-10.82s3-7.16,4.88-10.62a87.66,87.66,0,0,1,6.18-9.94,86.71,86.71,0,0,1,7.43-9,38.45,38.45,0,0,1,9.15-7.3,44.4,44.4,0,0,1,10.82-4.4A47.24,47.24,0,0,1,154.76,149.69Z"/><path class="cls-3" d="M435.54,211.68a1.32,1.32,0,0,1-.28,0,29.93,29.93,0,0,1-3.42-.66c-22.56-1.83-140-17.07-261.7-140.15l-32.88,58.17s102.24,137.56,264,148.31Z"/><path class="cls-4" d="M136.87,130l8-15.06,8.1-15c2.72-5,5.44-10,8.21-14.95s5.6-9.9,8.45-14.82l.6-1,.85.88a3.24,3.24,0,0,1,.37,4.2,2.63,2.63,0,0,1-1.35,1.05,1.49,1.49,0,0,1-.72,0,1.29,1.29,0,0,1-.8-.5,1.8,1.8,0,0,1-.32-1.14,5.07,5.07,0,0,1,.29-1.37,14.79,14.79,0,0,1,1-2.16l.63-1.16.95,1,13.41,13.64,13.93,13.1,14.39,12.58,14.89,12,15.36,11.37,15.81,10.73,16.19,10.15,16.6,9.47,17,8.76,17.35,8,17.66,7.32,18,6.55a426.25,426.25,0,0,0,74.34,18,379.73,379.73,0,0,1-75-16.1l-18.16-6.28c-5.95-2.36-11.92-4.71-17.86-7.12l-17.5-8-17.14-8.71L273.63,156l-16.35-10.13L241.43,135,226,123.47l-14.91-12.14L196.73,98.6c-4.64-4.42-9.22-8.9-13.82-13.36L169.67,71.31l1.58-.19a13.54,13.54,0,0,0-.9,1.84,3.57,3.57,0,0,0-.2.78c0,.09,0,.1-.08-.08a.61.61,0,0,0-.35-.21.43.43,0,0,0-.18,0,.9.9,0,0,0,.34-.32,1.63,1.63,0,0,0,.27-.62,1.48,1.48,0,0,0-.43-1.26l1.45-.16q-4.39,7.29-8.69,14.65l-8.6,14.71Z"/><path class="cls-4" d="M435.61,212.15l-8.22,16.36q-4.11,8.18-8.31,16.31l-8.37,16.29c-2.77,5.44-5.62,10.83-8.44,16.24l-.27.52-.59-.05a352.25,352.25,0,0,1-38.67-5.28,339.72,339.72,0,0,1-37.81-9.71,363.56,363.56,0,0,1-71.19-31.74q-8.43-4.91-16.63-10.2c-5.46-3.53-10.81-7.24-16.08-11q-15.81-11.43-30.49-24.31t-28-27.07a303,303,0,0,1-25-29.87c3.87,5.22,8.05,10.18,12.29,15.09S158.48,153.34,163,158q13.55,14,28.31,26.66a416.15,416.15,0,0,0,63.32,44.92,360.88,360.88,0,0,0,70.92,31.36,344.73,344.73,0,0,0,37.57,9.74,347.89,347.89,0,0,0,38.45,5.37l-.86.47c2.87-5.39,5.71-10.79,8.62-16.15l8.7-16.11q4.34-8.07,8.75-16.08Z"/></g></g></svg>